<?xml version="1.0" encoding="UTF-8" standalone="no"?>
<!-- Created with Inkscape (http://www.inkscape.org/) -->

<svg
   width="200"
   height="200"
   viewBox="0 0 52.916665 52.916668"
   version="1.1"
   id="svg5"
   inkscape:version="1.1.1 (3bf5ae0d25, 2021-09-20)"
   sodipodi:docname="Metra UPW.svg"
   xmlns:inkscape="http://www.inkscape.org/namespaces/inkscape"
   xmlns:sodipodi="http://sodipodi.sourceforge.net/DTD/sodipodi-0.dtd"
   xmlns="http://www.w3.org/2000/svg"
   xmlns:svg="http://www.w3.org/2000/svg">
  <sodipodi:namedview
     id="namedview7"
     pagecolor="#505050"
     bordercolor="#eeeeee"
     borderopacity="1"
     inkscape:pageshadow="0"
     inkscape:pageopacity="0"
     inkscape:pagecheckerboard="0"
     inkscape:document-units="mm"
     showgrid="false"
     inkscape:zoom="1"
     inkscape:cx="148.5"
     inkscape:cy="89.5"
     inkscape:window-width="1366"
     inkscape:window-height="697"
     inkscape:window-x="-8"
     inkscape:window-y="-8"
     inkscape:window-maximized="1"
     inkscape:current-layer="layer1"
     inkscape:object-paths="true"
     inkscape:snap-intersection-paths="true"
     inkscape:snap-smooth-nodes="true"
     inkscape:snap-midpoints="true"
     units="px" />
  <defs
     id="defs2" />
  <g
     inkscape:label="Layer 1"
     inkscape:groupmode="layer"
     id="layer1">
    <circle
       style="fill:#ffb1bb;fill-opacity:1;stroke:none;stroke-width:4;stroke-linecap:round;stroke-linejoin:round;stroke-miterlimit:4;stroke-dasharray:none;stroke-dashoffset:4.53543;paint-order:stroke fill markers;stop-color:#000000"
       id="path1129"
       cx="26.458334"
       cy="26.458334"
       r="26.458334" />
    <g
       aria-label="UPW"
       id="text2210"
       style="font-weight:bold;font-size:21.1667px;line-height:1.25;font-family:'Roboto Condensed';-inkscape-font-specification:'Roboto Condensed,  Bold';letter-spacing:-0.529167px;stroke-width:0.264583">
      <path
         d="m 14.647149,18.830881 h 3.017908 v 10.335303 q 0,1.73633 -0.640789,2.831873 -0.630453,1.085206 -1.746666,1.591636 -1.116212,0.496095 -2.55282,0.496095 -1.446942,0 -2.57349,-0.496095 Q 9.024744,33.083263 8.3942905,31.998057 7.7741723,30.902514 7.7741723,29.166184 V 18.830881 h 3.0179087 v 10.335303 q 0,0.981853 0.217041,1.508954 0.227377,0.5271 0.651124,0.723471 0.434083,0.186035 1.064536,0.186035 0.640789,0 1.054201,-0.186035 0.423748,-0.196371 0.640789,-0.723471 0.227377,-0.527101 0.227377,-1.508954 z"
         id="path2576" />
      <path
         d="m 24.566973,28.577071 h -3.07992 v -2.511478 h 3.07992 q 0.651124,0 1.054201,-0.289389 0.403077,-0.289388 0.589112,-0.795818 0.186036,-0.516765 0.186036,-1.157554 0,-0.651124 -0.186036,-1.219566 -0.186035,-0.568441 -0.589112,-0.909506 -0.403077,-0.351401 -1.054201,-0.351401 H 22.468906 V 33.879082 H 19.440663 V 18.830881 h 5.12631 q 1.51929,0 2.604496,0.640788 1.095542,0.640789 1.684655,1.767337 0.589112,1.116213 0.589112,2.563155 0,1.457278 -0.589112,2.53215 -0.589113,1.064536 -1.684655,1.653648 -1.085206,0.589112 -2.604496,0.589112 z"
         id="path2578" />
      <path
         d="M 34.011374,31.625986 36.4195,18.830881 h 1.591636 l 0.475424,1.984378 -2.583826,13.063823 h -1.725995 z m -0.826824,-12.795105 1.943037,12.826111 -0.33073,2.22209 H 32.895161 L 30.197647,18.830881 Z m 7.048676,12.774434 1.932702,-12.774434 h 2.976567 l -2.676843,15.048201 h -1.912031 z m -1.302248,-12.774434 2.428796,12.867452 -0.19637,2.180749 h -1.725996 l -2.57349,-13.084494 0.485759,-1.963707 z"
         id="path2580" />
    </g>
  </g>
</svg>
