<?xml version="1.0" encoding="UTF-8" standalone="no"?>
<!-- Created with Inkscape (http://www.inkscape.org/) -->

<svg
   width="200"
   height="200"
   viewBox="0 0 52.916665 52.916668"
   version="1.1"
   id="svg5"
   inkscape:version="1.1.1 (3bf5ae0d25, 2021-09-20)"
   sodipodi:docname="Metra HC.svg"
   xmlns:inkscape="http://www.inkscape.org/namespaces/inkscape"
   xmlns:sodipodi="http://sodipodi.sourceforge.net/DTD/sodipodi-0.dtd"
   xmlns="http://www.w3.org/2000/svg"
   xmlns:svg="http://www.w3.org/2000/svg">
  <sodipodi:namedview
     id="namedview7"
     pagecolor="#505050"
     bordercolor="#eeeeee"
     borderopacity="1"
     inkscape:pageshadow="0"
     inkscape:pageopacity="0"
     inkscape:pagecheckerboard="0"
     inkscape:document-units="mm"
     showgrid="false"
     inkscape:zoom="1"
     inkscape:cx="68.5"
     inkscape:cy="89.5"
     inkscape:window-width="1366"
     inkscape:window-height="697"
     inkscape:window-x="-8"
     inkscape:window-y="-8"
     inkscape:window-maximized="1"
     inkscape:current-layer="layer1"
     inkscape:object-paths="true"
     inkscape:snap-intersection-paths="true"
     inkscape:snap-smooth-nodes="true"
     inkscape:snap-midpoints="true"
     units="px" />
  <defs
     id="defs2" />
  <g
     inkscape:label="Layer 1"
     inkscape:groupmode="layer"
     id="layer1">
    <circle
       style="fill:#862041;fill-opacity:1;stroke:none;stroke-width:4;stroke-linecap:round;stroke-linejoin:round;stroke-miterlimit:4;stroke-dasharray:none;stroke-dashoffset:4.53543;paint-order:stroke fill markers;stop-color:#000000"
       id="path1129"
       cx="26.458334"
       cy="26.458334"
       r="26.458334" />
    <g
       aria-label="HC"
       id="text2210"
       style="font-weight:bold;font-size:21.1667px;line-height:0.9;font-family:'Roboto Condensed';-inkscape-font-specification:'Roboto Condensed,  Bold';letter-spacing:-0.529167px;stroke-width:0.264583">
      <path
         d="m 23.46213,25.03723 v 2.501143 H 17.291954 V 25.03723 Z M 18.149784,18.939401 V 33.987602 H 15.12154 V 18.939401 Z m 7.50343,0 V 33.987602 H 22.655976 V 18.939401 Z"
         style="text-align:center;text-anchor:middle;fill:#ffffff"
         id="path1947" />
      <path
         d="m 34.75655,28.97498 h 3.007573 q -0.06201,1.69499 -0.68213,2.862879 -0.620118,1.157554 -1.767337,1.757002 -1.136883,0.599447 -2.749191,0.599447 -1.250571,0 -2.22209,-0.413412 -0.971518,-0.423747 -1.653648,-1.240236 -0.68213,-0.816489 -1.033531,-2.015384 -0.341065,-1.209231 -0.341065,-2.780197 v -2.55282 q 0,-1.570966 0.361736,-2.780196 0.372071,-1.20923 1.054201,-2.025719 0.692465,-0.826825 1.663984,-1.240237 0.981853,-0.423747 2.211755,-0.423747 1.643313,0 2.74919,0.620118 1.105878,0.620118 1.705325,1.808678 0.609783,1.178225 0.733807,2.88355 h -3.028244 q -0.02067,-1.074872 -0.237712,-1.684655 -0.206706,-0.620118 -0.66146,-0.868165 -0.454753,-0.258383 -1.260906,-0.258383 -0.599448,0 -1.033531,0.217041 -0.434082,0.206707 -0.713136,0.671795 -0.279053,0.465089 -0.413412,1.219566 -0.124023,0.754477 -0.124023,1.839684 v 2.57349 q 0,1.064536 0.113688,1.819014 0.113688,0.744141 0.361736,1.219565 0.248047,0.475424 0.671794,0.692466 0.434083,0.217041 1.095542,0.217041 0.764813,0 1.229901,-0.227377 0.475424,-0.227376 0.702801,-0.816489 0.227377,-0.589112 0.258383,-1.674319 z"
         style="text-align:center;text-anchor:middle;fill:#ffffff"
         id="path1949" />
    </g>
  </g>
</svg>
