<?xml version="1.0" encoding="UTF-8" standalone="no"?>
<!-- Created with Inkscape (http://www.inkscape.org/) -->

<svg
   width="200"
   height="200"
   viewBox="0 0 52.916665 52.916668"
   version="1.1"
   id="svg5"
   inkscape:version="1.1.1 (3bf5ae0d25, 2021-09-20)"
   sodipodi:docname="Metra RI_Bev.svg"
   xmlns:inkscape="http://www.inkscape.org/namespaces/inkscape"
   xmlns:sodipodi="http://sodipodi.sourceforge.net/DTD/sodipodi-0.dtd"
   xmlns="http://www.w3.org/2000/svg"
   xmlns:svg="http://www.w3.org/2000/svg">
  <sodipodi:namedview
     id="namedview7"
     pagecolor="#505050"
     bordercolor="#eeeeee"
     borderopacity="1"
     inkscape:pageshadow="0"
     inkscape:pageopacity="0"
     inkscape:pagecheckerboard="0"
     inkscape:document-units="mm"
     showgrid="false"
     inkscape:zoom="1.4142136"
     inkscape:cx="83.792151"
     inkscape:cy="84.499258"
     inkscape:window-width="1366"
     inkscape:window-height="697"
     inkscape:window-x="-8"
     inkscape:window-y="-8"
     inkscape:window-maximized="1"
     inkscape:current-layer="layer1"
     inkscape:object-paths="true"
     inkscape:snap-intersection-paths="true"
     inkscape:snap-smooth-nodes="true"
     inkscape:snap-midpoints="true"
     units="px" />
  <defs
     id="defs2" />
  <g
     inkscape:label="Layer 1"
     inkscape:groupmode="layer"
     id="layer1">
    <circle
       style="fill:#717c7d;fill-opacity:1;stroke:none;stroke-width:4;stroke-linecap:round;stroke-linejoin:round;stroke-miterlimit:4;stroke-dasharray:none;stroke-dashoffset:4.53543;paint-order:stroke fill markers;stop-color:#000000"
       id="path1129"
       cx="26.458334"
       cy="26.458334"
       r="26.458334" />
    <g
       aria-label="RI
Bev"
       id="text2210"
       style="font-weight:bold;font-size:21.1667px;line-height:0.9;font-family:'Roboto Condensed';-inkscape-font-specification:'Roboto Condensed,  Bold';letter-spacing:-0.529167px;stroke-width:0.264583">
      <path
         d="m 19.049988,9.3058658 h 4.826586 q 1.508954,0 2.573491,0.5167652 1.064536,0.516765 1.632978,1.529625 0.568441,1.012859 0.568441,2.501143 0,1.219566 -0.33073,2.087731 -0.330729,0.85783 -0.940512,1.436607 -0.609783,0.568442 -1.457278,0.909507 l -0.919842,0.547771 h -3.91708 l -0.01033,-2.511479 h 2.718185 q 0.620118,0 1.023195,-0.268717 0.413412,-0.279054 0.609783,-0.775148 0.206706,-0.50643 0.206706,-1.178225 0,-0.713136 -0.186036,-1.219565 -0.1757,-0.516766 -0.568441,-0.785483 -0.382407,-0.279054 -1.002525,-0.279054 h -1.798342 v 12.536723 h -3.028244 z m 6.831635,15.0482012 -2.759526,-6.707612 3.172938,-0.01034 2.821538,6.573253 v 0.144694 z"
         style="text-align:center;text-anchor:middle;fill:#ffffff"
         id="path1699" />
      <path
         d="M 33.362315,9.3058658 V 24.354067 H 30.354742 V 9.3058658 Z"
         style="text-align:center;text-anchor:middle;fill:#ffffff"
         id="path1701" />
      <path
         d="m 17.15346,36.841179 h -3.090256 l -0.01034,-2.191084 h 2.625167 q 0.620118,0 1.012859,-0.206706 0.403077,-0.217041 0.589113,-0.630453 0.19637,-0.423748 0.19637,-1.023195 0,-0.692466 -0.186035,-1.105878 -0.1757,-0.423747 -0.568442,-0.620118 -0.382406,-0.196371 -1.012859,-0.196371 H 15.096734 V 43.404097 H 12.068491 V 28.355896 h 4.640551 q 1.116212,0 2.005048,0.248047 0.888836,0.248047 1.508955,0.764812 0.620118,0.50643 0.950848,1.281578 0.330729,0.764812 0.330729,1.819013 0,0.930177 -0.372071,1.71566 -0.372071,0.785483 -1.167889,1.291913 -0.795818,0.496095 -2.056725,0.547771 z m -0.113689,6.562918 h -3.834397 l 1.20923,-2.501144 h 2.625167 q 0.609783,0 0.971519,-0.258382 0.361735,-0.258383 0.5271,-0.692466 0.1757,-0.444418 0.1757,-1.012859 0,-0.640789 -0.155029,-1.116213 -0.144694,-0.475424 -0.485759,-0.723471 -0.341065,-0.258383 -0.919842,-0.258383 h -2.604497 l 0.02067,-2.191084 h 3.162603 l 0.713136,0.868166 q 1.20923,-0.04134 1.932701,0.465088 0.723471,0.496095 1.03353,1.302248 0.320395,0.795819 0.320395,1.69499 0,1.446942 -0.547771,2.439132 -0.537436,0.981853 -1.581302,1.488283 -1.043865,0.496095 -2.563155,0.496095 z"
         style="text-align:center;text-anchor:middle;fill:#ffffff"
         id="path1703" />
      <path
         d="m 27.776085,43.610803 q -1.147219,0 -2.036055,-0.351401 -0.878501,-0.3514 -1.488284,-1.012859 -0.609783,-0.671795 -0.930177,-1.622643 -0.320394,-0.950848 -0.320394,-2.170413 v -0.919842 q 0,-1.36426 0.310059,-2.387455 0.310059,-1.033531 0.8785,-1.736331 0.568442,-0.702801 1.395266,-1.043866 0.83716,-0.3514 1.891361,-0.3514 1.054201,0 1.850019,0.3514 0.806154,0.341065 1.333254,1.03353 0.5271,0.68213 0.795818,1.69499 0.268718,1.01286 0.268718,2.356449 v 1.322919 h -7.493094 v -2.036055 h 4.650886 v -0.258382 q 0,-0.68213 -0.144694,-1.136884 -0.144695,-0.465088 -0.454754,-0.692465 -0.310059,-0.227377 -0.826824,-0.227377 -0.434083,0 -0.733806,0.175701 -0.299724,0.1757 -0.475424,0.547771 -0.1757,0.372071 -0.258383,0.971518 -0.08268,0.589112 -0.08268,1.415937 v 0.919842 q 0,0.775147 0.134359,1.302248 0.134359,0.516765 0.392741,0.847495 0.268718,0.320394 0.651124,0.465088 0.382406,0.134359 0.888836,0.134359 0.764813,0 1.374596,-0.268718 0.620118,-0.279053 1.0542,-0.754477 l 1.157554,1.757002 q -0.299723,0.392741 -0.826824,0.785483 -0.5271,0.392741 -1.260907,0.640788 -0.733806,0.248048 -1.694989,0.248048 z"
         style="text-align:center;text-anchor:middle;fill:#ffffff"
         id="path1705" />
      <path
         d="m 36.031925,41.171671 1.798343,-8.950372 h 3.017908 l -3.069585,11.182798 h -1.808678 z m -1.064536,-8.950372 1.829348,8.960708 0.03101,2.22209 H 35.00873 L 31.939145,32.221299 Z"
         style="text-align:center;text-anchor:middle;fill:#ffffff"
         id="path1707" />
    </g>
  </g>
</svg>
