<?xml version="1.0" encoding="UTF-8" standalone="no"?>
<!-- Created with Inkscape (http://www.inkscape.org/) -->

<svg
   width="200"
   height="200"
   viewBox="0 0 52.916665 52.916668"
   version="1.1"
   id="svg5"
   inkscape:version="1.1.1 (3bf5ae0d25, 2021-09-20)"
   sodipodi:docname="Metra SWS.svg"
   xmlns:inkscape="http://www.inkscape.org/namespaces/inkscape"
   xmlns:sodipodi="http://sodipodi.sourceforge.net/DTD/sodipodi-0.dtd"
   xmlns="http://www.w3.org/2000/svg"
   xmlns:svg="http://www.w3.org/2000/svg">
  <sodipodi:namedview
     id="namedview7"
     pagecolor="#505050"
     bordercolor="#eeeeee"
     borderopacity="1"
     inkscape:pageshadow="0"
     inkscape:pageopacity="0"
     inkscape:pagecheckerboard="0"
     inkscape:document-units="mm"
     showgrid="false"
     inkscape:zoom="1"
     inkscape:cx="68.5"
     inkscape:cy="89.5"
     inkscape:window-width="1366"
     inkscape:window-height="697"
     inkscape:window-x="-8"
     inkscape:window-y="-8"
     inkscape:window-maximized="1"
     inkscape:current-layer="layer1"
     inkscape:object-paths="true"
     inkscape:snap-intersection-paths="true"
     inkscape:snap-smooth-nodes="true"
     inkscape:snap-midpoints="true"
     units="px" />
  <defs
     id="defs2" />
  <g
     inkscape:label="Layer 1"
     inkscape:groupmode="layer"
     id="layer1">
    <circle
       style="fill:#005eb8;fill-opacity:1;stroke:none;stroke-width:4;stroke-linecap:round;stroke-linejoin:round;stroke-miterlimit:4;stroke-dasharray:none;stroke-dashoffset:4.53543;paint-order:stroke fill markers;stop-color:#000000"
       id="path1129"
       cx="26.458334"
       cy="26.458334"
       r="26.458334" />
    <g
       aria-label="SWS"
       id="text2210"
       style="font-weight:bold;font-size:21.1667px;line-height:1.25;font-family:'Roboto Condensed';-inkscape-font-specification:'Roboto Condensed,  Bold';letter-spacing:-0.529167px;stroke-width:0.264583">
      <path
         d="m 15.246597,30.024012 q 0,-0.403077 -0.07235,-0.733806 -0.07235,-0.33073 -0.31006,-0.609783 Q 14.636814,28.40137 14.192396,28.122317 13.758313,27.843263 13.055512,27.54354 12.218353,27.192139 11.43287,26.799398 10.647387,26.396321 10.016933,25.869221 9.3864799,25.34212 9.014409,24.628984 8.6526734,23.905513 8.6526734,22.933995 q 0,-0.950848 0.341065,-1.725996 0.3514003,-0.775148 0.9921891,-1.322919 0.6407885,-0.558106 1.4986185,-0.85783 0.868166,-0.299724 1.932702,-0.299724 1.446942,0 2.501143,0.599448 1.064537,0.599447 1.643314,1.643313 0.589112,1.043866 0.589112,2.39779 h -3.017909 q 0,-0.640789 -0.186035,-1.126548 -0.1757,-0.496094 -0.568442,-0.775148 -0.392741,-0.279053 -1.012859,-0.279053 -0.578777,0 -0.961184,0.237712 -0.372071,0.227377 -0.558106,0.630454 -0.1757,0.392741 -0.1757,0.888836 0,0.372071 0.1757,0.671794 0.186035,0.289389 0.50643,0.527101 0.320394,0.227377 0.754477,0.444418 0.444418,0.217041 0.971518,0.423747 1.023195,0.403077 1.808678,0.888836 0.785483,0.475424 1.312584,1.074872 0.5271,0.589112 0.795818,1.333254 0.268718,0.744142 0.268718,1.69499 0,0.940512 -0.33073,1.71566 -0.320394,0.764812 -0.940512,1.322919 -0.620118,0.547771 -1.498619,0.847495 -0.868166,0.299723 -1.943037,0.299723 -1.043866,0 -1.974043,-0.289388 Q 10.647387,33.600027 9.934251,33.00058 9.2314504,32.390797 8.8283735,31.460619 8.4252967,30.520107 8.4252967,29.238529 H 11.45354 q 0,0.68213 0.134359,1.16789 0.134359,0.475423 0.413413,0.764812 0.279053,0.279053 0.68213,0.423747 0.413412,0.134359 0.940512,0.134359 0.599448,0 0.950848,-0.227376 0.361736,-0.227377 0.516765,-0.609783 0.15503,-0.382406 0.15503,-0.868166 z"
         style="fill:#ffffff"
         id="path1329" />
      <path
         d="m 22.840977,31.729337 2.408126,-12.795105 h 1.591636 l 0.475424,1.984378 -2.583825,13.063823 h -1.725996 z m -0.826824,-12.795105 1.943037,12.826111 -0.33073,2.22209 H 21.724764 L 19.02725,18.934232 Z m 7.048677,12.774435 1.932701,-12.774435 h 2.976567 l -2.676843,15.048201 h -1.912031 z m -1.302249,-12.774435 2.428797,12.867452 -0.196371,2.180749 H 28.267011 L 25.693521,20.89794 26.17928,18.934232 Z"
         style="fill:#ffffff"
         id="path1331" />
      <path
         d="m 41.473462,30.024012 q 0,-0.403077 -0.07235,-0.733806 -0.07235,-0.33073 -0.310059,-0.609783 -0.227376,-0.279053 -0.671794,-0.558106 -0.434083,-0.279054 -1.136884,-0.578777 -0.837159,-0.351401 -1.622642,-0.744142 -0.785483,-0.403077 -1.415937,-0.930177 -0.630453,-0.527101 -1.002524,-1.240237 -0.361736,-0.723471 -0.361736,-1.694989 0,-0.950848 0.341065,-1.725996 0.3514,-0.775148 0.992189,-1.322919 0.640789,-0.558106 1.498619,-0.85783 0.868166,-0.299724 1.932702,-0.299724 1.446942,0 2.501143,0.599448 1.064536,0.599447 1.643313,1.643313 0.589113,1.043866 0.589113,2.39779 h -3.017909 q 0,-0.640789 -0.186035,-1.126548 -0.175701,-0.496094 -0.568442,-0.775148 -0.392742,-0.279053 -1.01286,-0.279053 -0.578777,0 -0.961183,0.237712 -0.372071,0.227377 -0.558106,0.630454 -0.1757,0.392741 -0.1757,0.888836 0,0.372071 0.1757,0.671794 0.186035,0.289389 0.50643,0.527101 0.320394,0.227377 0.754477,0.444418 0.444418,0.217041 0.971518,0.423747 1.023195,0.403077 1.808678,0.888836 0.785483,0.475424 1.312584,1.074872 0.5271,0.589112 0.795818,1.333254 0.268718,0.744142 0.268718,1.69499 0,0.940512 -0.33073,1.71566 -0.320394,0.764812 -0.940512,1.322919 -0.620119,0.547771 -1.498619,0.847495 -0.868166,0.299723 -1.943037,0.299723 -1.043866,0 -1.974043,-0.289388 -0.930177,-0.299724 -1.643313,-0.899171 -0.702801,-0.609783 -1.105878,-1.539961 -0.403077,-0.940512 -0.403077,-2.22209 h 3.028244 q 0,0.68213 0.134359,1.16789 0.134359,0.475423 0.413412,0.764812 0.279053,0.279053 0.68213,0.423747 0.413412,0.134359 0.940513,0.134359 0.599447,0 0.950848,-0.227376 0.361735,-0.227377 0.516765,-0.609783 0.155029,-0.382406 0.155029,-0.868166 z"
         style="fill:#ffffff"
         id="path1333" />
    </g>
  </g>
</svg>
