<?xml version="1.0" encoding="UTF-8" standalone="no"?>
<!-- Created with Inkscape (http://www.inkscape.org/) -->

<svg
   width="200"
   height="200"
   viewBox="0 0 52.916665 52.916668"
   version="1.1"
   id="svg5"
   inkscape:version="1.1.1 (3bf5ae0d25, 2021-09-20)"
   sodipodi:docname="Metra ME_SC.svg"
   xmlns:inkscape="http://www.inkscape.org/namespaces/inkscape"
   xmlns:sodipodi="http://sodipodi.sourceforge.net/DTD/sodipodi-0.dtd"
   xmlns="http://www.w3.org/2000/svg"
   xmlns:svg="http://www.w3.org/2000/svg">
  <sodipodi:namedview
     id="namedview7"
     pagecolor="#505050"
     bordercolor="#eeeeee"
     borderopacity="1"
     inkscape:pageshadow="0"
     inkscape:pageopacity="0"
     inkscape:pagecheckerboard="0"
     inkscape:document-units="mm"
     showgrid="false"
     inkscape:zoom="1"
     inkscape:cx="68.5"
     inkscape:cy="89.5"
     inkscape:window-width="1366"
     inkscape:window-height="697"
     inkscape:window-x="-8"
     inkscape:window-y="-8"
     inkscape:window-maximized="1"
     inkscape:current-layer="layer1"
     inkscape:object-paths="true"
     inkscape:snap-intersection-paths="true"
     inkscape:snap-smooth-nodes="true"
     inkscape:snap-midpoints="true"
     units="px" />
  <defs
     id="defs2" />
  <g
     inkscape:label="Layer 1"
     inkscape:groupmode="layer"
     id="layer1">
    <circle
       style="fill:#dfdcd4;fill-opacity:1;stroke:none;stroke-width:4;stroke-linecap:round;stroke-linejoin:round;stroke-miterlimit:4;stroke-dasharray:none;stroke-dashoffset:4.53543;paint-order:stroke fill markers;stop-color:#000000"
       id="path1129"
       cx="26.458334"
       cy="26.458334"
       r="26.458334" />
    <g
       aria-label="ME
SC"
       id="text2210"
       style="font-weight:bold;font-size:21.1667px;line-height:0.9;font-family:'Roboto Condensed';-inkscape-font-specification:'Roboto Condensed,  Bold';letter-spacing:-0.529167px;stroke-width:0.264583">
      <path
         d="m 15.457438,9.3058658 h 2.656173 L 21.183196,19.599828 24.242445,9.3058658 h 2.346114 L 22.309744,24.354067 h -2.263432 z m -1.074872,0 h 2.532149 l 0.392742,9.9218912 v 5.12631 h -2.924891 z m 11.048439,0 H 27.97349 V 24.354067 h -2.914556 v -5.12631 z"
         style="text-align:center;text-anchor:middle"
         id="path3857" />
      <path
         d="m 38.534103,21.852924 v 2.501143 H 31.991856 V 21.852924 Z M 32.932369,9.3058658 V 24.354067 H 29.904125 V 9.3058658 Z m 4.723233,6.0978292 v 2.428796 h -5.663746 v -2.428796 z m 0.85783,-6.0978292 V 11.817344 H 31.991856 V 9.3058658 Z"
         style="text-align:center;text-anchor:middle"
         id="path3859" />
      <path
         d="m 21.962478,39.445676 q 0,-0.403077 -0.07235,-0.733807 -0.07235,-0.33073 -0.31006,-0.609783 -0.227376,-0.279053 -0.671794,-0.558106 -0.434083,-0.279053 -1.136884,-0.578777 -0.837159,-0.3514 -1.622642,-0.744142 -0.785483,-0.403077 -1.415937,-0.930177 -0.630453,-0.527101 -1.002524,-1.240236 -0.361736,-0.723472 -0.361736,-1.69499 0,-0.950848 0.341065,-1.725996 0.351401,-0.775147 0.992189,-1.322919 0.640789,-0.558106 1.498619,-0.85783 0.868166,-0.299723 1.932702,-0.299723 1.446942,0 2.501143,0.599447 1.064537,0.599448 1.643314,1.643313 0.589112,1.043866 0.589112,2.397791 h -3.017909 q 0,-0.640789 -0.186035,-1.126548 -0.1757,-0.496095 -0.568442,-0.775148 -0.392741,-0.279053 -1.012859,-0.279053 -0.578777,0 -0.961184,0.237712 -0.372071,0.227376 -0.558106,0.630453 -0.1757,0.392742 -0.1757,0.888836 0,0.372071 0.1757,0.671795 0.186035,0.289388 0.50643,0.5271 0.320394,0.227377 0.754477,0.444418 0.444418,0.217042 0.971518,0.423748 1.023195,0.403077 1.808678,0.888836 0.785483,0.475424 1.312584,1.074871 0.5271,0.589113 0.795818,1.333254 0.268718,0.744142 0.268718,1.69499 0,0.940513 -0.33073,1.71566 -0.320394,0.764813 -0.940512,1.322919 -0.620118,0.547771 -1.498619,0.847495 -0.868166,0.299724 -1.943037,0.299724 -1.043866,0 -1.974043,-0.289389 -0.930177,-0.299724 -1.643313,-0.899171 -0.702801,-0.609783 -1.105877,-1.53996 -0.403077,-0.940513 -0.403077,-2.22209 h 3.028243 q 0,0.68213 0.134359,1.167889 0.134359,0.475424 0.413413,0.764812 0.279053,0.279053 0.68213,0.423748 0.413412,0.134359 0.940512,0.134359 0.599448,0 0.950848,-0.227377 0.361736,-0.227377 0.516765,-0.609783 0.15503,-0.382406 0.15503,-0.868165 z"
         style="text-align:center;text-anchor:middle"
         id="path3861" />
      <path
         d="m 33.659973,38.391475 h 3.007574 q -0.06201,1.694989 -0.68213,2.862879 -0.620119,1.157554 -1.767337,1.757001 -1.136884,0.599448 -2.749191,0.599448 -1.250571,0 -2.22209,-0.413412 -0.971518,-0.423748 -1.653648,-1.240237 -0.68213,-0.816489 -1.033531,-2.015384 -0.341065,-1.20923 -0.341065,-2.780196 v -2.55282 q 0,-1.570966 0.361736,-2.780197 0.372071,-1.20923 1.054201,-2.025719 0.692465,-0.826824 1.663984,-1.240236 0.981853,-0.423748 2.211754,-0.423748 1.643314,0 2.749191,0.620118 1.105877,0.620119 1.705325,1.808678 0.609783,1.178225 0.733807,2.88355 h -3.028244 q -0.02067,-1.074872 -0.237712,-1.684654 -0.206706,-0.620119 -0.66146,-0.868166 -0.454753,-0.258382 -1.260907,-0.258382 -0.599447,0 -1.03353,0.217041 -0.434083,0.206706 -0.713136,0.671795 -0.279053,0.465088 -0.413412,1.219565 -0.124024,0.754477 -0.124024,1.839684 v 2.573491 q 0,1.064536 0.113689,1.819013 0.113688,0.744142 0.361735,1.219566 0.248048,0.475424 0.671795,0.692465 0.434083,0.217041 1.095542,0.217041 0.764813,0 1.229901,-0.227376 0.475424,-0.227377 0.702801,-0.816489 0.227377,-0.589112 0.258382,-1.674319 z"
         style="text-align:center;text-anchor:middle"
         id="path3863" />
    </g>
  </g>
</svg>
