<?xml version="1.0" encoding="UTF-8" standalone="no"?>
<!-- Created with Inkscape (http://www.inkscape.org/) -->

<svg
   width="200"
   height="200"
   viewBox="0 0 52.916665 52.916668"
   version="1.1"
   id="svg5"
   inkscape:version="1.1.1 (3bf5ae0d25, 2021-09-20)"
   sodipodi:docname="Metra NCS.svg"
   xmlns:inkscape="http://www.inkscape.org/namespaces/inkscape"
   xmlns:sodipodi="http://sodipodi.sourceforge.net/DTD/sodipodi-0.dtd"
   xmlns="http://www.w3.org/2000/svg"
   xmlns:svg="http://www.w3.org/2000/svg">
  <sodipodi:namedview
     id="namedview7"
     pagecolor="#505050"
     bordercolor="#eeeeee"
     borderopacity="1"
     inkscape:pageshadow="0"
     inkscape:pageopacity="0"
     inkscape:pagecheckerboard="0"
     inkscape:document-units="mm"
     showgrid="false"
     inkscape:zoom="1"
     inkscape:cx="68.5"
     inkscape:cy="89.5"
     inkscape:window-width="1366"
     inkscape:window-height="697"
     inkscape:window-x="-8"
     inkscape:window-y="-8"
     inkscape:window-maximized="1"
     inkscape:current-layer="layer1"
     inkscape:object-paths="true"
     inkscape:snap-intersection-paths="true"
     inkscape:snap-smooth-nodes="true"
     inkscape:snap-midpoints="true"
     units="px" />
  <defs
     id="defs2" />
  <g
     inkscape:label="Layer 1"
     inkscape:groupmode="layer"
     id="layer1">
    <circle
       style="fill:#9063cd;fill-opacity:1;stroke:none;stroke-width:4;stroke-linecap:round;stroke-linejoin:round;stroke-miterlimit:4;stroke-dasharray:none;stroke-dashoffset:4.53543;paint-order:stroke fill markers;stop-color:#000000"
       id="path1129"
       cx="26.458334"
       cy="26.458334"
       r="26.458334" />
    <g
       aria-label="NCS"
       id="text2210"
       style="font-weight:bold;font-size:21.1667px;line-height:1.25;font-family:'Roboto Condensed';-inkscape-font-specification:'Roboto Condensed,  Bold';letter-spacing:-0.529167px;stroke-width:0.264583">
      <path
         d="m 20.305726,18.939401 v 15.048201 h -2.92489 l -4.723234,-9.415461 v 9.415461 H 9.7843879 V 18.939401 h 2.8835491 l 4.764575,9.518814 v -9.518814 z"
         style="fill:#ffffff"
         id="path1310" />
      <path
         d="m 29.388391,28.97498 h 3.007573 q -0.06201,1.69499 -0.68213,2.862879 -0.620118,1.157554 -1.767336,1.757002 -1.136884,0.599447 -2.749191,0.599447 -1.250572,0 -2.22209,-0.413412 -0.971519,-0.423747 -1.653649,-1.240236 -0.68213,-0.816489 -1.03353,-2.015384 -0.341065,-1.209231 -0.341065,-2.780197 v -2.55282 q 0,-1.570966 0.361736,-2.780196 0.372071,-1.20923 1.054201,-2.025719 0.692465,-0.826825 1.663983,-1.240237 0.981854,-0.423747 2.211755,-0.423747 1.643313,0 2.749191,0.620118 1.105877,0.620118 1.705325,1.808678 0.609783,1.178225 0.733806,2.88355 h -3.028244 q -0.02067,-1.074872 -0.237711,-1.684655 -0.206707,-0.620118 -0.66146,-0.868165 -0.454753,-0.258383 -1.260907,-0.258383 -0.599447,0 -1.03353,0.217041 -0.434083,0.206707 -0.713136,0.671795 -0.279053,0.465089 -0.413412,1.219566 -0.124024,0.754477 -0.124024,1.839684 v 2.57349 q 0,1.064536 0.113689,1.819014 0.113688,0.744141 0.361735,1.219565 0.248047,0.475424 0.671795,0.692466 0.434083,0.217041 1.095542,0.217041 0.764812,0 1.229901,-0.227377 0.475424,-0.227376 0.702801,-0.816489 0.227376,-0.589112 0.258382,-1.674319 z"
         style="fill:#ffffff"
         id="path1312" />
      <path
         d="m 40.114369,30.029181 q 0,-0.403077 -0.07235,-0.733806 -0.07235,-0.33073 -0.310059,-0.609783 -0.227377,-0.279053 -0.671795,-0.558107 -0.434083,-0.279053 -1.136883,-0.578776 -0.83716,-0.351401 -1.622643,-0.744142 -0.785483,-0.403077 -1.415937,-0.930178 -0.630453,-0.5271 -1.002524,-1.240236 -0.361736,-0.723471 -0.361736,-1.69499 0,-0.950847 0.341065,-1.725995 0.351401,-0.775148 0.99219,-1.322919 0.640788,-0.558106 1.498618,-0.85783 0.868166,-0.299724 1.932702,-0.299724 1.446943,0 2.501143,0.599448 1.064537,0.599447 1.643314,1.643313 0.589112,1.043865 0.589112,2.39779 H 40.00068 q 0,-0.640789 -0.186035,-1.126548 -0.1757,-0.496094 -0.568442,-0.775148 -0.392741,-0.279053 -1.012859,-0.279053 -0.578777,0 -0.961184,0.237712 -0.37207,0.227377 -0.558106,0.630454 -0.1757,0.392741 -0.1757,0.888836 0,0.372071 0.1757,0.671794 0.186036,0.289389 0.50643,0.527101 0.320394,0.227377 0.754477,0.444418 0.444418,0.217041 0.971519,0.423747 1.023195,0.403077 1.808678,0.888836 0.785483,0.475424 1.312583,1.074872 0.5271,0.589112 0.795818,1.333254 0.268718,0.744142 0.268718,1.69499 0,0.940512 -0.330729,1.71566 -0.320395,0.764812 -0.940513,1.322919 -0.620118,0.547771 -1.498619,0.847495 -0.868165,0.299723 -1.943037,0.299723 -1.043866,0 -1.974043,-0.289388 -0.930177,-0.299724 -1.643313,-0.899172 -0.702801,-0.609782 -1.105877,-1.53996 -0.403077,-0.940512 -0.403077,-2.22209 h 3.028244 q 0,0.68213 0.134359,1.167889 0.134358,0.475424 0.413412,0.764813 0.279053,0.279053 0.68213,0.423747 0.413412,0.134359 0.940512,0.134359 0.599448,0 0.950848,-0.227376 0.361736,-0.227377 0.516765,-0.609783 0.15503,-0.382407 0.15503,-0.868166 z"
         style="fill:#ffffff"
         id="path1314" />
    </g>
  </g>
</svg>
