<?xml version="1.0" encoding="UTF-8"?>
<svg xmlns="http://www.w3.org/2000/svg" width="131.4" height="89.7" viewBox="0 0 1314 897">
	<g transform="translate(-200,0)">
		<rect fill="#00b098" x="200" width="1314" height="897" />
		<g transform="translate(-540,0)">
			<path data-no="9" fill="#fff" d="M1346,408q0 67-12.5 134t-43 121t-83 87.5t-131.5 33.5q-37 0-70.5-6t-67.5-20l17-105q24 11 52.5 19t62.5 8q43 0 72-18.5t47-47.5t26.5-65t9.5-72l-2-1q-24 32-55 47.5t-73 15.5q-93 0-142-54.5t-49-145.5q0-53 13-96.5t40-74t68.5-47.5t97.5-17q68 0 111.5 26t68 68.5t34 97t9.5 112.5zM1215,317q0-23-5-44t-16.5-37.5t-29-26t-41.5-9.5q-23 0-39.5 10.5t-27.5 27t-16.5 38t-5.5 43.5q0 24 5.5 45.5t16.5 38.5t29 27t42 10q23 0 40-10t27.5-27t15.5-39.5t5-46.5z"/>
		</g>
		<path data-no="6" fill="#fff" d="M1350,548q0 52-14.5 95t-43 74.5t-71.5 49t-100 17.5q-65 0-107.5-23.5t-67-65t-34.5-97.5t-10-121q0-66 13-132t44.5-119t84.5-86.5t133-33.5q37 0 70.5 5t66.5 17l-15 107q-27-13-55-20t-61-7q-43 0-72 18t-47 47.5t-26.5 66t-9.5 72.5l1 3q24-36 55.5-52t73.5-16q94 0 143 53.5t49 147.5zM1216,568q0-24-5-46t-15.5-39.5t-27.5-27.5t-41-10t-41 10t-27.5 26.5t-15.5 36.5t-5 41q0 27 5 50t16 40t28.5 27t42.5 10q23 0 39-10.5t26.5-27t15.5-37.5t5-43z"/>
	</g>
</svg>