<?xml version="1.0" encoding="UTF-8"?>
<svg xmlns="http://www.w3.org/2000/svg" width="131.4" height="89.7" viewBox="0 0 1314 897">
	<g transform="translate(-200,0)">
		<rect fill="#ff7322" x="200" width="1314" height="897" />
		<g transform="translate(-540,0)">
			<path data-no="9" fill="#fff" d="M1346,408q0 67-12.5 134t-43 121t-83 87.5t-131.5 33.5q-37 0-70.5-6t-67.5-20l17-105q24 11 52.5 19t62.5 8q43 0 72-18.5t47-47.5t26.5-65t9.5-72l-2-1q-24 32-55 47.5t-73 15.5q-93 0-142-54.5t-49-145.5q0-53 13-96.5t40-74t68.5-47.5t97.5-17q68 0 111.5 26t68 68.5t34 97t9.5 112.5zM1215,317q0-23-5-44t-16.5-37.5t-29-26t-41.5-9.5q-23 0-39.5 10.5t-27.5 27t-16.5 38t-5.5 43.5q0 24 5.5 45.5t16.5 38.5t29 27t42 10q23 0 40-10t27.5-27t15.5-39.5t5-46.5z"/>
		</g>
		<path data-no="3" fill="#fff" d="M1302,586q0 59-24 97t-61 59.5t-81 30t-84 8.5q-44 0-89.5-5t-81.5-15l7-113q34 14 70 22.5t76 8.5q21 0 45-5t44.5-16.5t34.5-29t14-43.5q0-56-41-79.5t-105-23.5h-65v-104h62q66 0 105.5-21.5t39.5-65.5q0-24-9-40.5t-25-26.5t-36.5-14t-43.5-4q-37 0-74.5 8t-71.5 26l-9-103q40-16 86.5-24.5t98.5-8.5q30 0 67.5 6.5t70.5 24.5t55.5 50.5t22.5 84.5q0 34-10 59.5t-26.5 44t-38.5 32t-47 23.5v2q31 3 54.5 17t39 35t23 47.5t7.5 55.5z"/>
	</g>
</svg>