<?xml version="1.0" encoding="UTF-8"?>
<svg xmlns="http://www.w3.org/2000/svg" width="131.4" height="89.7" viewBox="0 0 1314 897">
	<g transform="translate(-200,0)">
		<rect fill="#89969e" x="200" width="1314" height="897" />
		<g transform="translate(-540,0)">
			<path data-no="9" fill="#fff" d="M1346,408q0 67-12.5 134t-43 121t-83 87.5t-131.5 33.5q-37 0-70.5-6t-67.5-20l17-105q24 11 52.5 19t62.5 8q43 0 72-18.5t47-47.5t26.5-65t9.5-72l-2-1q-24 32-55 47.5t-73 15.5q-93 0-142-54.5t-49-145.5q0-53 13-96.5t40-74t68.5-47.5t97.5-17q68 0 111.5 26t68 68.5t34 97t9.5 112.5zM1215,317q0-23-5-44t-16.5-37.5t-29-26t-41.5-9.5q-23 0-39.5 10.5t-27.5 27t-16.5 38t-5.5 43.5q0 24 5.5 45.5t16.5 38.5t29 27t42 10q23 0 40-10t27.5-27t15.5-39.5t5-46.5z"/>
		</g>
		<path data-no="4" fill="#fff" d="M1373,637h-86v134h-124v-134h-284v-108l247-414h161v423h86v99zM1163,538v-288h-4l-163 288h167z"/>
	</g>
</svg>