<?xml version="1.0" encoding="utf-8"?>
<!-- Generator: Adobe Illustrator 29.3.1, SVG Export Plug-In . SVG Version: 9.03 Build 55982)  -->
<svg version="1.1" id="Layer_1" xmlns="http://www.w3.org/2000/svg" xmlns:xlink="http://www.w3.org/1999/xlink" x="0px" y="0px"
	 viewBox="0 0 11.7 11.7" style="enable-background:new 0 0 11.7 11.7;" xml:space="preserve">
<style type="text/css">
	.st0{fill:#50B848;}
	.st1{fill:#FFFFFF;}
</style>
<g id="Green_Line_Bullet_00000171714043372785000610000015976746338604745393_">
	<g id="Layer_1-2_00000149356530106612186350000018186846549924052642_">
		<g id="Green_Line_Bullet_00000057856428421240611920000011640017482366424507_">
			<g id="Bullets_00000114036064230971680790000000893213544960035772_">
				<g>
					<path class="st0" d="M0.62,0h10.47c0.34,0,0.62,0.28,0.62,0.62v10.47c0,0.34-0.28,0.62-0.62,0.62H0.62
						C0.28,11.7,0,11.43,0,11.09V0.62C0,0.28,0.28,0,0.62,0z"/>
					<path class="st1" d="M7.84,4.08C7.4,3.87,6.82,3.77,6.35,3.77c-1.35,0-2.1,0.91-2.1,2.1s0.73,2.06,1.97,2.06
						c0.31,0,0.56-0.03,0.76-0.08V6.34H5.75V5.43h2.34v3.12c-0.61,0.17-1.25,0.3-1.87,0.3c-1.87,0-3.17-0.94-3.17-2.89
						s1.21-3.09,3.17-3.09c0.67,0,1.2,0.09,1.7,0.24L7.84,4.08L7.84,4.08L7.84,4.08z"/>
				</g>
			</g>
		</g>
	</g>
</g>
</svg>
