<?xml version="1.0" encoding="UTF-8" standalone="no"?>
<!-- Created with Inkscape (http://www.inkscape.org/) -->

<svg
   width="500"
   height="500"
   viewBox="0 0 500 500"
   version="1.1"
   id="svg1"
   sodipodi:docname="NCTD_COASTER.svg"
   inkscape:version="1.3 (0e150ed, 2023-07-21)"
   xmlns:inkscape="http://www.inkscape.org/namespaces/inkscape"
   xmlns:sodipodi="http://sodipodi.sourceforge.net/DTD/sodipodi-0.dtd"
   xmlns="http://www.w3.org/2000/svg"
   xmlns:svg="http://www.w3.org/2000/svg">
  <sodipodi:namedview
     id="namedview1"
     pagecolor="#505050"
     bordercolor="#ffffff"
     borderopacity="1"
     inkscape:showpageshadow="0"
     inkscape:pageopacity="0"
     inkscape:pagecheckerboard="1"
     inkscape:deskcolor="#d1d1d1"
     inkscape:zoom="0.236"
     inkscape:cx="497.88136"
     inkscape:cy="500"
     inkscape:window-width="1680"
     inkscape:window-height="916"
     inkscape:window-x="0"
     inkscape:window-y="25"
     inkscape:window-maximized="1"
     inkscape:current-layer="svg1" />
  <defs
     id="defs1">
    <clipPath
       clipPathUnits="userSpaceOnUse"
       id="clipPath54">
      <path
         d="m 22.127,430.665 h 86.846 V 516.84 H 22.127 Z"
         transform="translate(-63.138002,-496.33451)"
         id="path54" />
    </clipPath>
    <clipPath
       clipPathUnits="userSpaceOnUse"
       id="clipPath56">
      <path
         d="m 22.127,430.665 h 86.846 V 516.84 H 22.127 Z"
         transform="translate(-48.099201,-495.83201)"
         id="path56" />
    </clipPath>
    <clipPath
       clipPathUnits="userSpaceOnUse"
       id="clipPath58">
      <path
         d="m 22.127,430.665 h 86.846 V 516.84 H 22.127 Z"
         transform="translate(-48.099201,-495.83201)"
         id="path58" />
    </clipPath>
    <clipPath
       clipPathUnits="userSpaceOnUse"
       id="clipPath60">
      <path
         d="m 22.127,430.665 h 86.846 V 516.84 H 22.127 Z"
         transform="translate(-48.358101,-495.76591)"
         id="path60" />
    </clipPath>
    <clipPath
       clipPathUnits="userSpaceOnUse"
       id="clipPath62">
      <path
         d="m 22.127,430.665 h 86.846 V 516.84 H 22.127 Z"
         transform="translate(-47.739201,-485.59701)"
         id="path62" />
    </clipPath>
    <clipPath
       clipPathUnits="userSpaceOnUse"
       id="clipPath64">
      <path
         d="m 22.127,430.665 h 86.846 V 516.84 H 22.127 Z"
         transform="translate(-37.526901,-485.59701)"
         id="path64" />
    </clipPath>
    <clipPath
       clipPathUnits="userSpaceOnUse"
       id="clipPath66">
      <path
         d="m 22.127,430.665 h 86.846 V 516.84 H 22.127 Z"
         transform="translate(-37.161101,-484.28571)"
         id="path66" />
    </clipPath>
    <clipPath
       clipPathUnits="userSpaceOnUse"
       id="clipPath68">
      <path
         d="m 22.127,430.665 h 86.846 V 516.84 H 22.127 Z"
         transform="translate(-48.669301,-482.98831)"
         id="path68" />
    </clipPath>
    <clipPath
       clipPathUnits="userSpaceOnUse"
       id="clipPath70">
      <path
         d="m 22.127,430.665 h 86.846 V 516.84 H 22.127 Z"
         transform="translate(-52.169902,-494.20921)"
         id="path70" />
    </clipPath>
    <clipPath
       clipPathUnits="userSpaceOnUse"
       id="clipPath72">
      <path
         d="m 22.127,430.665 h 86.846 V 516.84 H 22.127 Z"
         transform="translate(-43.862801,-503.85341)"
         id="path72" />
    </clipPath>
    <clipPath
       clipPathUnits="userSpaceOnUse"
       id="clipPath74">
      <path
         d="m 22.127,430.665 h 86.846 V 516.84 H 22.127 Z"
         transform="translate(-34.363301,-501.03701)"
         id="path74" />
    </clipPath>
    <clipPath
       clipPathUnits="userSpaceOnUse"
       id="clipPath76">
      <path
         d="m 22.127,430.665 h 86.846 V 516.84 H 22.127 Z"
         transform="translate(-47.481401,-496.07501)"
         id="path76" />
    </clipPath>
    <clipPath
       clipPathUnits="userSpaceOnUse"
       id="clipPath78">
      <path
         d="m 22.127,430.665 h 86.846 V 516.84 H 22.127 Z"
         transform="translate(-50.303101,-499.18601)"
         id="path78" />
    </clipPath>
    <clipPath
       clipPathUnits="userSpaceOnUse"
       id="clipPath80">
      <path
         d="m 22.127,430.665 h 86.846 V 516.84 H 22.127 Z"
         transform="translate(-48.912601,-497.40521)"
         id="path80" />
    </clipPath>
    <clipPath
       clipPathUnits="userSpaceOnUse"
       id="clipPath82">
      <path
         d="m 22.127,430.665 h 86.846 V 516.84 H 22.127 Z"
         transform="translate(-47.711101,-496.01621)"
         id="path82" />
    </clipPath>
    <clipPath
       clipPathUnits="userSpaceOnUse"
       id="clipPath84">
      <path
         d="m 22.127,430.665 h 86.846 V 516.84 H 22.127 Z"
         transform="translate(-47.709301,-496.01621)"
         id="path84" />
    </clipPath>
    <clipPath
       clipPathUnits="userSpaceOnUse"
       id="clipPath86">
      <path
         d="m 22.127,430.665 h 86.846 V 516.84 H 22.127 Z"
         transform="translate(-49.659601,-498.15231)"
         id="path86" />
    </clipPath>
    <clipPath
       clipPathUnits="userSpaceOnUse"
       id="clipPath88">
      <path
         d="m 22.127,430.665 h 86.846 V 516.84 H 22.127 Z"
         transform="translate(-51.381901,-500.18281)"
         id="path88" />
    </clipPath>
  </defs>
  <g
     id="layer1"
     transform="matrix(0.5,0,0,0.49999999,-1.3609999e-6,-4.9925001e-6)"
     style="stroke-width:1.99999">
    <path
       id="path53"
       d="m 0,0 c 0,-11.325 -9.181,-20.505 -20.505,-20.505 -11.325,0 -20.506,9.18 -20.506,20.505 0,11.325 9.181,20.505 20.506,20.505 C -9.181,20.505 0,11.325 0,0"
       style="fill:#0097a0;fill-opacity:1;fill-rule:nonzero;stroke:none;stroke-width:0.028935"
       transform="matrix(24.383702,0,0,-24.384297,1000,500)"
       clip-path="url(#clipPath54)" />
    <path
       id="path55"
       d="M 0,0 V 0 C 0.001,0 0.001,0 0.002,0 Z"
       style="fill:#0054a6;fill-opacity:1;fill-rule:nonzero;stroke:none;stroke-width:0.028935"
       transform="matrix(24.383702,0,0,-24.384297,633.29832,512.25305)"
       clip-path="url(#clipPath56)" />
    <path
       id="path57"
       d="M 0,0 V 0 C 0.001,0 0.001,0 0.002,0 Z"
       style="fill:#0054a6;fill-opacity:1;fill-rule:nonzero;stroke:none;stroke-width:0.028935"
       transform="matrix(24.383702,0,0,-24.384297,633.29832,512.25305)"
       clip-path="url(#clipPath58)" />
    <path
       id="path59"
       d="M 0,0 V 0 C 0.001,0 0.001,0 0.002,0 Z"
       style="fill:#6c56a4;fill-opacity:1;fill-rule:nonzero;stroke:none;stroke-width:0.028935"
       transform="matrix(24.383702,0,0,-24.384297,639.6113,513.86495)"
       clip-path="url(#clipPath60)" />
    <path
       id="path61"
       d="M 0,0 2.837,-3.92 H 4.86 L 1.198,0 Z"
       style="fill:#ffffff;fill-opacity:1;fill-rule:nonzero;stroke:none;stroke-width:0.028935"
       transform="matrix(24.383702,0,0,-24.384297,624.52024,761.8263)"
       clip-path="url(#clipPath62)" />
    <path
       id="path63"
       d="m 0,0 h -1.225 l -3.636,-3.92 h 2.024 z"
       style="fill:#ffffff;fill-opacity:1;fill-rule:nonzero;stroke:none;stroke-width:0.028935"
       transform="matrix(24.383702,0,0,-24.384297,375.50646,761.8263)"
       clip-path="url(#clipPath64)" />
    <path
       id="path65"
       d="m 0,0 h 10.916 l -0.48,0.705 H 0.479 Z"
       style="fill:#ffffff;fill-opacity:1;fill-rule:nonzero;stroke:none;stroke-width:0.028935"
       transform="matrix(24.383702,0,0,-24.384297,366.58697,793.80155)"
       clip-path="url(#clipPath66)" />
    <path
       id="path67"
       d="m 0,0 h -12.129 l -0.479,-0.705 H 0.479 Z"
       style="fill:#ffffff;fill-opacity:1;fill-rule:nonzero;stroke:none;stroke-width:0.028935"
       transform="matrix(24.383702,0,0,-24.384297,647.19948,825.43749)"
       clip-path="url(#clipPath68)" />
    <path
       id="path69"
       d="M 0,0 C -0.001,0.08 -0.021,0.154 -0.054,0.221 -0.064,0.244 -0.083,0.26 -0.097,0.281 -0.124,0.322 -0.152,0.363 -0.189,0.396 -0.211,0.415 -0.238,0.427 -0.263,0.442 -0.286,0.457 -0.31,0.469 -0.335,0.48 -0.352,0.487 -0.366,0.499 -0.384,0.505 -0.414,0.516 -0.446,0.518 -0.478,0.523 -0.482,0.524 -0.487,0.524 -0.492,0.524 -0.546,0.532 -0.6,0.544 -0.657,0.536 -1.269,0.451 -5.036,0.038 -5.265,0.019 c -0.3,-0.024 -0.533,-0.26 -0.533,-0.546 v -1.73 c 0,-0.124 -0.051,-0.233 -0.124,-0.325 -0.106,-0.132 -0.265,-0.223 -0.453,-0.223 h -6.323 c -0.188,0 -0.347,0.091 -0.452,0.223 -0.074,0.092 -0.125,0.201 -0.125,0.325 v 1.73 c 0,0.286 -0.232,0.522 -0.533,0.546 -0.688,0.055 -4.279,0.474 -4.58,0.516 -0.062,0.009 -0.121,-0.002 -0.179,-0.012 -0.005,-0.001 -0.009,-0.002 -0.014,-0.002 -0.027,-0.005 -0.055,-0.007 -0.08,-0.016 -0.028,-0.009 -0.051,-0.026 -0.077,-0.039 -0.015,-0.008 -0.03,-0.015 -0.044,-0.023 -0.025,-0.016 -0.052,-0.028 -0.074,-0.047 -0.037,-0.032 -0.065,-0.073 -0.093,-0.114 -0.013,-0.02 -0.032,-0.037 -0.043,-0.059 -0.032,-0.067 -0.053,-0.141 -0.054,-0.221 l -0.084,-4.813 c -0.005,-0.278 0.209,-0.515 0.499,-0.552 l 1.808,-0.235 c 0.141,-0.018 0.264,-0.084 0.353,-0.179 0.089,-0.095 0.143,-0.219 0.146,-0.354 l 0.017,-0.866 c 0.002,-0.096 0.027,-0.186 0.057,-0.274 0.02,-0.057 0.048,-0.108 0.078,-0.159 0.06,-0.103 0.137,-0.191 0.23,-0.266 0.136,-0.11 0.294,-0.196 0.48,-0.224 l 5.835,-0.884 c 0.06,-0.009 0.121,-0.009 0.182,0 l 6.187,0.938 c 0.138,0.02 0.258,0.087 0.344,0.181 0.086,0.094 0.139,0.217 0.142,0.349 l 0.023,1.205 c 0.003,0.135 0.057,0.259 0.146,0.354 0.089,0.095 0.212,0.161 0.353,0.179 l 1.348,0.175 c 0.553,0.072 0.963,0.523 0.956,1.053 z"
       style="fill:#ffffff;fill-opacity:1;fill-rule:nonzero;stroke:none;stroke-width:0.028935"
       transform="matrix(24.383702,0,0,-24.384297,732.55703,551.82405)"
       clip-path="url(#clipPath70)" />
    <path
       id="path71"
       d="m 0,0 c 0.394,0 0.713,-0.319 0.713,-0.713 0,-0.394 -0.319,-0.713 -0.713,-0.713 -0.394,0 -0.713,0.319 -0.713,0.713 C -0.713,-0.319 -0.394,0 0,0 m -2.46,-1.426 c -0.394,0 -0.713,0.319 -0.713,0.713 0,0.394 0.319,0.713 0.713,0.713 0.394,0 0.713,-0.319 0.713,-0.713 0,-0.394 -0.319,-0.713 -0.713,-0.713 m 0.883,6.023 V 0.812 h -6.018 c 0.108,-0.665 0.202,-1.24 0.27,-1.66 0.075,-0.464 0.121,-0.741 0.121,-0.745 0.012,-0.067 0.966,-2.627 0.966,-2.627 0.006,-0.022 0.016,-0.043 0.029,-0.062 0.149,-0.207 0.383,-0.33 0.631,-0.33 h 0.002 c 0.127,0 8.573,0 8.7,0 h 0.002 c 0.248,0 0.482,0.123 0.631,0.33 0.013,0.019 0.023,0.04 0.03,0.062 0,0 0.965,2.595 0.971,2.681 0,0.004 0.001,0.009 0.002,0.014 l 0.109,0.676 0.269,1.661 H -0.874 V 4.597 H 5.75 L 6.183,7.27 C 4.955,7.871 3.437,8.325 1.743,8.572 L 1.742,8.565 C 0.854,8.698 -0.157,8.774 -1.231,8.774 -2.3,8.774 -3.308,8.699 -4.194,8.566 V 8.573 C -5.893,8.325 -7.415,7.87 -8.644,7.265 -8.516,6.474 -8.365,5.549 -8.211,4.597 Z"
       style="fill:#ffffff;fill-opacity:1;fill-rule:nonzero;stroke:none;stroke-width:0.028935"
       transform="matrix(24.383702,0,0,-24.384297,529.99925,316.65697)"
       clip-path="url(#clipPath72)" />
    <path
       id="path73"
       d="m 0,0 c 0.151,0.092 0.329,0.146 0.519,0.146 0.553,0 1.001,-0.448 1.001,-1 0,-0.526 -0.407,-0.957 -0.923,-0.997 -0.026,-0.002 -0.052,-0.004 -0.078,-0.004 -0.331,0 -0.624,0.162 -0.806,0.41 -0.067,0.091 -0.12,0.195 -0.153,0.307 -0.027,0.09 -0.042,0.185 -0.042,0.284 0,0.362 0.194,0.678 0.482,0.854 m 1.988,-2.138 c 0.413,0 0.747,-0.334 0.747,-0.747 0,-0.412 -0.334,-0.747 -0.747,-0.747 -0.412,0 -0.747,0.335 -0.747,0.747 0,0.413 0.335,0.747 0.747,0.747 m 11.13,-2.824 h 0.002 c -10e-4,0 -10e-4,0 -0.002,0 z m 0.228,-0.059 h 0.002 c -0.001,0 -0.001,0 -0.002,0 m 0.002,0 h 10e-4 c 0,0 -10e-4,0 -10e-4,0 m 1.201,2.883 c 0,0 0.001,0 0.001,0 0,0 0,0 0,0 0.413,0 0.747,-0.334 0.747,-0.747 0,-0.412 -0.334,-0.747 -0.747,-0.747 0,0 0,0 0,0 0,0 -0.001,0 -0.001,0 -0.412,0 -0.747,0.335 -0.747,0.747 0,0.413 0.335,0.747 0.747,0.747 m 1.469,2.284 h 10e-4 v 0 c 0.191,0 0.368,-0.054 0.519,-0.146 0.289,-0.176 0.482,-0.492 0.482,-0.854 0,-0.099 -0.015,-0.194 -0.042,-0.284 -0.033,-0.112 -0.085,-0.216 -0.153,-0.307 -0.182,-0.248 -0.474,-0.41 -0.806,-0.41 h -10e-4 v 0 c -0.026,0 -0.052,0.002 -0.078,0.004 -0.516,0.04 -0.922,0.471 -0.922,0.997 0,0.552 0.447,1 1,1 M -0.751,-5.722 c 0.029,0.002 0.056,0.008 0.084,0.008 0.058,0 0.116,-0.004 0.174,-0.012 0.602,-0.085 3.634,-0.439 4.542,-0.512 0.238,-0.019 0.453,-0.103 0.628,-0.231 0.201,-0.147 0.344,-0.354 0.412,-0.592 0.027,-0.094 0.045,-0.191 0.045,-0.294 v -1.02 -0.685 h 6.27 v 0.685 1.02 c 0,0.103 0.019,0.2 0.046,0.294 0.067,0.238 0.211,0.445 0.411,0.592 0.175,0.128 0.39,0.212 0.628,0.231 0.909,0.073 3.941,0.427 4.542,0.512 0.059,0.008 0.117,0.012 0.174,0.012 0.029,0 0.056,-0.006 0.084,-0.008 0.16,-0.012 0.311,-0.053 0.448,-0.12 0.023,0.003 0.041,0.005 0.051,0.007 v 4.759 L 17.674,7.372 17.673,7.486 C 17.671,7.551 17.659,7.623 17.639,7.703 17.612,7.798 17.582,7.891 17.547,7.982 17.546,7.986 17.544,7.99 17.543,7.994 v 0 C 17.28,8.692 16.813,9.303 16.206,9.766 15.604,6.062 14.806,1.155 14.803,1.137 14.792,1.079 14.783,1.024 13.817,-1.569 13.793,-1.641 13.76,-1.708 13.717,-1.767 13.463,-2.12 13.053,-2.33 12.621,-2.33 H 8.169 3.918 c -0.433,0 -0.843,0.21 -1.096,0.563 -0.043,0.059 -0.077,0.126 -0.1,0.198 C 1.755,1.024 1.746,1.079 1.736,1.137 1.733,1.155 0.935,6.062 0.333,9.766 -0.274,9.303 -0.742,8.692 -1.004,7.994 v 0 C -1.006,7.99 -1.007,7.986 -1.009,7.982 -1.043,7.891 -1.074,7.798 -1.101,7.703 -1.121,7.623 -1.132,7.551 -1.134,7.486 L -1.136,7.372 -1.249,-1.076 v -4.759 c 0.009,-0.002 0.028,-0.004 0.05,-0.007 0.137,0.067 0.288,0.108 0.448,0.12"
       style="fill:#ffffff;fill-opacity:1;fill-rule:nonzero;stroke:none;stroke-width:0.028935"
       transform="matrix(24.383702,0,0,-24.384297,298.36623,385.33267)"
       clip-path="url(#clipPath74)" />
    <path
       id="path75"
       d="M 0,0 V 0 C 0,0 0.001,0 0.001,0 Z"
       style="fill:#ffffff;fill-opacity:1;fill-rule:nonzero;stroke:none;stroke-width:0.028935"
       transform="matrix(24.383702,0,0,-24.384297,618.23405,506.32732)"
       clip-path="url(#clipPath76)" />
    <path
       id="path77"
       d="m 0,0 c 0.026,-0.002 0.052,-0.004 0.078,-0.004 h 0.001 c -0.026,0 -0.052,0.002 -0.078,0.004 -0.516,0.04 -0.922,0.47 -0.922,0.997 0,0.552 0.448,1 1,1 H 0.078 c -0.552,0 -1,-0.448 -1,-1 C -0.922,0.47 -0.516,0.04 0,0"
       style="fill:#ffffff;fill-opacity:1;fill-rule:nonzero;stroke:none;stroke-width:0.028935"
       transform="matrix(24.383702,0,0,-24.384297,687.0376,430.46789)"
       clip-path="url(#clipPath78)" />
    <path
       id="path79"
       d="m 0,0 c 0,0 0,0 0,0 -0.412,0 -0.746,0.335 -0.746,0.747 0,0.413 0.334,0.747 0.746,0.747 0,0 0,0 0,0 -0.413,0 -0.747,-0.334 -0.747,-0.747 C -0.747,0.334 -0.413,0 0,0"
       style="fill:#ffffff;fill-opacity:1;fill-rule:nonzero;stroke:none;stroke-width:0.028935"
       transform="matrix(24.383702,0,0,-24.384297,653.132,473.89168)"
       clip-path="url(#clipPath80)" />
    <path
       id="path81"
       d="M 0,0 V 0 C 0,0 0.001,0 0.001,0 Z"
       style="fill:#ffffff;fill-opacity:1;fill-rule:nonzero;stroke:none;stroke-width:0.028935"
       transform="matrix(24.383702,0,0,-24.384297,623.83505,507.76158)"
       clip-path="url(#clipPath82)" />
    <path
       id="path83"
       d="M 0,0 V 0 C 0.001,0 0.001,0 0.002,0 Z"
       style="fill:#ffffff;fill-opacity:1;fill-rule:nonzero;stroke:none;stroke-width:0.028935"
       transform="matrix(24.383702,0,0,-24.384297,623.79118,507.76158)"
       clip-path="url(#clipPath84)" />
    <path
       id="path85"
       d="m 0,0 c 0,-0.413 -0.334,-0.747 -0.747,-0.747 0.001,0 0.001,0 0.001,0 0.412,0 0.747,0.334 0.747,0.747 0,0.413 -0.335,0.747 -0.747,0.747 0,0 0,0 -0.001,0 C -0.334,0.747 0,0.412 0,0"
       style="fill:#ed1d24;fill-opacity:1;fill-rule:nonzero;stroke:none;stroke-width:0.028935"
       transform="matrix(24.383702,0,0,-24.384297,671.34664,455.67419)"
       clip-path="url(#clipPath86)" />
    <path
       id="path87"
       d="M 0,0 C 0,-0.099 -0.015,-0.194 -0.042,-0.284 -0.075,-0.396 -0.127,-0.499 -0.195,-0.591 -0.377,-0.839 -0.669,-1.001 -1,-1.001 h 0.001 c 0.331,0 0.624,0.162 0.806,0.41 0.067,0.092 0.12,0.195 0.153,0.307 0.026,0.09 0.041,0.185 0.041,0.284 0,0.362 -0.193,0.679 -0.481,0.854 C -0.632,0.946 -0.809,1 -0.999,1 H -1 C -0.81,1 -0.633,0.946 -0.481,0.854 -0.193,0.679 0,0.362 0,0"
       style="fill:#ed1d24;fill-opacity:1;fill-rule:nonzero;stroke:none;stroke-width:0.028935"
       transform="matrix(24.383702,0,0,-24.384297,713.34268,406.16154)"
       clip-path="url(#clipPath88)" />
  </g>
</svg>
