<?xml version="1.0" encoding="UTF-8" standalone="no"?>
<!DOCTYPE svg PUBLIC "-//W3C//DTD SVG 1.1//EN" "http://www.w3.org/Graphics/SVG/1.1/DTD/svg11.dtd">
<svg width="100%" height="100%" viewBox="0 0 149 149" version="1.1" xmlns="http://www.w3.org/2000/svg" xmlns:xlink="http://www.w3.org/1999/xlink" xml:space="preserve" xmlns:serif="http://www.serif.com/" style="fill-rule:evenodd;clip-rule:evenodd;stroke-linejoin:round;stroke-miterlimit:2;">
    <g transform="matrix(0,-4.16667,-4.16667,0,74.3542,0)">
        <path d="M-17.845,-17.845C-27.701,-17.845 -35.69,-9.855 -35.69,-0C-35.69,9.856 -27.701,17.845 -17.845,17.845C-7.99,17.845 -0,9.856 -0,-0C-0,-9.855 -7.99,-17.845 -17.845,-17.845" style="fill:rgb(83,193,234);fill-rule:nonzero;"/>
    </g>
    <g transform="matrix(4.16667,0,0,4.16667,74.355,90.0325)">
        <path d="M0,-7.525L-1.833,-1.555L1.832,-1.555L0,-7.525ZM3.996,5.495L3.33,3.33L-3.331,3.33L-3.997,5.495L-10.354,5.495L-3.526,-13.02L3.525,-13.02L10.353,5.495L3.996,5.495Z" style="fill:white;fill-rule:nonzero;"/>
    </g>
</svg>
