<?xml version="1.0" encoding="UTF-8" standalone="no"?>
<!DOCTYPE svg PUBLIC "-//W3C//DTD SVG 1.1//EN" "http://www.w3.org/Graphics/SVG/1.1/DTD/svg11.dtd">
<svg width="100%" height="100%" viewBox="0 0 149 149" version="1.1" xmlns="http://www.w3.org/2000/svg" xmlns:xlink="http://www.w3.org/1999/xlink" xml:space="preserve" xmlns:serif="http://www.serif.com/" style="fill-rule:evenodd;clip-rule:evenodd;stroke-linejoin:round;stroke-miterlimit:2;">
    <g transform="matrix(0,-4.16667,-4.16667,0,74.3542,0)">
        <path d="M-17.845,-17.845C-27.7,-17.845 -35.69,-9.855 -35.69,-0C-35.69,9.856 -27.7,17.845 -17.845,17.845C-7.989,17.845 -0,9.856 -0,-0C-0,-9.855 -7.989,-17.845 -17.845,-17.845" style="fill:rgb(75,158,69);fill-rule:nonzero;"/>
    </g>
    <g transform="matrix(4.16667,0,0,4.16667,80.8325,55.2079)">
        <path d="M0,9.19C0.407,9.19 0.727,9.084 0.957,8.87C1.189,8.658 1.304,8.375 1.304,8.022C1.304,7.689 1.189,7.409 0.957,7.176C0.727,6.945 0.407,6.83 0,6.83L-4.497,6.83L-4.497,9.19L0,9.19ZM-0.167,2.167C0.128,2.167 0.389,2.065 0.611,1.861C0.833,1.658 0.944,1.389 0.944,1.056C0.944,0.742 0.833,0.486 0.611,0.293C0.389,0.099 0.128,0 -0.167,0L-4.497,0L-4.497,2.167L-0.167,2.167ZM-10.104,13.853L-10.104,-4.663L1.137,-4.663C2.1,-4.663 2.929,-4.519 3.623,-4.233C4.316,-3.946 4.886,-3.576 5.33,-3.121C5.774,-2.668 6.102,-2.159 6.316,-1.596C6.527,-1.03 6.634,-0.48 6.634,0.056C6.634,1.222 6.334,2.171 5.733,2.9C5.131,3.633 4.376,4.1 3.47,4.303C3.97,4.378 4.432,4.545 4.857,4.802C5.283,5.062 5.658,5.391 5.982,5.787C6.305,6.186 6.555,6.646 6.732,7.163C6.906,7.681 6.995,8.235 6.995,8.827C6.995,9.476 6.884,10.1 6.662,10.702C6.44,11.304 6.102,11.841 5.649,12.312C5.195,12.784 4.626,13.159 3.941,13.436C3.257,13.713 2.452,13.853 1.527,13.853L-10.104,13.853Z" style="fill:white;fill-rule:nonzero;"/>
    </g>
</svg>
