<?xml version="1.0" encoding="UTF-8" standalone="no"?>
<!DOCTYPE svg PUBLIC "-//W3C//DTD SVG 1.1//EN" "http://www.w3.org/Graphics/SVG/1.1/DTD/svg11.dtd">
<svg width="100%" height="100%" viewBox="0 0 149 149" version="1.1" xmlns="http://www.w3.org/2000/svg" xmlns:xlink="http://www.w3.org/1999/xlink" xml:space="preserve" xmlns:serif="http://www.serif.com/" style="fill-rule:evenodd;clip-rule:evenodd;stroke-linejoin:round;stroke-miterlimit:2;">
    <g transform="matrix(0,-4.16667,-4.16667,0,74.3542,0)">
        <path d="M-17.845,-17.845C-27.7,-17.845 -35.69,-9.855 -35.69,-0C-35.69,9.856 -27.7,17.845 -17.845,17.845C-7.99,17.845 -0,9.856 -0,-0C-0,-9.855 -7.99,-17.845 -17.845,-17.845" style="fill:rgb(0,93,167);fill-rule:nonzero;"/>
    </g>
    <g transform="matrix(4.16667,0,0,4.16667,88.1779,35.7817)">
        <path d="M0,18.515L0,11.436L-6.634,11.436L-6.634,18.515L-12.243,18.515L-12.243,0L-6.634,0L-6.634,6.551L0,6.551L0,0L5.607,0L5.607,18.515L0,18.515Z" style="fill:white;fill-rule:nonzero;"/>
    </g>
</svg>
