<svg xmlns="http://www.w3.org/2000/svg" viewBox="0 0 50 50">
  <path fill="#155ba0" d="M3 50a3 3 0 0 1-3-3V3a3 3 0 0 1 3-3h44a3 3 0 0 1 3 3v44a3 3 0 0 1-3 3Z"/>
  <g fill="#ffffff">
    <path d="M14.3 13q4.4 0 6.7 1.2 2.2 1.2 2.2 4.4 0 1.9-.9 3.2-.8 1.3-2.5 1.6v.1q1.1.2 2 .8 1 .6 1.5 1.6t.5 2.8q0 3-2.2 4.7-2.2 1.7-6 1.7H7.5V13Zm.5 8.8q2 0 2.8-.7.8-.7.8-1.9 0-1.3-1-1.8-.8-.6-2.9-.6H12v5ZM12 25.5v5.8h3.1q2.1 0 3-.9.8-.8.8-2.2 0-1.2-.9-2-.8-.7-3-.7ZM34.7 13q4.6 0 6.7 1.6 2.2 1.7 2.2 5 0 1.5-.6 2.7-.6 1.1-1.5 1.9-1 .8-2 1.3L46 35h-5.2l-5.3-8.5H33v8.5h-4.7V13Zm-.3 3.8H33v6h1.5q2.3 0 3.3-.8 1-.7 1-2.3 0-1.5-1-2.2-1.1-.7-3.4-.7Z"/>
  </g>
</svg>
