<?xml version="1.0" encoding="UTF-8" standalone="no"?>
<!-- Created with Inkscape (http://www.inkscape.org/) -->

<svg
   xmlns:dc="http://purl.org/dc/elements/1.1/"
   xmlns:cc="http://creativecommons.org/ns#"
   xmlns:rdf="http://www.w3.org/1999/02/22-rdf-syntax-ns#"
   xmlns:svg="http://www.w3.org/2000/svg"
   xmlns="http://www.w3.org/2000/svg"
   xmlns:sodipodi="http://sodipodi.sourceforge.net/DTD/sodipodi-0.dtd"
   xmlns:inkscape="http://www.inkscape.org/namespaces/inkscape"
   id="svg2"
   version="1.1"
   inkscape:version="0.48.5 r10040"
   width="55.2425"
   height="55.27"
   xml:space="preserve"
   sodipodi:docname="M-Line Trolley.svg"><metadata
     id="metadata8"><rdf:RDF><cc:Work
         rdf:about=""><dc:format>image/svg+xml</dc:format><dc:type
           rdf:resource="http://purl.org/dc/dcmitype/StillImage" /><dc:title></dc:title></cc:Work></rdf:RDF></metadata><defs
     id="defs6"><clipPath
       clipPathUnits="userSpaceOnUse"
       id="clipPath16"><path
         d="m 261.567,318.305 -228.17,0 0,-314.078 228.17,0 0,314.078 z"
         id="path18"
         inkscape:connector-curvature="0" /></clipPath><clipPath
       clipPathUnits="userSpaceOnUse"
       id="clipPath36"><path
         d="m 261.567,318.305 -228.17,0 0,-314.078 228.17,0 0,314.078 z"
         id="path38"
         inkscape:connector-curvature="0" /></clipPath><clipPath
       clipPathUnits="userSpaceOnUse"
       id="clipPath56"><path
         d="m 261.567,318.305 -228.17,0 0,-314.078 228.17,0 0,314.078 z"
         id="path58"
         inkscape:connector-curvature="0" /></clipPath><clipPath
       clipPathUnits="userSpaceOnUse"
       id="clipPath84"><path
         d="m 261.567,318.305 -228.17,0 0,-314.078 228.17,0 0,314.078 z"
         id="path86"
         inkscape:connector-curvature="0" /></clipPath><clipPath
       clipPathUnits="userSpaceOnUse"
       id="clipPath112"><path
         d="m 261.567,318.305 -228.17,0 0,-314.078 228.17,0 0,314.078 z"
         id="path114"
         inkscape:connector-curvature="0" /></clipPath><clipPath
       clipPathUnits="userSpaceOnUse"
       id="clipPath128"><path
         d="m 261.567,318.305 -228.17,0 0,-314.078 228.17,0 0,314.078 z"
         id="path130"
         inkscape:connector-curvature="0" /></clipPath><clipPath
       clipPathUnits="userSpaceOnUse"
       id="clipPath144"><path
         d="m 261.567,318.305 -228.17,0 0,-314.078 228.17,0 0,314.078 z"
         id="path146"
         inkscape:connector-curvature="0" /></clipPath><clipPath
       clipPathUnits="userSpaceOnUse"
       id="clipPath164"><path
         d="m 261.567,318.305 -228.17,0 0,-314.078 228.17,0 0,314.078 z"
         id="path166"
         inkscape:connector-curvature="0" /></clipPath><clipPath
       clipPathUnits="userSpaceOnUse"
       id="clipPath220"><path
         d="m 261.567,318.305 -228.17,0 0,-314.078 228.17,0 0,314.078 z"
         id="path222"
         inkscape:connector-curvature="0" /></clipPath><clipPath
       clipPathUnits="userSpaceOnUse"
       id="clipPath236"><path
         d="m 261.567,318.305 -228.17,0 0,-314.078 228.17,0 0,314.078 z"
         id="path238"
         inkscape:connector-curvature="0" /></clipPath><clipPath
       clipPathUnits="userSpaceOnUse"
       id="clipPath1096"><path
         d="m 0.059998,532.988 286.337002,0 0,-532.928 -286.337002,0 0,532.928 z"
         id="path1098"
         inkscape:connector-curvature="0" /></clipPath></defs><sodipodi:namedview
     pagecolor="#ffffff"
     bordercolor="#666666"
     borderopacity="1"
     objecttolerance="10"
     gridtolerance="10"
     guidetolerance="10"
     inkscape:pageopacity="0"
     inkscape:pageshadow="2"
     inkscape:window-width="944"
     inkscape:window-height="1001"
     id="namedview4"
     showgrid="false"
     fit-margin-top="0"
     fit-margin-left="0"
     fit-margin-right="0"
     fit-margin-bottom="0"
     inkscape:zoom="4"
     inkscape:cx="36.514358"
     inkscape:cy="61.111781"
     inkscape:window-x="0"
     inkscape:window-y="0"
     inkscape:window-maximized="0"
     inkscape:current-layer="g10" /><g
     id="g10"
     inkscape:groupmode="layer"
     inkscape:label="825map"
     transform="matrix(1.25,0,0,-1.25,-30.515809,401.30033)"><g
       id="g1610"
       transform="translate(24.412647,298.94026)"><path
         d="m 0,0 c 0,12.199 9.89,22.1 22.097,22.1 12.207,0 22.097,-9.901 22.097,-22.1 0,-12.215 -9.89,-22.116 -22.097,-22.116 C 9.89,-22.116 0,-12.215 0,0"
         style="fill:#ffffff;fill-opacity:1;fill-rule:evenodd;stroke:none;stroke-width:6.96;stroke-miterlimit:4;stroke-dasharray:none"
         id="path1612"
         inkscape:connector-curvature="0" /></g><g
       id="g1614"
       transform="translate(24.523647,298.92426)"
       style="fill:#7b2f3d;fill-opacity:1"><path
         d="m 0,0 c 0,-1.495 0.158,-2.975 0.441,-4.423 0.3,-1.432 0.726,-2.802 1.293,-4.14 0.553,-1.306 1.231,-2.55 2.02,-3.731 0.788,-1.165 1.687,-2.25 2.68,-3.257 1.01,-0.993 2.098,-1.89 3.266,-2.677 1.182,-0.803 2.413,-1.479 3.721,-2.03 1.341,-0.567 2.714,-0.992 4.134,-1.29 1.45,-0.3 2.932,-0.441 4.431,-0.441 1.498,0 2.981,0.141 4.432,0.441 1.419,0.298 2.791,0.723 4.132,1.29 1.309,0.551 2.555,1.227 3.722,2.03 1.183,0.787 2.256,1.684 3.265,2.677 0.994,1.007 1.892,2.092 2.681,3.257 0.805,1.181 1.467,2.425 2.02,3.731 0.567,1.338 0.993,2.708 1.293,4.14 0.299,1.448 0.441,2.928 0.441,4.423 0,1.511 -0.142,2.975 -0.441,4.439 -0.3,1.417 -0.726,2.786 -1.293,4.124 -0.553,1.307 -1.215,2.55 -2.02,3.747 -0.789,1.164 -1.687,2.25 -2.681,3.241 -1.009,1.008 -2.082,1.905 -3.265,2.693 -1.167,0.802 -2.413,1.479 -3.722,2.031 -1.341,0.566 -2.713,0.991 -4.132,1.274 -1.451,0.299 -2.934,0.456 -4.432,0.456 -1.499,0 -2.981,-0.157 -4.431,-0.456 -1.42,-0.283 -2.793,-0.708 -4.134,-1.274 C 12.113,19.723 10.882,19.046 9.7,18.244 8.532,17.456 7.444,16.559 6.434,15.551 5.441,14.56 4.542,13.474 3.754,12.31 2.965,11.113 2.287,9.87 1.734,8.563 1.167,7.225 0.741,5.856 0.441,4.439 0.158,2.975 0,1.511 0,0 m 37.805,12.797 -2.082,2.204 -5.299,-5.021 2.098,-2.22 1.119,1.055 -0.993,1.055 0.993,0.944 0.868,-0.913 1.104,1.054 -0.852,0.914 0.962,0.897 0.963,-1.023 1.119,1.054 z M 10.551,0.016 c 0,-1.559 0.3,-3.038 0.899,-4.455 0.584,-1.369 1.404,-2.581 2.445,-3.636 1.057,-1.054 2.272,-1.873 3.644,-2.44 1.403,-0.598 2.886,-0.897 4.447,-0.897 1.546,0 3.028,0.299 4.447,0.897 1.357,0.567 2.572,1.386 3.628,2.44 1.057,1.055 1.861,2.267 2.445,3.636 0.599,1.417 0.899,2.896 0.899,4.455 0,1.542 -0.3,3.022 -0.899,4.439 -0.584,1.37 -1.388,2.582 -2.445,3.636 -1.056,1.055 -2.271,1.873 -3.628,2.455 -1.419,0.599 -2.901,0.898 -4.447,0.898 -1.561,0 -3.044,-0.299 -4.447,-0.898 C 16.167,9.964 14.952,9.146 13.895,8.091 12.854,7.037 12.034,5.825 11.45,4.455 10.851,3.038 10.551,1.558 10.551,0.016 m 19.731,18.511 -1.357,0.693 -3.248,-6.549 1.45,-0.723 1.499,3.022 0.11,0.268 0.031,0.062 -0.314,-4.013 1.356,-0.663 3.249,6.534 -1.451,0.723 -1.467,-2.943 c -0.047,-0.11 -0.094,-0.204 -0.142,-0.299 l 0.284,3.888 z m -4.511,1.432 -1.593,0.221 -1.072,-7.209 1.592,-0.252 1.073,7.24 z m -5.583,0.252 -1.609,-0.158 0.742,-7.271 3.059,0.314 -0.157,1.527 -1.452,-0.141 -0.583,5.729 z m -2.918,-3.887 -2.398,-0.898 0.521,-1.385 2.397,0.897 -0.52,1.386 z m -9.069,-1.417 -1.53,-1.338 4.306,-5.919 1.309,1.134 -2.539,3.164 0.441,-0.379 2.808,-2.157 0.962,0.82 -1.798,3.007 -0.395,0.597 2.934,-2.943 1.246,1.086 -5.362,5.005 -1.561,-1.369 2.003,-3.038 -2.824,2.33 z M 11.892,0.016 c 0,-1.37 0.268,-2.676 0.789,-3.936 0.504,-1.211 1.229,-2.282 2.16,-3.21 0.93,-0.929 2.003,-1.653 3.202,-2.157 1.262,-0.536 2.571,-0.802 3.928,-0.802 1.372,0 2.68,0.266 3.926,0.802 1.215,0.504 2.287,1.228 3.218,2.157 0.931,0.928 1.64,1.999 2.161,3.21 0.52,1.26 0.788,2.566 0.788,3.936 0,1.369 -0.268,2.676 -0.788,3.919 -0.521,1.213 -1.23,2.282 -2.161,3.211 -0.931,0.93 -2.003,1.653 -3.218,2.157 -1.246,0.535 -2.554,0.803 -3.926,0.803 -1.357,0 -2.666,-0.268 -3.928,-0.803 C 16.844,8.799 15.771,8.076 14.841,7.146 13.91,6.217 13.185,5.148 12.681,3.935 12.16,2.692 11.892,1.385 11.892,0.016 m 14.746,6.107 -0.236,0.189 2.365,-9.995 0.127,0.267 c 0.536,1.055 0.804,2.204 0.804,3.416 0,1.228 -0.268,2.393 -0.835,3.479 -0.537,1.055 -1.278,1.936 -2.225,2.644 M 23.563,-7.524 c 1.183,0.236 2.256,0.74 3.218,1.495 l 0.063,0.047 -1.625,6.769 -1.814,-8.342 0.158,0.031 z m 0.505,14.923 c -0.663,0.187 -1.341,0.283 -2.05,0.283 -0.568,0 -1.12,-0.063 -1.656,-0.189 l -0.111,-0.032 1.988,-8.137 1.939,8.043 -0.11,0.032 z M 17.649,-6.296 c 0.977,-0.693 2.066,-1.118 3.233,-1.292 l 0.158,-0.031 -1.846,8.327 -1.608,-6.972 0.063,-0.032 z m -2.193,2.345 0.143,-0.22 2.586,10.814 -0.221,-0.142 C 17.412,6.155 16.923,5.761 16.481,5.288 16.04,4.832 15.662,4.313 15.346,3.763 15.031,3.196 14.778,2.597 14.621,1.984 14.447,1.338 14.352,0.677 14.352,0 c 0,-0.708 0.095,-1.402 0.3,-2.078 0.174,-0.66 0.441,-1.275 0.804,-1.873"
         style="fill:#7b2f3d;fill-opacity:1;fill-rule:evenodd;stroke:none"
         id="path1616"
         inkscape:connector-curvature="0" /></g><g
       id="g1618"
       transform="translate(32.740647,313.68926)"><path
         d="M 0,0 3.249,-2.708 3.265,-2.691 0.947,0.834 2.366,2.062 7.571,-2.786 6.482,-3.73 2.887,-0.11 2.871,-0.126 3.849,-1.59 l 1.75,-2.912 -0.82,-0.725 -2.744,2.111 -1.215,1.038 -0.079,0.11 -0.015,-0.015 3.186,-3.983 -1.12,-0.992 -4.18,5.746"
         style="fill:#ffffff;fill-opacity:1;fill-rule:evenodd;stroke:none"
         id="path1620"
         inkscape:connector-curvature="0" /></g><g
       id="g1622"
       transform="translate(41.730647,315.10626)"><path
         d="M 0,0 0.442,-1.165 -1.766,-1.983 -2.192,-0.819 0,0"
         style="fill:#ffffff;fill-opacity:1;fill-rule:evenodd;stroke:none"
         id="path1624"
         inkscape:connector-curvature="0" /></g><g
       id="g1626"
       transform="translate(44.616647,319.02526)"><path
         d="M 0,0 0.568,-5.745 2.035,-5.588 2.161,-6.91 -0.678,-7.193 -1.404,-0.142 0,0"
         style="fill:#ffffff;fill-opacity:1;fill-rule:evenodd;stroke:none"
         id="path1628"
         inkscape:connector-curvature="0" /></g><g
       id="g1630"
       transform="translate(50.168647,318.78926)"><path
         d="M 0,0 -1.041,-7.005 -2.429,-6.8 -1.388,0.204 0,0"
         style="fill:#ffffff;fill-opacity:1;fill-rule:evenodd;stroke:none"
         id="path1632"
         inkscape:connector-curvature="0" /></g><g
       id="g1634"
       transform="translate(54.710647,317.38826)"><path
         d="m 0,0 -0.347,-4.596 0.032,0 c 0.078,0.346 0.205,0.676 0.378,1.007 l 1.405,2.849 1.261,-0.614 -3.155,-6.343 -1.183,0.582 0.347,4.612 -0.015,-0.015 -0.268,-0.677 -0.111,-0.268 -1.45,-2.896 -1.247,0.614 3.138,6.343 L 0,0"
         style="fill:#ffffff;fill-opacity:1;fill-rule:evenodd;stroke:none"
         id="path1636"
         inkscape:connector-curvature="0" /></g><g
       id="g1638"
       transform="translate(35.184647,298.94026)"><path
         d="m 0,0 c 0,6.249 5.079,11.317 11.324,11.317 6.247,0 11.309,-5.068 11.309,-11.317 0,-6.249 -5.062,-11.317 -11.309,-11.317 C 5.079,-11.317 0,-6.249 0,0"
         style="fill:#ffffff;fill-opacity:1;fill-rule:evenodd;stroke:none"
         id="path1640"
         inkscape:connector-curvature="0" /></g><g
       id="g1642"
       transform="translate(62.171647,311.72126)"><path
         d="M 0,0 -0.962,-0.897 -1.925,0.125 -3.044,-0.928 -2.193,-1.826 -3.139,-2.739 -4.007,-1.826 -5.158,-2.927 -4.18,-3.966 -5.126,-4.88 -7.082,-2.817 -1.94,2.047 0,0"
         style="fill:#ffffff;fill-opacity:1;fill-rule:evenodd;stroke:none"
         id="path1644"
         inkscape:connector-curvature="0" /></g><g
       id="g1646"
       transform="translate(36.415647,290.35426)"><path
         d="m 0,0 -0.962,-0.881 -0.758,0.814 -4.224,-3.924 -0.952,1.017 4.224,3.923 -0.741,0.8 0.961,0.898"
         style="fill:#ffffff;fill-opacity:1;fill-rule:evenodd;stroke:none"
         id="path1648"
         inkscape:connector-curvature="0" /></g><g
       id="g1650"
       transform="translate(37.979647,286.09826)"><path
         d="M 0,0 C -0.325,-0.481 -0.77,-0.693 -1.3,-0.337 L -1.502,-0.19 -0.445,1.363 -0.29,1.265 C 0.318,0.891 0.292,0.42 0,0 m 0.487,2.368 -1.151,0.805 -4.093,-5.769 1.151,-0.804 1.879,2.663 0.016,-0.017 -0.884,-3.366 1.197,-0.853 0.865,3.336 c 0.786,-0.097 1.432,0.27 1.886,0.914 1.108,1.576 -0.13,2.573 -0.866,3.091"
         style="fill:#ffffff;fill-opacity:1;fill-rule:evenodd;stroke:none"
         id="path1652"
         inkscape:connector-curvature="0" /></g><g
       id="g1654"
       transform="translate(46.827647,285.73626)"><path
         d="m 0,0 0.358,-5.763 1.472,0.104 0.078,-1.325 -2.847,-0.181 -0.469,7.074"
         style="fill:#ffffff;fill-opacity:1;fill-rule:evenodd;stroke:none"
         id="path1656"
         inkscape:connector-curvature="0" /></g><g
       id="g1658"
       transform="translate(50.085647,286.45726)"><path
         d="m 0,0 1.694,-5.52 1.407,0.443 0.385,-1.271 -2.726,-0.837 -2.108,6.77"
         style="fill:#ffffff;fill-opacity:1;fill-rule:evenodd;stroke:none"
         id="path1660"
         inkscape:connector-curvature="0" /></g><g
       id="g1662"
       transform="translate(54.723647,288.76226)"><path
         d="M 0,0 0.735,-1.102 -0.45,-1.884 0.391,-3.16 1.436,-2.482 2.148,-3.579 1.111,-4.269 1.985,-5.6 3.184,-4.809 3.917,-5.912 1.54,-7.462 -2.356,-1.555"
         style="fill:#ffffff;fill-opacity:1;fill-rule:evenodd;stroke:none"
         id="path1664"
         inkscape:connector-curvature="0" /></g><g
       id="g1666"
       transform="translate(40.835647,280.30626)"><path
         d="M 0,0 C 0.484,-0.149 0.741,0.431 1.319,2.303 1.896,4.175 2.011,4.798 1.527,4.947 1.057,5.092 0.8,4.512 0.223,2.64 -0.355,0.768 -0.469,0.144 0,0 M -0.323,-1.073 C -1.896,-0.589 -1.685,0.852 -1.015,3.02 -0.347,5.189 0.291,6.498 1.864,6.015 3.558,5.494 3.14,3.814 2.557,1.922 1.973,0.031 1.371,-1.593 -0.323,-1.073"
         style="fill:#ffffff;fill-opacity:1;fill-rule:nonzero;stroke:none"
         id="path1668"
         inkscape:connector-curvature="0" /></g><g
       id="g1670"
       transform="translate(59.979647,287.90126)"><path
         d="M 0,0 -4.043,2.062 -3.075,3.051 -0.76,1.625 -0.75,1.636 -2.221,3.923 -1.284,4.879 0.875,0.893 2.888,-1.069 2.013,-1.963"
         style="fill:#ffffff;fill-opacity:1;fill-rule:nonzero;stroke:none"
         id="path1672"
         inkscape:connector-curvature="0" /></g><g
       id="g1674"
       transform="translate(36.304647,298.94026)"
       style="fill:#7b2f3d;fill-opacity:1"><path
         d="m 0,0 c 0,5.635 4.574,10.199 10.205,10.199 5.63,0 10.189,-4.564 10.189,-10.199 0,-5.635 -4.559,-10.2 -10.189,-10.2 C 4.574,-10.2 0,-5.635 0,0"
         style="fill:#7b2f3d;fill-opacity:1;fill-rule:evenodd;stroke:none"
         id="path1676"
         inkscape:connector-curvature="0" /></g><g
       id="g1678"
       transform="translate(40.074647,295.03626)"><path
         d="M 0,0 2.46,10.295 C 0.331,8.957 -1.088,6.58 -1.088,3.888 -1.088,2.471 -0.694,1.134 0,0"
         style="fill:#ffffff;fill-opacity:1;fill-rule:evenodd;stroke:none"
         id="path1680"
         inkscape:connector-curvature="0" /></g><g
       id="g1682"
       transform="translate(42.250647,292.72226)"><path
         d="M 0,0 1.467,6.422 3.186,-1.275 C 2.003,-1.101 0.931,-0.661 0,0"
         style="fill:#ffffff;fill-opacity:1;fill-rule:evenodd;stroke:none"
         id="path1684"
         inkscape:connector-curvature="0" /></g><g
       id="g1686"
       transform="translate(48.575647,306.21126)"><path
         d="m 0,0 -1.798,-7.492 -1.876,7.587 c 0.535,0.126 1.087,0.19 1.655,0.19 C -1.325,0.285 -0.647,0.19 0,0"
         style="fill:#ffffff;fill-opacity:1;fill-rule:evenodd;stroke:none"
         id="path1688"
         inkscape:connector-curvature="0" /></g><g
       id="g1690"
       transform="translate(48.071647,291.51026)"><path
         d="M 0,0 1.671,7.713 3.153,1.48 C 2.255,0.756 1.166,0.237 0,0"
         style="fill:#ffffff;fill-opacity:1;fill-rule:evenodd;stroke:none"
         id="path1692"
         inkscape:connector-curvature="0" /></g><g
       id="g1694"
       transform="translate(51.099647,304.96826)"><path
         d="M 0,0 2.224,-9.412 C 2.728,-8.388 3.012,-7.24 3.012,-6.044 3.012,-3.573 1.829,-1.384 0,0"
         style="fill:#ffffff;fill-opacity:1;fill-rule:evenodd;stroke:none"
         id="path1696"
         inkscape:connector-curvature="0" /></g></g></svg>