<?xml version="1.0" encoding="UTF-8"?>
<svg width="400" height="220" version="1.1" xmlns="http://www.w3.org/2000/svg">
 <path d="m390 165.51v42.98h-88.25c-31.111 0-51.424-14.065-51.424-14.065-30.311-20.988-27.203-55.301-27.203-55.301 4.2536-58.206 54.045-58.064 54.045-58.064 16.593 0.20367 21.208 16.341 21.208 16.341 5.7134-4.3011 4.3478-12.856 4.3478-12.856 0-10.941-8.9628-18.351-8.9628-18.351-10.784-12.621-33.011-11.852-33.011-11.852-44.487 1.0831-84.499 38.506-84.499 38.506l-55.992 46.935c-33.247 26.419-72.615 26.607-72.615 26.607h-37.643v-43.089h32.823s26.419 3.4534 56.872-22.542l48.285-40.813s52.257-48.363 113.19-48.363c0 0 34.549-2.543 62.632 22.966 0 0 23.31 20.265 22.823 50.326 0 0 2.1038 35.036-28.914 51.142 0 0-10.517 6.7498-20.845 6.7498 0 0-17.88 0-21.6-18.413 0 0-8.3506 3.4221-8.3506 15.697 0 0-3.2964 25.665 34.392 25.665z" fill="#005CB9"/>
</svg>