<?xml version="1.0" encoding="UTF-8"?>
<svg width="385" height="400" version="1.1" xmlns="http://www.w3.org/2000/svg">
 <path d="m86.335 254.75s-117.26-94.074 34.47-200.89c0 0 100.56-66.662 254.68-35.624-58.039 20.188-74.381 114.98-74.381 114.98-8.24 59.273-30.709 95.584-30.709 95.584-42.133 82.648-140.96 53.752-140.96 53.752-10.794 67.595-67.35 107.45-67.35 107.45l-52.571-45.897s94.348-9.5034 117.01-135c0 0 9.1196-75.808 63.009-105.94 0 0-53.89 17.359-71.221 75.782 0 0-15.547 60.29-31.971 75.808" fill="#949599"/>
</svg>