<svg viewBox="0 0 533.33331 533.33331" xmlns="http://www.w3.org/2000/svg">
  <g transform="matrix(0.1333329826593399, 0, 0, -0.1333329826593399, 0.0006600000196996803, 533.3326416015624)" id="g12">
    <title>TfNSW L</title>
    <path id="path14" style="fill-opacity: 1; fill-rule: nonzero; stroke: none; fill: rgb(228, 2, 45);" d="m 1999.99,157.238 c -1016.177,0 -1842.885,826.684 -1842.885,1842.822 0,1016.16 826.708,1842.7 1842.885,1842.7 1016.06,0 1842.9,-826.54 1842.9,-1842.7 0,-1016.138 -826.84,-1842.822 -1842.9,-1842.822">
      <title>Background</title>
    </path>
    <path id="path16" style="fill:#ffffff;fill-opacity:1;fill-rule:nonzero;stroke:none" d="M 1999.99,4000 C 897.125,4000 0,3102.77 0,2000.06 0,897.238 897.125,0 1999.99,0 3102.88,0 4000,897.238 4000,2000.06 4000,3102.77 3102.88,4000 1999.99,4000 Z m 0,-314.32 c 929.52,0 1685.66,-756.26 1685.66,-1685.62 0,-929.6 -756.14,-1685.599 -1685.66,-1685.599 -929.51,0 -1685.654,755.999 -1685.654,1685.599 0,929.36 756.144,1685.62 1685.654,1685.62">
      <title>Ring</title>
    </path>
    <path id="path-3" style="fill:#ffffff;fill-opacity:1;fill-rule:nonzero;stroke:none" d="M 1416.529 1000.04 L 1416.529 3046.46 C 1416.529 3069.179 1436.449 3083.404 1453.529 3083.404 L 1789.31 3083.404 C 1806.41 3083.404 1826.31 3069.179 1826.31 3046.46 L 1826.31 1361.472 L 2646.052 1361.472 C 2674.549 1361.472 2685.897 1344.434 2685.897 1313.076 L 2685.897 1039.89 C 2685.897 1019.993 2671.69 1000.04 2648.9 1000.04 L 1416.529 1000.04">
      <title>L</title>
    </path>
  </g>
</svg>