<?xml version="1.0" encoding="UTF-8"?>
<svg width="100" height="100" version="1.1" xmlns="http://www.w3.org/2000/svg">
 <path d="m2.5019 50.141 1e-3 0.29187c0.15903 25.961 21.248 46.923 47.21 46.923h0.57686c26.074 0 47.21-21.137 47.21-47.21v-0.29187c0-26.074-21.136-47.21-47.21-47.21h-0.5796c-26.185 0-47.369 21.313-47.209 47.498" fill="#ED40A9"/>
 <path d="m57.042 48.371c4.53 0.69061 7.9502 2.3322 10.262 4.9274 2.3102 2.5952 3.4653 6.0839 3.4653 10.465 0 5.851-2.0704 10.508-6.2113 13.974-4.1409 3.4667-9.7205 5.1987-16.742 5.1987-3.1516 0-6.099-0.23293-8.8449-0.69745-2.7446-0.46451-5.1973-1.1318-7.3582-2.0019l0.72073-11.432c2.0992 1.051 4.2231 1.8375 6.3675 2.3623 2.1458 0.52617 4.3286 0.7879 6.5484 0.7879 3.4804 0 6.1661-0.79475 8.057-2.3856 1.8896-1.5895 2.835-3.8408 2.835-6.7512 0-3.0296-0.99756-5.2439-2.9926-6.6388-1.9964-1.3949-5.1535-2.0924-9.4739-2.0924h-0.99068c-0.23979 0-0.78104 0.0302-1.6196 0.0905-0.42067 0.0302-0.75088 0.0603-0.99069 0.089v-10.621c0.20965 0 0.54811 0.0164 1.0126 0.0452 0.46589 0.0302 0.80296 0.0451 1.0126 0.0451 5.1316 0 8.686-0.62345 10.667-1.8676 1.98-1.2456 2.9693-3.3544 2.9693-6.3237 0-2.6405-0.84681-4.6506-2.5418-6.0318-1.6964-1.3785-4.1642-2.0704-7.4034-2.0704-1.9512 0-3.9162 0.28636-5.8962 0.85641-1.98 0.57002-3.9765 1.4401-5.9866 2.6103l-0.80981-11.028c2.4897-1.0496 5.1151-1.8224 7.8762-2.3171 2.7597-0.49603 5.7756-0.74268 9.0464-0.74268 6.3908 0 11.296 1.4168 14.718 4.2532 3.4201 2.835 5.1302 6.8937 5.1302 12.175 0 3.871-1.1414 7.1486-3.4201 9.8329-2.2815 2.6857-5.4166 4.4492-9.4067 5.2892" fill="#fff"/>
</svg>
