<?xml version="1.0" encoding="UTF-8"?>
<svg width="100" height="100" version="1.1" xmlns="http://www.w3.org/2000/svg">
 <path d="m49.854 97.5h0.29139c26.154 0 47.354-21.202 47.354-47.354v-0.29275c0-26.154-21.2-47.354-47.354-47.354h-0.29139c-26.154 0-47.354 21.2-47.354 47.354v0.29275c0 26.152 21.2 47.354 47.354 47.354" fill="#9AB6D3"/>
 <path d="m65.874 19.9-0.82939 11.179c-2.1836-0.96129-4.3083-1.6882-6.3754-2.1836-2.0671-0.49537-3.9883-0.74237-5.765-0.74237-2.7365 0-4.8542 0.55293-6.3544 1.6602-1.4988 1.1058-2.2482 2.6635-2.2482 4.6717 0 1.8636 0.6259 3.4354 1.8777 4.7167 1.2518 1.2812 3.8143 2.8376 7.6862 4.6718 6.4624 3.1154 10.647 5.9684 12.554 8.559 1.9058 2.592 2.86 5.9979 2.86 10.218 0 5.9684-1.9647 10.684-5.8955 14.149-3.9294 3.4649-9.3 5.1966-16.113 5.1966-2.3576 0-4.8317-0.22594-7.4237-0.67639-2.5906-0.45189-5.4001-1.1283-8.4271-2.0307l1.0918-11.179c2.62 1.2813 5.0941 2.2271 7.4237 2.8376 2.3282 0.61185 4.5693 0.91779 6.7248 0.91779 2.8235 0 5.0282-0.64695 6.614-1.9436 1.5872-1.2953 2.3815-3.093 2.3815-5.3931 0-3.2319-3.3049-6.5214-9.9132-9.8683-0.81534-0.40838-1.4258-0.71291-1.8342-0.91638-5.2401-2.6495-8.733-5.212-10.48-7.6862-1.7472-2.4741-2.62-5.6471-2.62-9.5189 0-5.8225 1.9142-10.393 5.7425-13.712 3.8283-3.3189 9.1344-4.9777 15.917-4.9777 2.0671 0 4.2072 0.16699 6.4189 0.50101 2.2131 0.33538 4.5413 0.85183 6.9873 1.5507"/>
</svg>
