<svg xmlns="http://www.w3.org/2000/svg" width="494" height="494">
<circle fill="#8A999A" r="247" cx="247" cy="247"/>
<path d="m241.7 244.3c10.4-2.2 22.2-0.5 30.4 6.5 7.7 6.3 11.6 16.1 12.8 25.7 1.3 11.5 0.6 23.4-3.6 34.3-3.6 9.4-10.2 18.1-19.5 22.5-9.9 4.5-22.1 4.7-31.7-0.8-8.4-4.8-14.4-13-17.7-22-4.1-11.5-3.7-24.3-0.6-36.1 4-14.2 15.2-27.1 29.9-30.1zm-33-117.3c13-8 28.4-11.6 43.6-11.2 20.6-0.3 42.3 5.8 57.3 20.6 11.5 10.8 17.3 26.4 18.5 41.9-15.2-0.2-30.4 0.1-45.5-0.4-2.6-6.3-6.2-12.5-12-16.5-8.7-6.2-20.3-7.4-30.5-5-11.1 2.7-19.7 11.5-24.4 21.6-6.8 14.2-7 30.6-4.8 45.9 11-8.8 23.3-17 37.7-18.5 20.5-1.4 42.4 3.1 58.4 16.7 12.9 10.6 20.4 26.5 23.3 42.7 2.8 16.5 2.7 33.6-1.1 49.9-4.8 20.2-16.8 39-34.3 50.5-14.5 9.7-32.3 13.4-49.5 13.1-16.7-0.2-33.9-4.6-47.1-15.3-15.4-12.2-24-30.9-28.7-49.6-6.9-28.3-7.9-57.7-7.8-86.7 0.4-20.7 4.1-41.6 13.2-60.3 7.5-15.8 18.7-30.3 33.7-39.4z" fill-rule="evenodd" fill="#FFFFFF"/>
</svg>