<?xml version="1.0" encoding="UTF-8"?>
<svg width="400" height="400" version="1.1" xmlns="http://www.w3.org/2000/svg">
 <path d="m400 200c0 110.46-89.543 200-200 200-110.46 0-200-89.543-200-200 0-110.46 89.543-200 200-200 110.46 0 200 89.543 200 200" fill="#aace4f"/>
 <path d="m350 200c0 82.844-67.156 150-150 150s-150-67.156-150-150 67.156-150 150-150 150 67.156 150 150" fill="#323640"/>
 <path d="m244.67 152c-10.4-10.933-28.533-15.733-43.2-15.733-18.4 0-33.333 7.7333-33.333 20.533 0 17.067 16.267 20.267 40.267 22.4 36.8 3.2 71.733 17.333 71.733 60.533 0 41.622-38.4 59.733-78.667 60.022-32.267 0.26667-65.867-12.289-81.6-38.422l24.8-25.867c14.4 18.4 38.133 26.4 57.067 26.4 22.133 0 37.333-8.8 37.333-22.133 0.26667-15.733-12.267-22.933-37.6-25.067-39.467-3.7333-74.667-13.6-74.156-57.6 0.26666-37.067 35.489-56.8 73.889-56.8 28.8 0 50.4 6.4 69.6 28.8z" fill="#fff"/>
</svg>
