<?xml version="1.0" encoding="UTF-8" standalone="no"?>
<!-- Created with Inkscape (http://www.inkscape.org/) -->

<svg
   width="594.0072"
   height="594.0072"
   viewBox="0 0 5.9400719 5.9400719"
   version="1.1"
   id="svg1"
   inkscape:version="1.4.2 (ebf0e940, 2025-05-08)"
   sodipodi:docname="WMATA_Green_New.svg"
   inkscape:export-filename="WMATA_Green_New.png"
   inkscape:export-xdpi="96"
   inkscape:export-ydpi="96"
   xmlns:inkscape="http://www.inkscape.org/namespaces/inkscape"
   xmlns:sodipodi="http://sodipodi.sourceforge.net/DTD/sodipodi-0.dtd"
   xmlns="http://www.w3.org/2000/svg"
   xmlns:svg="http://www.w3.org/2000/svg">
  <sodipodi:namedview
     id="namedview1"
     pagecolor="#505050"
     bordercolor="#eeeeee"
     borderopacity="1"
     inkscape:showpageshadow="0"
     inkscape:pageopacity="0"
     inkscape:pagecheckerboard="0"
     inkscape:deskcolor="#505050"
     inkscape:document-units="mm"
     inkscape:zoom="0.023162177"
     inkscape:cx="5461.49"
     inkscape:cy="10189.025"
     inkscape:window-width="1920"
     inkscape:window-height="1147"
     inkscape:window-x="0"
     inkscape:window-y="25"
     inkscape:window-maximized="1"
     inkscape:current-layer="layer1" />
  <defs
     id="defs1">
    <clipPath
       clipPathUnits="userSpaceOnUse"
       id="clipPath1578">
      <path
         d="M 25,98.744 H 1055 V 1217.558 H 25 Z"
         transform="translate(-400.19241,-1131.0865)"
         id="path1578" />
    </clipPath>
    <clipPath
       clipPathUnits="userSpaceOnUse"
       id="clipPath1580">
      <path
         d="M 25,98.744 H 1055 V 1217.558 H 25 Z"
         transform="translate(-409.60591,-1127.2217)"
         id="path1580" />
    </clipPath>
  </defs>
  <g
     inkscape:label="Layer 1"
     inkscape:groupmode="layer"
     id="layer1"
     transform="translate(1339.5854,2550.3187)">
    <path
       id="path1577"
       d="m 0,0 c 0,4.65 3.77,8.419 8.419,8.419 4.65,0 8.419,-3.769 8.419,-8.419 0,-4.65 -3.769,-8.419 -8.419,-8.419 C 3.77,-8.419 0,-4.65 0,0"
       style="fill:#0fab4b;fill-opacity:1;fill-rule:evenodd;stroke:none"
       transform="matrix(0.35277776,0,0,-0.35277776,-1339.5854,-2547.3487)"
       clip-path="url(#clipPath1578)" />
    <path
       id="path1579"
       d="m 0,0 c -0.378,-0.16 -0.76,-0.239 -1.145,-0.239 -0.607,0 -1.154,0.105 -1.639,0.317 -0.486,0.21 -0.895,0.502 -1.228,0.872 -0.334,0.371 -0.589,0.806 -0.767,1.306 -0.178,0.5 -0.267,1.039 -0.267,1.617 0,0.593 0.089,1.143 0.267,1.651 0.178,0.507 0.433,0.95 0.767,1.328 0.333,0.378 0.742,0.674 1.228,0.889 0.485,0.214 1.032,0.322 1.639,0.322 0.408,0 0.802,-0.061 1.184,-0.183 C 0.42,7.758 0.765,7.578 1.073,7.34 1.38,7.104 1.634,6.811 1.834,6.463 2.034,6.114 2.156,5.715 2.201,5.262 H 0.533 C 0.43,5.707 0.23,6.04 -0.067,6.263 c -0.296,0.222 -0.655,0.333 -1.078,0.333 -0.393,0 -0.726,-0.076 -1,-0.228 C -2.419,6.217 -2.641,6.012 -2.812,5.757 -2.982,5.501 -3.107,5.21 -3.184,4.885 -3.262,4.558 -3.301,4.221 -3.301,3.873 c 0,-0.334 0.039,-0.658 0.117,-0.973 0.077,-0.314 0.202,-0.598 0.372,-0.85 0.171,-0.252 0.393,-0.453 0.667,-0.605 0.274,-0.152 0.607,-0.228 1,-0.228 0.578,0 1.024,0.146 1.339,0.439 0.315,0.292 0.499,0.717 0.551,1.272 h -1.757 v 1.301 h 3.335 v -4.29 H 1.212 l -0.178,0.9 C 0.722,0.439 0.378,0.159 0,0"
       style="fill:#ffffff;fill-opacity:1;fill-rule:nonzero;stroke:none"
       transform="matrix(0.35277776,0,0,-0.35277776,-1336.2645,-2545.9853)"
       clip-path="url(#clipPath1580)" />
  </g>
</svg>
