<svg enable-background="new 0 0 1440 1440" height="316.227766" viewBox="0 0 1440 1440" width="316.227766" xmlns="http://www.w3.org/2000/svg"><path d="m973.2 498c-108-29.3-172.8-13.2-189.4-7.9-3 1-5.7 2.8-7.7 5.2-5.9 7.3-9.4 16.6-10.9 27.2-.3 1.9-.5 3.8-.6 5.8-.2 2.4-.3 4.8-.3 7.3-.1 9.1.5 18.2 1.8 27.2.6 4.1 1.2 8.3 2 12.5 1.6 8.8 3.7 17.7 6.1 26.7 1.1 4.1 2.2 8.1 3.5 12.2 2.9 9.6 6 19.2 9.4 28.3 1.5 4 3 8 4.5 11.8 3.4 8.9 7 17.3 10.4 24.9 1.8 4.1 3.6 7.9 5.4 11.5 3 6.3 5.9 11.8 8.5 16.4 4.2 7.3 12.5 11.1 20.8 9.4 24.8-4.7 59.7-.7 101.6 4.6 196 24.9 350.6 117.8 406.4 244.7 9.9-23.4 11.9-31.5 19-55.7 2.3-7.9 4.5-15.9 6.5-23.9-109.2-270.5-271.4-354.2-397-388.2z" fill="#f0ede7"/><path d="m1302.7 522.8c-84.4-180.1-339.1-353.3-437-382.1-12.8-3.8-26.5-3.3-39.1 1.3l-118.3 43.2s-208.6 81.1-214.1 88.5c-4.7 6.3 1.8 17.5 3.8 20.7-2.1 1.3-4.1 2.7-6 4.1-19.4 15-52 51.4-58.7 106.2l-16.2-4.7-239-77.7-48.2-14.9c-1.6 2.3-3.1 4.5-4.7 6.8-60.8 88.7-100.8 190-117 296.3l46.6 6s663.1 93.6 750.3 105.9c2.3.3 4.4-1.3 4.7-3.5.1-1-.1-2.1-.7-2.9-6.6-9.6-13.1-20.2-19.6-31.2-2.7-4.6-5.4-9.4-8-14.2-5.6-10.3-11-21-16.1-31.7-2.2-4.7-4.3-9.5-6.4-14.2-19.3-44.6-30.3-88.5-20.6-113.9 1.1-3-.4-6.2-3.4-7.3-.1 0-.2-.1-.3-.1l-51.5-16.8 96.5-15.1c317.6-22.3 515.7 199.1 592.3 420.3 2.7-10.8 3.2-27.5 5.4-38.4l-.6 1.7c7.5-42.3.4-212-74.1-332.3z" fill="#f0ede7"/><path d="m720 0c-244.1 0-459.9 121.5-590.1 307.4l48.2 14.9c71.7-96.9 168.1-172.9 279.1-220 341.6-144.5 735.7 15.2 880.3 356.9 35.1 83 53.2 172.2 53.1 262.2 0 44.3-4.3 88.5-12.9 132-.5 2.4-.9 5-1.2 7.8-3.6-74.9-21.8-160.1-42.8-218.3-22.3-61.9-53.1-120.5-91.6-173.8-25.7-35.3-54.4-68.3-85.8-98.5-1.7-1.6-4.3-1.6-5.9.1-.7.8-1.2 1.8-1.2 2.9l.7 113.4c0 5.6 2.5 10.9 6.8 14.5 103.1 85.1 188.9 226.4 218.3 373.7-.4 3.8-.9 7.5-1.5 10.9-.1-.3-.2-.6-.3-.8-.6-1.4-1.2-2.8-1.8-4.3 0-.1 0-.1 0-.2-48.3-118.3-111.8-211.6-188.8-277.4-100.7-88.1-235-144.1-402.5-132.4l-96.5 15.1.8.2-.8.1 51.5 16.8c2.8.9 4.4 3.7 3.9 6.5 0 .2-.1.4-.2.5-.9 2.5-1.7 5.1-2.2 7.8-5.5 26.1 5.2 66 22.7 106.6l-718.3-144.9c-1.4 4-2.8 8-4.2 12.1l728.6 147.1c5 10.7 10.4 21.3 16.1 31.7l-713.1-121.2-46.1-7.8c-1.1 4.1-2.1 8.3-3.1 12.5l47.1 7.8 723.3 122.9c6.4 11 13 21.5 19.6 31.2 1.3 1.7.9 4.2-.9 5.4-.9.6-2 .9-3 .7-87.2-12.4-750.3-106-750.3-106l-46.5-6.6c0 .3-.1.6-.1.9-5.6 36.3-8.4 72.9-8.4 109.6 0 397.6 322.4 720 720 720s720-322.4 720-720-322.3-720-720-720zm624.6 966.1-.1-.3v-.1c-56-126.7-210.4-219.5-406.2-244.3-41.9-5.3-76.9-9.4-101.6-4.6-8.2 1.6-16.6-2.2-20.7-9.4-2.6-4.6-5.5-10.1-8.5-16.4 43.2-14.4 97.9-8.9 138 1.8v-.1.1l7.2-11.1v.1l.1-.1c-42.8-12-103.1-18.5-150.7-2.2-3.4-7.7-7-16-10.4-24.9 58.6-19.1 134.2-5.8 176.4 7.1l9.2-10.4.1-.1c-42.6-13.8-125.9-29.8-190.2-8.5-3.3-9.2-6.5-18.7-9.3-28.3 71.9-20.3 158.6-4.9 219.8 17.6.5-.4 1-.8 1.5-1.3 3.4-2.8 6.7-5.4 10-7.9l.1-.1c-63.5-24.8-157.2-42.7-234.9-20.7-2.4-8.9-4.5-17.9-6.1-26.6 45.6-12 97.2-13.2 153.5-3.5 39.3 6.8 77.6 18.2 114.2 34.1l15.4-6.9h-.1.1c-40.5-18.8-83.4-32.1-127.4-39.8-57.6-10-110.7-8.8-157.7 3.4-1.3-9-1.9-18.1-1.8-27.2 132.2-27.1 261.2 18.4 327 54.5 4.3-.3 8.5-.3 12.8-.2 4.4 2.6 8.5 5.2 12.4 7.7 106.7 68.5 189.3 175.4 245.5 317.7-6 20.6-8.4 29.1-17.6 50.9zm20.4-60.7-.1-.2s0-.1 0-.2c-56.6-139.7-139-244.9-244.9-312.9-8.3-5.5-17.8-11-28.1-16.4-34.4-18.3-76.8-34.5-118.9-45.1-71.6-18.1-143.3-21-207.7-8.3 1-8.1 3.6-15.9 7.8-22.9.9-1.5 1.9-2.9 3-4.3 2-2.5 4.6-4.3 7.7-5.2 2.7-.8 6.6-2 11.8-3.2 30.7-6.3 90.3-9.8 176.8 14.1 78.8 21.8 145.3 56.2 203.3 105.1 78.4 66.1 142.8 160.8 191.5 281.6l1.6 4c-1.2 4.8-2.5 9.4-3.8 13.9z" fill="#054b88"/><path d="m531.7 279.1c-13.6 5.2-24.8 9.8-33.8 15.4-2.1 1.3-4.1 2.7-6 4.1-19.4 15-52 51.4-58.7 106.2l70.9 23.3c-5.6-24.2-4.7-56.8 2.8-86.1 4.6-18 12.8-39.9 27.5-59.3.8-1.1.5-2.5-.5-3.3-.7-.4-1.5-.6-2.2-.3z" fill="#054b88"/><path d="m751.4 196.3c-47.5 17.8-124.6 46.7-175.7 66-34.4 20.4-49.7 56-56.5 82.8-8.9 35-6.7 69.1-.6 87.8l49.3 16.2s85.3-15.8 138.2-25.6c6.7-1.2 11.2-7.7 9.9-14.4 0-.1 0-.1 0-.2-6.2-30.4-8.9-76 .5-122.9 7.9-39.3 21.8-66.8 37.5-85.9.8-1 .6-2.5-.4-3.3-.6-.6-1.4-.8-2.2-.5z" fill="#054b88"/><path d="m869.7 181.8c-17.1-9.1-34.5-14.8-66.9-4.5-46.9 21.7-66.1 72.2-73.9 111.1-8.6 42.9-6.6 87.8-.4 118.4 1.4 6.7 7.9 11.1 14.6 9.9l3-.5c53.1-9.4 74.4-38.7 107.4-46.6 19.1-4.6 37.9-1.6 53.7 3.5 1.5.5 5 1.8 9.1 3.5 4.6 1.9 9.9-.3 11.7-4.9.7-1.8.9-3.7.4-5.6-10.4-40.5-35.7-138.7-44.5-166.8-2.2-7.6-7.4-13.8-14.2-17.5z" fill="#054b88"/><path d="m946.8 221.4c-12.4-6.6-23.6-12.3-33.3-17.2-2.9-1.5-6.4-.3-7.9 2.6-.6 1.3-.8 2.7-.5 4.1l42.1 167c1.6 6.3 6.3 11.4 12.5 13.4 6.5 2.2 13 4.4 19.5 6.9 2.7 1 5.6-.4 6.6-3.1.3-.9.4-1.8.2-2.7l-26.5-153.4c-1.3-7.5-6-14-12.7-17.6z" fill="#054b88"/><path d="m1014.8 260.6c-12.3-7.7-24.2-14.8-35.4-21.2-2-1.1-4.5-.4-5.7 1.6-.5.8-.6 1.8-.5 2.8l26.5 153c1.1 6.3 5.3 11.6 11.1 14.2 7.5 3.3 14.9 6.7 22.2 10.4 2.5 1.3 5.6.2 6.9-2.3.4-.9.6-1.8.5-2.8l-14.2-137.3c-.8-7.5-5-14.3-11.4-18.4z" fill="#054b88"/><path d="m1063.4 437.3c6.9 3.9 13.7 7.9 20.4 12 2.4 1.5 5.6.7 7.1-1.7.5-.9.8-1.9.8-2.9l-6-123.7c-.4-7.4-4-14.2-9.9-18.6-10.1-7.5-20-14.6-29.8-21.3-1.9-1.3-4.5-.8-5.8 1.1-.6.8-.8 1.8-.7 2.8l14.4 137.7c.6 6.1 4.2 11.6 9.5 14.6z" fill="#054b88"/><path d="m1112.9 468.3c5.3 3.7 10.6 7.5 15.9 11.4 2.3 1.7 5.5 1.2 7.2-1.1.7-.9 1-2 1-3.1l-.7-112.6c0-7.1-3.1-13.8-8.5-18.5-7.5-6.5-14.9-12.8-22.3-18.9-1.8-1.5-4.4-1.2-5.9.6-.6.8-1 1.8-.9 2.8l6 124.6c.3 6.1 3.4 11.5 8.2 14.8z" fill="#054b88"/><g fill="#afd8e8"><path d="m1390.6 721.4c0 44.3-4.3 88.5-12.9 132l-.6 1.7c7.2-42.2.2-212-74.3-332.2-84.4-180.1-339.1-353.3-437-382.1-12.8-3.8-26.5-3.3-39.1 1.3l-118.3 43.2s-208.6 81.1-214.1 88.5c-4.7 6.3 1.8 17.5 3.8 20.7-2.1 1.3-4.1 2.7-6 4.1-19.4 15-52 51.4-58.7 106.2l-16.2-4.7-239-77.7c71.7-96.9 168.1-172.9 279.1-220 341.6-144.5 735.7 15.2 880.3 356.8 35 82.9 53 172.1 53 262.2z"/><path d="m324.6 1079.6c-10.1 1.6-20.4 1.6-30.5 0l-15.7-71.4-25.8 71.4c-8.3 1.6-16.8 1.6-25.1 0l-25.8-71.4-15.6 71.4c-10.1 1.6-20.4 1.6-30.5 0l30.1-127.2c8.7-1.6 17.6-1.6 26.2 0l28.2 77.9 28.2-77.9c8.7-1.6 17.6-1.6 26.2 0z"/><path d="m484.5 1016c0 36.6-27.2 66.6-67.5 66.6s-67.5-30-67.5-66.6 27.2-66.6 67.5-66.6 67.5 30 67.5 66.6zm-103.2 0c0 25.4 16.4 40.5 35.6 40.5s35.6-15.1 35.6-40.5-16.4-40.5-35.6-40.5-35.6 15-35.6 40.5z"/><path d="m633.3 1079.6c-8.1 1.6-16.4 1.6-24.5 0l-59.3-74.6v74.6c-10.4 1.6-20.9 1.6-31.3 0v-127.3c8.1-1.6 16.4-1.6 24.5 0l59.3 74.6v-74.6c10.4-1.6 20.9-1.6 31.3 0z"/><path d="m802 1016c0 36.6-27.2 66.6-67.5 66.6s-67.5-30-67.5-66.6 27.2-66.6 67.5-66.6 67.5 30 67.5 66.6zm-103.2 0c0 25.4 16.4 40.5 35.6 40.5s35.6-15.1 35.6-40.5-16.4-40.5-35.6-40.5-35.6 15-35.6 40.5z"/><path d="m887.1 952.3c28.4 0 47.9 17 47.9 42.1 0 17.2-9.2 30.7-24.3 37.4l30.9 47.8c-9 1.6-25 1.6-34.1 0l-28-43.1h-12.1v43.1c-10.4 1.6-20.9 1.6-31.3 0v-127.3zm-19.5 58.2h19.6c8.6 0 16-5.1 16-16s-7.4-16-16-16h-19.6z"/><path d="m1095.2 1079.6c-10.7 1.6-21.6 1.6-32.3 0l-9-24.1h-46.6l-9 24.1c-10.7 1.6-21.6 1.6-32.3 0l51.7-127.2c8.5-1.6 17.3-1.6 25.8 0zm-51.1-50.5-13.5-36.4-13.5 36.4z"/><path d="m1158.2 1079.6c-10.4 1.6-20.9 1.6-31.3 0v-127.3c10.4-1.6 20.9-1.6 31.3 0z"/><path d="m1281.2 1053.5c1.6 8.6 1.6 17.4 0 26h-83.8v-127.2c10.4-1.6 20.9-1.6 31.3 0v101.2z"/></g><g fill="#f0ede7"><path d="m150.4 828.7c.7 1.8 1 10.6 0 11.8-6.4-4.2-12-6.6-17.2-6.6-5.8 0-9.3 3-9.3 7.4 0 4.8 3.9 6.4 12.8 9.1 8.2 2.6 17.8 6.4 17.8 18.9 0 12.2-9.8 18.9-22.1 18.9-6.6 0-13.1-1.8-18.8-5.1-.7-1.7-.9-10.7 0-11.9 6.5 4.3 12.7 6.7 18.3 6.7 6.5 0 10-3.2 10-7.7 0-5.1-3.9-6.5-13-9.4-8.4-2.8-17.5-6.9-17.5-18.3 0-10.2 7.7-18.9 21.6-18.9 6.2-.1 12.2 1.7 17.4 5.1z"/><path d="m222.4 876.4c.7 3.4.7 6.9 0 10.2h-42.4v-61.6h42.4c.7 3.4.7 6.9 0 10.2h-30.1v15h27c.7 3.4.7 6.9 0 10.2h-27v15.9z"/><path d="m303.8 886.7c-4.2.7-8.5.7-12.7 0l-5.3-13.7h-24.8l-5.3 13.7c-4.2.7-8.5.7-12.7 0l25.3-61.7c3.4-.7 6.9-.7 10.2 0zm-21.9-24-8.5-21.8-8.5 21.8z"/><path d="m362.2 825c.7 3.4.7 6.9 0 10.2h-18v51.4c-4.1.7-8.2.7-12.2 0v-51.4h-18c-.7-3.4-.7-6.9 0-10.2z"/><path d="m431.1 825c.7 3.4.7 6.9 0 10.2h-18v51.4c-4.1.7-8.2.7-12.2 0v-51.4h-18c-.7-3.4-.7-6.9 0-10.2z"/><path d="m495.7 876.4c.8 3.4.8 6.9 0 10.2h-40.3v-61.6c4.1-.7 8.3-.7 12.3 0v51.4z"/><path d="m562.4 876.4c.7 3.4.7 6.9 0 10.2h-42.4v-61.6h42.4c.7 3.4.7 6.9 0 10.2h-30v15h27c.7 3.4.7 6.9 0 10.2h-27v15.9z"/><path d="m674.3 871.8c.8 1.1.7 9.6 0 11.2-5.8 3.5-12.5 5.3-19.3 5.1-21 0-34.2-14.5-34.2-32.2s13.3-32.2 34.2-32.2c8.6 0 15.2 2.5 19.3 5.1.7 1.6.8 10 0 11.2-6.3-4.1-12.6-6.1-18.7-6.1-12.5 0-22.4 8.7-22.4 22s9.9 22 22.4 22c6-.1 12.3-2.1 18.7-6.1z"/><path d="m744.7 876.4c.7 3.4.7 6.9 0 10.2h-42.4v-61.6h42.4c.7 3.4.7 6.9 0 10.2h-30.1v15h27c.7 3.4.7 6.9 0 10.2h-27v15.9z"/><path d="m823.4 886.7c-3.2.7-6.5.7-9.7 0l-32.3-41v41c-4.1.7-8.2.7-12.3 0v-61.7c3.2-.7 6.5-.7 9.7 0l32.4 41v-41c4.1-.7 8.2-.7 12.2 0z"/><path d="m895.7 825c.7 3.4.7 6.9 0 10.2h-18v51.4c-4.1.7-8.2.7-12.2 0v-51.4h-18c-.7-3.4-.7-6.9 0-10.2z"/><path d="m962.3 876.4c.7 3.4.7 6.9 0 10.2h-42.3v-61.6h42.4c.7 3.4.7 6.9 0 10.2h-30.1v15h27c.7 3.4.7 6.9 0 10.2h-27v15.9z"/><path d="m1011 825c14.1 0 23 8.4 23 20.1.2 8.3-5.1 15.8-13.1 18.2l15.8 23.3c-4.5.7-9 .7-13.5 0l-14.7-21.5h-9.2v21.5c-4.1.7-8.2.7-12.3 0v-61.6zm-11.8 29.9h11.7c6.4 0 10.5-3.7 10.5-9.8s-4.1-9.9-10.5-9.9h-11.7z"/></g></svg>