<?xml version="1.0" encoding="UTF-8"?>
<svg width="100" height="100" version="1.1" xmlns="http://www.w3.org/2000/svg">
 <path d="m49.854 97.5h0.29139c26.154 0 47.354-21.202 47.354-47.354v-0.29275c0-26.154-21.2-47.354-47.354-47.354h-0.29139c-26.152 0-47.354 21.2-47.354 47.354v0.29275c0 26.153 21.202 47.354 47.354 47.354" fill="#00A0DF"/>
 <path d="m46.414 71.07h23.023v10.925h-38.462v-11.558c8.3056-8.0651 14.25-14.709 17.832-19.93 3.5804-5.2214 5.3712-9.7886 5.3712-13.7 0-2.6183-0.78206-4.695-2.3475-6.2302-1.5641-1.5352-3.6711-2.3022-6.3196-2.3022-1.8953 0-3.913 0.36836-6.0488 1.1064-2.1372 0.73671-4.3198 1.8129-6.5464 3.2272l-0.99234-12.008c2.4671-1.2026 5.1156-2.1358 7.9442-2.7983 2.8286-0.66249 5.6282-0.99372 8.3977-0.99372 6.1093 0 10.969 1.5957 14.581 4.7857 3.6106 3.19 5.4166 7.5084 5.4166 12.955 0 5.117-1.7758 10.648-5.3272 16.591-3.5515 5.943-9.0588 12.588-16.522 19.93" fill="#fff"/>
</svg>
