<?xml version="1.0" encoding="UTF-8"?>
<svg width="400" height="400" version="1.1" xmlns="http://www.w3.org/2000/svg">
 <path d="m400 200c0 39.557-11.73 78.227-33.707 111.11-21.977 32.886-53.212 58.525-89.756 73.663-36.545 15.138-76.758 19.099-115.56 11.381-38.796-7.7175-74.432-26.766-102.4-54.736-27.971-27.972-47.019-63.608-54.736-102.4-7.7169-38.797-3.7563-79.011 11.381-115.55 15.138-36.546 40.772-67.782 73.661-89.759 32.889-21.975 71.557-33.707 111.11-33.707 53.044 0 103.91 21.072 141.42 58.579 37.507 37.508 58.579 88.379 58.579 141.42z" fill="#73a044"/>
 <path d="m121.36 310.94v-38.35l80.587-73.526c24.556-22.612 33.469-39.062 33.469-55.938 0-25.836-22.944-37.309-45.888-37.309-21.143 0-41.241 7.1582-59.54 15.786l-1.8015-38.731c22.944-8.201 46.173-14.742 70.679-14.742 44.466 0 88.219 17.966 88.219 68.878 0 32.615-18.676 56.886-54.182 89.312l-52.145 48.022h109.17v36.597z" fill="#fff"/>
</svg>
