<?xml version="1.0" encoding="UTF-8"?>
<svg width="400" height="400" version="1.1" xmlns="http://www.w3.org/2000/svg">
 <path d="m400 199.95c0.0103 39.558-11.712 78.233-33.682 111.13-21.97 32.895-53.201 58.539-89.747 73.683-36.544 15.145-76.757 19.112-115.56 11.4-38.798-7.7115-74.439-26.756-102.42-54.725-27.976-27.969-47.028-63.607-54.748-102.4-7.7208-38.797-3.763-79.014 11.373-115.56 15.136-36.549 40.769-67.787 73.661-89.766 32.89-21.979 71.559-33.709 111.12-33.709 53.035 0 103.9 21.065 141.4 58.562 37.505 37.497 58.581 88.357 58.595 141.39z" fill="#8a7323"/>
 <path d="m125.05 279.14c20.137 7.2285 41.383 10.871 62.777 10.764 27.597 0 53.816-10.052 53.816-39.118 0-29.065-29.777-37.648-56.897-37.648h-30.63v-32.669h25.794c31.578 0 58.462-7.16 58.462-36.226 0-25.794-26.885-31.533-48.742-31.533-20.108 0.2753-40.015 4.0282-58.843 11.095l-2.1807-35.514c21.943-6.883 44.807-10.385 67.804-10.384 40.208 0 93.266 13.276 93.266 62.4 0 30.156-19.345 48.079-48.032 55.24 29.398 4.7418 52.725 25.463 52.725 55.619 0 55.95-52.725 73.542-101.9 73.542-23.553 0.44523-47.031-2.7544-69.605-9.483z" fill="#fff"/>
</svg>
