<?xml version="1.0" encoding="UTF-8"?>
<svg width="400" height="400" version="1.1" xmlns="http://www.w3.org/2000/svg">
 <path d="m400 199.71c0.052 39.569-11.623 78.266-33.564 111.19-21.942 32.929-53.157 58.608-89.696 73.792-36.541 15.181-76.763 19.183-115.58 11.499-38.816-7.6837-74.48-26.708-102.48-54.668-27.999-27.958-47.077-63.596-54.817-102.4-7.7405-38.804-3.7969-79.033 11.332-115.59 15.129-36.562 40.763-67.816 73.659-89.805 32.896-21.989 71.575-33.727 111.14-33.727 52.997-0.0128 103.83 21.014 141.33 58.461 37.501 37.447 58.603 88.252 58.668 141.25z" fill="#4498d1"/>
 <path d="m87.281 271.71v-41.976l106.8-146.6h54.175v151.97h34.374v36.602h-34.374v50.544h-49.48v-50.544zm37.279-35.488h74.898v-107.91z" fill="#fff"/>
</svg>
