<?xml version="1.0" encoding="UTF-8"?>
<svg width="400" height="400" version="1.1" xmlns="http://www.w3.org/2000/svg">
 <path d="m400 200c0 39.556-11.73 78.224-33.707 111.11-21.975 32.889-53.213 58.524-89.759 73.662-36.546 15.138-76.759 19.099-115.55 11.381-38.797-7.7172-74.434-26.765-102.4-54.736-27.971-27.971-47.02-63.607-54.736-102.4-7.7171-38.796-3.7564-79.009 11.381-115.56 15.137-36.545 40.773-67.782 73.662-89.756 32.89-21.975 71.559-33.706 111.11-33.706 53.044 0 103.91 21.072 141.42 58.579 37.508 37.507 58.579 88.377 58.579 141.42z" fill="#c12d29"/>
 <path d="m182.44 310.94v-187.58l-46.077 35.506-17.92-35.506 71.107-51.671h44.088v239.26z" fill="#fff"/>
</svg>
