<?xml version="1.0" encoding="utf-8"?>
<svg version="1.1" xmlns="http://www.w3.org/2000/svg" 
     xmlns:xlink="http://www.w3.org/1999/xlink"
     width="283.456px" height="283.456px" 
     viewBox="311.810 0 283.456 283.456" xml:space="preserve">

<path fill="#005CA5" d="M595.275,141.727C595.275,63.555,530.989,0,453.539,0c-78.224,0-141.729,63.555-141.729,141.727
		c0,78.18,63.505,141.738,141.729,141.738C530.989,283.465,595.275,219.906,595.275,141.727"/>
	<path fill="#FFFFFF" d="M445.911,215.434c-14.125,0-28.251-0.715-41.723-5.707c1.271-21.364,1.271-21.364,1.271-21.364
		c11.565,4.277,24.4,6.41,36.6,6.41c14.125,0,33.385-6.41,33.385-23.493c0-17.803-19.897-22.08-34.031-22.08
		c-18.614,0-18.614,0-18.614,0c0-19.215,0-19.215,0-19.215c15.409,0,15.409,0,15.409,0c14.768,0,35.311-4.992,35.311-22.076
		c0-15.665-19.264-19.231-31.459-19.231c-11.554,0-22.47,2.848-32.744,7.129c-1.926-22.077-1.926-22.077-1.926-22.077
		c13.483-3.564,26.326-5.697,40.443-5.697c23.765,0,56.497,7.83,56.497,37.025c0,17.803-12.196,29.908-28.886,34.186
		c17.335,2.129,31.457,14.234,31.457,32.752C506.901,204.747,475.444,215.434,445.911,215.434"/>
</svg>