<?xml version="1.0" encoding="utf-8"?>
<svg version="1.1" xmlns="http://www.w3.org/2000/svg" 
     xmlns:xlink="http://www.w3.org/1999/xlink"
     width="283.4px" height="283.4px" 
     viewBox="311.8 0 283.4 283.4" xml:space="preserve">

  <!-- purple circle -->
  <path fill="#821066" d="M595.3,141.7C595.3,63.2,532.1,0,453.5,0c-77.8,0-141.7,63.2-141.7,141.7c0,77.7,63.9,141.7,141.7,141.7
		C532.1,283.5,595.3,219.4,595.3,141.7"/>

  <!-- white detail inside purple circle -->
  <path fill="#FFFFFF" d="M447,214c-12.7,0-26.6-1.4-38.6-6.3c1.9-21.8,1.9-21.8,1.9-21.8c9.5,4.2,19.6,5.6,31,5.6
		c15.8,0,35.5-7,35.5-25.3c0-18.9-17.7-25.3-34.8-25.3c-8.9,0-19,1.4-29.8,4.9c1.9-76.5,1.9-76.5,1.9-76.5c86.7,0,86.7,0,86.7,0
		c0,20.4,0,20.4,0,20.4c-59.5,0-59.5,0-59.5,0c-1.3,35.8-1.3,35.8-1.3,35.8c5.7-1.4,10.8-2.1,16.5-2.1c26.6,0,51.3,11.2,51.3,42.1
		C507.7,199.3,476.7,214,447,214"/>

</svg>
