<?xml version="1.0" encoding="utf-8"?>
<svg xmlns="http://www.w3.org/2000/svg" xml:space="preserve" width="283.46" height="283.46">
  <path fill="#824C00" d="M283.463 142.16C283.463 63.373 220.131 0 142.118 0 63.329 0 0 63.373 0 142.16c0 77.926 63.328 141.305 142.117 141.305 78.014-.001 141.346-63.38 141.346-141.305"/>
  <path fill="#FFF" d="M140.479 141.031c-16.449 0-25.955 10.523-25.955 26.671 0 14.031 8.865 27.369 24.693 27.369 17.09 0 25.32-10.529 25.32-26.666.001-15.447-8.23-27.374-24.058-27.374m-1.262 74.402c-39.879 0-55.072-33.699-55.072-69.49 0-43.521 23.42-77.912 69.631-77.912 10.762 0 21.529.703 31.654 3.516l-1.898 21.758c-8.227-2.811-18.359-4.906-27.225-4.906-29.111 0-42.408 21.75-42.408 47.715 7.592-9.824 20.893-14.037 32.91-14.037 28.496 0 46.852 16.844 46.852 44.919 0 30.89-25.315 48.437-54.444 48.437z"/>
</svg>