<?xml version="1.0" encoding="utf-8"?>
<svg version="1.1" xmlns="http://www.w3.org/2000/svg" 
     xmlns:xlink="http://www.w3.org/1999/xlink"
     width="284.277px" height="284.277px" 
     viewBox="311.811 0 284.277 284.277" xml:space="preserve">
  <path fill="#E41F18" d="M595.275,142.156C595.275,63.841,531.941,0,453.932,0c-78.783,0-142.121,63.841-142.121,142.156
		c0,77.462,63.338,141.309,142.121,141.309C531.941,283.465,595.275,219.618,595.275,142.156"/>
  <path fill="#ffffff" d="M402.918,214.016c0-22.459,0-22.459,0-22.459c26.75-25.266,26.75-25.266,26.75-25.266
		c13.365-12.633,41.383-31.57,41.383-51.932c0-15.436-13.371-22.447-27.383-22.447c-12.096,0-24.826,4.207-35.654,9.822
		c-1.268-23.863-1.268-23.863-1.268-23.863c14.004-4.92,28.016-8.422,42.658-8.422c26.742,0,52.852,10.525,52.852,41.4
		c0,26.672-26.742,48.422-46.484,64.562c-16.555,16.844-16.555,16.844-16.555,16.844c64.951,0,64.951,0,64.951,0
		c0,21.76,0,21.76,0,21.76H402.918z"/>
</svg>
