<?xml version="1.0" encoding="utf-8"?>
<svg xmlns="http://www.w3.org/2000/svg" xml:space="preserve" width="283.46" height="283.46">
  <path fill="#ED677D" d="M0 141.301c0 78.785 63.336 142.164 141.351 142.164 78.778 0 142.114-63.379 142.114-142.164C283.464 63.373 220.128 0 141.351 0 63.336 0 0 63.373 0 141.301"/>
  <path fill="#FFF" d="M142.986 142.437c16.459 0 25.955-10.533 25.955-26.673 0-14.041-8.859-27.375-24.689-27.375-17.094 0-25.331 10.535-25.331 26.676 0 15.437 8.236 27.372 24.065 27.372m1.265-74.406c39.879 0 55.078 33.691 55.078 69.49 0 43.523-23.43 77.912-69.633 77.912-10.775 0-21.531-.699-31.662-3.514l1.904-21.756c8.227 2.812 18.352 4.912 27.219 4.912 29.129 0 42.413-21.75 42.413-47.719-7.594 9.818-20.889 14.027-32.918 14.027-28.486 0-46.846-16.842-46.846-44.91 0-30.895 25.322-48.442 54.445-48.442z"/>
</svg>