<?xml version="1.0" encoding="utf-8"?>
<svg xmlns="http://www.w3.org/2000/svg" xml:space="preserve" width="283.46" height="283.46">
  <path fill="#ED677D" d="M283.464 141.283C283.464 63.094 220.559 0 142.536 0 62.902 0 0 63.094 0 141.283c0 79.085 62.902 142.181 142.536 142.181 78.023 0 140.928-63.095 140.928-142.181"/>
  <path fill="#FFF" d="M141.729 86.455c-12.064 0-22.863 7.09-22.863 19.135 0 14.18 11.431 21.268 22.863 25.514 11.431-3.539 22.869-12.045 22.869-25.514 0-12.045-10.806-19.135-22.869-19.135m0 59.529c-13.332 2.84-26.037 12.049-26.037 26.219 0 14.883 11.427 23.396 26.037 23.396 14.609 0 26.037-8.514 26.037-23.396 0-14.877-13.974-21.961-26.037-26.219zm0 69.449c-25.398 0-56.517-10.631-56.517-38.973 0-21.258 12.066-31.891 31.748-38.267-17.146-5.672-27.941-16.295-27.941-34.021 0-26.219 31.119-36.141 52.71-36.141 22.869 0 52.074 8.504 52.074 36.141 0 17.01-12.066 28.35-27.312 34.021 18.42 6.376 31.762 15.582 31.762 38.267-.001 28.342-31.762 38.973-56.524 38.973z"/>
</svg>