<?xml version="1.0" encoding="UTF-8"?>
<svg width="400" height="400" version="1.1" xmlns="http://www.w3.org/2000/svg">
 <path d="m400 200c0 110.46-89.543 200-200 200-110.46 0-200-89.543-200-200 0-110.46 89.543-200 200-200 110.46 0 200 89.543 200 200" fill="#f68c1e"/>
 <path d="m350 200c0 82.843-67.157 150-150 150s-150-67.157-150-150 67.157-150 150-150 150 67.157 150 150" fill="#323640"/>
 <path d="m165.33 257.26h50.939c18.572 0 27.326-8.2254 27.326-21.227 0-12.997-9.5476-21.756-27.855-21.756h-50.41zm0-77.472h50.41c16.181 0 24.142-6.6333 24.142-17.509 0-10.881-7.9611-18.837-23.613-18.837h-50.939zm50.939-72.161c35.287 0 64.47 15.917 64.47 50.405 0 15.388-6.8976 29.717-24.671 37.943 23.608 8.4897 33.425 32.367 29.447 53.854-5.5698 29.982-30.511 43.513-67.655 43.513h-93.124v-185.71z" fill="#fff"/>
</svg>
