<?xml version="1.0" encoding="UTF-8"?>
<svg width="400" height="400" version="1.1" xmlns="http://www.w3.org/2000/svg">
 <path d="m400 200c0 110.46-89.543 200-200 200-110.46 0-200-89.543-200-200 0-110.46 89.543-200 200-200 110.46 0 200 89.543 200 200" fill="#238dcd"/>
 <path d="m350 200c0 82.843-67.157 150-150 150s-150-67.157-150-150 67.157-150 150-150 150 67.157 150 150" fill="#323640"/>
 <path d="m200 147.86-30.72 75.351h61.181zm45.444 111.96h-91.142l-12.948 31.838h-42.656l79.718-185.71h43.162l79.718 185.71h-42.904z" fill="#fff"/>
</svg>
