<?xml version="1.0" encoding="UTF-8" standalone="no"?>
<!DOCTYPE svg PUBLIC "-//W3C//DTD SVG 1.1//EN" "http://www.w3.org/Graphics/SVG/1.1/DTD/svg11.dtd">
<svg width="100%" height="100%" viewBox="0 0 16 16" version="1.1" xmlns="http://www.w3.org/2000/svg" xmlns:xlink="http://www.w3.org/1999/xlink" xml:space="preserve" xmlns:serif="http://www.serif.com/" style="fill-rule:evenodd;clip-rule:evenodd;stroke-linejoin:round;stroke-miterlimit:2;">
    <g transform="matrix(1,0,0,1,7.88,0)">
        <path d="M0,15.76C-4.352,15.76 -7.88,12.232 -7.88,7.88C-7.88,3.528 -4.352,0 0,0C4.352,0 7.88,3.528 7.88,7.88C7.88,12.232 4.352,15.76 0,15.76" style="fill:rgb(0,82,137);fill-rule:nonzero;"/>
    </g>
    <g transform="matrix(1,0,0,1,10.4987,4.4692)">
        <clipPath id="_clip1">
            <path d="M-10.499,3.411C-10.499,7.763 -6.971,11.291 -2.619,11.291C1.734,11.291 5.262,7.763 5.262,3.411C5.262,-0.941 1.734,-4.469 -2.619,-4.469C-6.971,-4.469 -10.499,-0.941 -10.499,3.411Z" clip-rule="nonzero"/>
        </clipPath>
        <g clip-path="url(#_clip1)">
            <path d="M0,7.97C-0.476,7.993 -0.948,7.594 -0.949,7.03C-0.949,6.484 -0.546,6.08 -0.016,6.071C0.522,6.063 0.954,6.512 0.95,7.013C0.947,7.503 0.536,7.988 0,7.97M-6.187,7.033C-6.187,6.509 -5.793,6.072 -5.245,6.071C-4.683,6.069 -4.26,6.554 -4.289,7.032C-4.265,7.533 -4.728,7.976 -5.248,7.974C-5.733,7.973 -6.187,7.559 -6.187,7.033M-5.933,2.326C-5.933,2.044 -5.704,1.815 -5.423,1.815L0.192,1.815C0.474,1.815 0.703,2.044 0.703,2.326L0.703,4.584C0.703,4.866 0.474,5.095 0.192,5.095L-5.423,5.095C-5.704,5.095 -5.933,4.866 -5.933,4.584L-5.933,2.326ZM-4.254,-0.185L-0.983,-0.185C-0.676,-0.185 -0.428,0.064 -0.428,0.37C-0.428,0.677 -0.676,0.925 -0.983,0.925L-4.254,0.925C-4.56,0.925 -4.809,0.677 -4.809,0.37C-4.809,0.064 -4.56,-0.185 -4.254,-0.185M-2.966,-1.067L-3.776,-2.321L-1.47,-2.321L-2.279,-1.067C-2.284,-1.06 -2.28,-1.051 -2.283,-1.044L-2.962,-1.044C-2.966,-1.051 -2.962,-1.06 -2.966,-1.067M1.823,1.319C1.823,1 1.732,0.71 1.531,0.457C1.265,0.122 1.011,-0.222 0.738,-0.551C0.478,-0.865 0.148,-1.052 -0.276,-1.046C-0.409,-1.044 -0.863,-1.044 -1.426,-1.044L-0.601,-2.321L-0.176,-2.321C0.025,-2.321 0.189,-2.484 0.189,-2.686C0.189,-2.887 0.025,-3.05 -0.176,-3.05L-5.068,-3.05C-5.269,-3.05 -5.433,-2.887 -5.433,-2.686C-5.433,-2.484 -5.269,-2.321 -5.068,-2.321L-4.644,-2.321L-3.82,-1.044C-4.416,-1.044 -4.904,-1.044 -5.05,-1.041C-5.169,-1.04 -5.292,-1.017 -5.404,-0.978C-5.644,-0.894 -5.843,-0.744 -6.002,-0.545C-6.197,-0.301 -6.388,-0.052 -6.581,0.194C-6.646,0.276 -6.706,0.362 -6.775,0.44C-6.981,0.674 -7.062,0.95 -7.062,1.257C-7.061,3.635 -7.061,6.013 -7.061,8.391L-7.061,8.462C-7.054,8.724 -6.873,8.959 -6.62,9.026C-6.547,9.045 -6.468,9.054 -6.392,9.055C-6.028,9.057 -5.664,9.056 -5.3,9.056L-6.687,10.369C-6.834,10.509 -6.84,10.739 -6.701,10.885C-6.63,10.961 -6.533,10.999 -6.436,10.999C-6.346,10.999 -6.255,10.967 -6.186,10.9L-4.239,9.056L-1.02,9.056L0.948,10.92C1.018,10.987 1.109,11.02 1.199,11.02C1.296,11.02 1.393,10.981 1.464,10.906C1.603,10.76 1.597,10.529 1.45,10.39L0.041,9.056C0.391,9.056 0.741,9.057 1.091,9.055C1.172,9.055 1.253,9.049 1.332,9.034C1.525,8.998 1.669,8.892 1.759,8.714C1.814,8.606 1.825,8.491 1.825,8.371C1.824,6.021 1.824,3.669 1.823,1.319" style="fill:white;fill-rule:nonzero;"/>
        </g>
    </g>
</svg>
