<?xml version="1.0" encoding="UTF-8" standalone="no"?>
<!DOCTYPE svg PUBLIC "-//W3C//DTD SVG 1.1//EN" "http://www.w3.org/Graphics/SVG/1.1/DTD/svg11.dtd">
<svg width="100%" height="100%" viewBox="0 0 16 16" version="1.1" xmlns="http://www.w3.org/2000/svg" xmlns:xlink="http://www.w3.org/1999/xlink" xml:space="preserve" xmlns:serif="http://www.serif.com/" style="fill-rule:evenodd;clip-rule:evenodd;stroke-linejoin:round;stroke-miterlimit:2;">
    <g transform="matrix(1,0,0,1,7.88,0)">
        <path d="M0,15.76C-4.352,15.76 -7.88,12.232 -7.88,7.88C-7.88,3.528 -4.352,0 0,0C4.352,0 7.88,3.528 7.88,7.88C7.88,12.232 4.352,15.76 0,15.76" style="fill:rgb(109,190,75);fill-rule:nonzero;"/>
    </g>
    <g transform="matrix(1,0,0,1,10.4987,4.4682)">
        <clipPath id="_clip1">
            <path d="M-10.499,3.411C-10.499,7.764 -6.971,11.292 -2.619,11.292C1.734,11.292 5.262,7.764 5.262,3.411C5.262,-0.94 1.734,-4.468 -2.619,-4.468C-6.971,-4.468 -10.499,-0.94 -10.499,3.411Z" clip-rule="nonzero"/>
        </clipPath>
        <g clip-path="url(#_clip1)">
            <path d="M0,7.971C-0.476,7.994 -0.948,7.595 -0.949,7.031C-0.949,6.484 -0.546,6.08 -0.016,6.072C0.522,6.064 0.954,6.513 0.95,7.014C0.947,7.504 0.536,7.989 0,7.971M-6.187,7.034C-6.187,6.51 -5.793,6.073 -5.245,6.072C-4.683,6.07 -4.26,6.555 -4.289,7.033C-4.265,7.534 -4.728,7.977 -5.248,7.975C-5.733,7.974 -6.187,7.56 -6.187,7.034M-5.933,2.326C-5.933,2.045 -5.704,1.816 -5.423,1.816L0.192,1.816C0.474,1.816 0.703,2.045 0.703,2.326L0.703,4.585C0.703,4.867 0.474,5.096 0.192,5.096L-5.423,5.096C-5.704,5.096 -5.933,4.867 -5.933,4.585L-5.933,2.326ZM-4.254,-0.184L-0.983,-0.184C-0.676,-0.184 -0.428,0.065 -0.428,0.371C-0.428,0.678 -0.676,0.926 -0.983,0.926L-4.254,0.926C-4.56,0.926 -4.809,0.678 -4.809,0.371C-4.809,0.065 -4.56,-0.184 -4.254,-0.184M-2.966,-1.066L-3.776,-2.32L-1.47,-2.32L-2.279,-1.066C-2.284,-1.059 -2.28,-1.05 -2.283,-1.043L-2.962,-1.043C-2.966,-1.05 -2.962,-1.059 -2.966,-1.066M1.823,1.32C1.823,1.001 1.732,0.711 1.531,0.458C1.265,0.123 1.011,-0.221 0.738,-0.55C0.478,-0.864 0.148,-1.051 -0.276,-1.045C-0.409,-1.043 -0.863,-1.043 -1.426,-1.043L-0.601,-2.32L-0.176,-2.32C0.025,-2.32 0.189,-2.483 0.189,-2.685C0.189,-2.886 0.025,-3.05 -0.176,-3.05L-5.068,-3.05C-5.269,-3.05 -5.433,-2.886 -5.433,-2.685C-5.433,-2.483 -5.269,-2.32 -5.068,-2.32L-4.644,-2.32L-3.82,-1.043C-4.416,-1.043 -4.904,-1.043 -5.05,-1.04C-5.169,-1.039 -5.292,-1.016 -5.404,-0.977C-5.644,-0.893 -5.843,-0.743 -6.002,-0.544C-6.197,-0.3 -6.388,-0.052 -6.581,0.195C-6.646,0.277 -6.706,0.363 -6.775,0.441C-6.981,0.675 -7.062,0.951 -7.062,1.258C-7.061,3.636 -7.061,6.014 -7.061,8.392L-7.061,8.462C-7.054,8.725 -6.873,8.96 -6.62,9.026C-6.547,9.046 -6.468,9.055 -6.392,9.056C-6.028,9.058 -5.664,9.057 -5.3,9.057L-6.687,10.37C-6.834,10.509 -6.84,10.74 -6.701,10.886C-6.63,10.962 -6.533,11 -6.436,11C-6.346,11 -6.255,10.968 -6.186,10.9L-4.239,9.057L-1.02,9.057L0.948,10.921C1.018,10.988 1.109,11.021 1.199,11.021C1.296,11.021 1.393,10.982 1.464,10.907C1.603,10.761 1.597,10.53 1.45,10.391L0.041,9.057C0.391,9.057 0.741,9.057 1.091,9.056C1.172,9.056 1.253,9.05 1.332,9.035C1.525,8.999 1.669,8.893 1.759,8.715C1.814,8.607 1.825,8.492 1.825,8.372C1.824,6.021 1.824,3.67 1.823,1.32" style="fill:white;fill-rule:nonzero;"/>
        </g>
    </g>
</svg>
