<?xml version="1.0" encoding="UTF-8" standalone="no"?>
<!-- Created with Inkscape (http://www.inkscape.org/) -->

<svg
   xmlns:dc="http://purl.org/dc/elements/1.1/"
   xmlns:cc="http://creativecommons.org/ns#"
   xmlns:rdf="http://www.w3.org/1999/02/22-rdf-syntax-ns#"
   xmlns:svg="http://www.w3.org/2000/svg"
   xmlns="http://www.w3.org/2000/svg"
   xmlns:sodipodi="http://sodipodi.sourceforge.net/DTD/sodipodi-0.dtd"
   xmlns:inkscape="http://www.inkscape.org/namespaces/inkscape"
   width="126.037"
   height="97.344749"
   id="svg2"
   version="1.1"
   inkscape:version="0.48.5 r10040"
   sodipodi:docname="UTA Streetcar.svg">
  <defs
     id="defs4" />
  <sodipodi:namedview
     id="base"
     pagecolor="#ffffff"
     bordercolor="#666666"
     borderopacity="1.0"
     inkscape:pageopacity="0.0"
     inkscape:pageshadow="2"
     inkscape:zoom="1.979899"
     inkscape:cx="63.018504"
     inkscape:cy="48.672379"
     inkscape:document-units="px"
     inkscape:current-layer="g3010"
     showgrid="false"
     fit-margin-top="1"
     fit-margin-left="1"
     fit-margin-bottom="1"
     fit-margin-right="1"
     inkscape:window-width="619"
     inkscape:window-height="405"
     inkscape:window-x="660"
     inkscape:window-y="461"
     inkscape:window-maximized="0" />
  <metadata
     id="metadata7">
    <rdf:RDF>
      <cc:Work
         rdf:about="">
        <dc:format>image/svg+xml</dc:format>
        <dc:type
           rdf:resource="http://purl.org/dc/dcmitype/StillImage" />
        <dc:title></dc:title>
      </cc:Work>
    </rdf:RDF>
  </metadata>
  <g
     inkscape:label="Layer 1"
     inkscape:groupmode="layer"
     id="layer1"
     transform="translate(-144.86123,-833.53834)">
    <path
       inkscape:connector-curvature="0"
       d="m 439.97717,335.11379 0,-10.30613 57.56,0 0,10.26613 -57.56,0.04 z"
       style="fill:#ee3338;fill-opacity:1;fill-rule:nonzero;stroke:none"
       id="path258" />
    <path
       inkscape:connector-curvature="0"
       d="m 497.53679,339.02916 -57.51987,0 0,6.51013 57.51987,0 0,-6.51013 z"
       style="fill:#205da9;fill-opacity:1;fill-rule:nonzero;stroke:none"
       id="path260" />
    <path
       inkscape:connector-curvature="0"
       d="m 468.65704,315.74079 c -6.91012,0 -13.02125,3.635 -16.49612,9.06625 l 5.0325,0 c 2.83612,-3.115 6.90975,-5.07225 11.46362,-5.07225 8.58763,0 15.53888,6.95125 15.53888,15.53875 0,8.58862 -6.95125,15.5375 -15.53888,15.5375 -4.63387,0 -8.78737,-2.03638 -11.62375,-5.2725 l -4.9925,0 c 3.43488,5.59237 9.58638,9.30725 16.61625,9.30725 10.82488,0 19.5325,-8.7885 19.5325,-19.57225 0,-10.78513 -8.70762,-19.53275 -19.5325,-19.53275"
       style="fill:#205da9;fill-opacity:1;fill-rule:nonzero;stroke:none"
       id="path262" />
    <path
       inkscape:connector-curvature="0"
       d="m 493.06267,347.77579 0.27987,0 c 0,0.15875 0.0401,0.27887 0.12013,0.36 0.0797,0.079 0.23987,0.11875 0.39975,0.11875 0.119,0 0.23875,-0.0398 0.35887,-0.11875 0.0801,-0.04 0.12013,-0.11975 0.12013,-0.23988 0,-0.16012 -0.16013,-0.27987 -0.52013,-0.36 l -0.0386,0 c -0.24025,-0.0801 -0.44013,-0.16012 -0.52013,-0.23987 -0.0786,-0.04 -0.12012,-0.15875 -0.12012,-0.31888 0,-0.15987 0.0415,-0.32 0.16012,-0.44012 0.16013,-0.0786 0.32,-0.15875 0.51875,-0.15875 0.23988,0 0.4,0.0801 0.52013,0.20025 0.15987,0.0786 0.1985,0.23875 0.1985,0.43862 l -0.2385,0 c 0,-0.12012 -0.0801,-0.23987 -0.16013,-0.27987 -0.0801,-0.0801 -0.15987,-0.12013 -0.32,-0.12013 -0.11875,0 -0.23875,0.04 -0.31887,0.08 -0.0797,0.0801 -0.11975,0.12013 -0.11975,0.23988 0,0.15875 0.15975,0.28 0.47975,0.359 l 0.119,0 0.0397,0 c 0.20012,0.0797 0.36,0.12112 0.439,0.19987 0.0411,0.04 0.0797,0.08 0.12112,0.16013 0,0.04 0.0401,0.11975 0.0401,0.19987 0,0.19875 -0.0815,0.35888 -0.20025,0.47863 -0.15975,0.0801 -0.36,0.16025 -0.55875,0.16025 -0.23987,0 -0.43975,-0.0801 -0.59987,-0.19888 -0.12013,-0.12112 -0.19988,-0.27987 -0.19988,-0.52012"
       style="fill:#205da9;fill-opacity:1;fill-rule:nonzero;stroke:none"
       id="path264" />
    <path
       inkscape:connector-curvature="0"
       d="m 495.18017,346.73729 0,1.7185 -0.23988,0 0,-1.99738 0.39863,0 0.48012,1.51763 c 0.04,0.04 0.04,0.0786 0.04,0.0786 l 0,0.0811 c 0.04,-0.04 0.04,-0.0811 0.04,-0.0811 0,-0.0386 0,-0.0786 0.0401,-0.0786 l 0.47863,-1.51763 0.40012,0 0,1.99738 -0.24025,0 0,-1.7185 c -0.0397,0.04 -0.0397,0.04 -0.0397,0.08 0,0.0397 0,0.0797 -0.04,0.0797 l -0.51875,1.55875 -0.24025,0 -0.47975,-1.55875 c -0.039,0 -0.039,-0.04 -0.039,-0.0797 0,0 0,-0.04 -0.04,-0.08"
       style="fill:#205da9;fill-opacity:1;fill-rule:nonzero;stroke:none"
       id="path266" />
    <text
       style="font-size:15px"
       y="367.32529"
       x="420.92416"
       id="text268">
      <tspan
         style="font-size:8.37374973px;font-variant:normal;font-weight:900;writing-mode:lr-tb;fill:#205da9;fill-opacity:1;fill-rule:nonzero;stroke:none;font-family:Geometric 415 Black;-inkscape-font-specification:Geometric415BT-BlackA"
         x="420.92416 430.78128 438.9819 448.20154 454.64096 464.32101 473.13193 482.10141 491.3208 501.44366 509.69067 516.13843"
         y="367.32529"
         sodipodi:role="line"
         id="tspan270">UTAH TRANSIT</tspan>
      <tspan
         style="font-size:8.37374973px;font-variant:normal;font-weight:900;writing-mode:lr-tb;fill:#205da9;fill-opacity:1;fill-rule:nonzero;stroke:none;font-family:Geometric 415 Black;-inkscape-font-specification:Geometric415BT-BlackA"
         x="431.1409 433.56094 442.63403 452.49115 461.30191 471.37555 481.6738 490.64328 497.09103 505.9014"
         y="377.36243"
         sodipodi:role="line"
         id="tspan272">AUTHORITY</tspan>
    </text>
    <g
       id="g3010"
       transform="translate(152.25309,858.58968)">
      <g
         transform="matrix(1.25,0,0,-1.25,-501.72661,820.12141)"
         id="g356">
        <path
           inkscape:connector-curvature="0"
           d="m 486.9448,658.7969 -41.0618,11.4647 -41.0624,-11.4647 c -1.9778,-0.5516 -3.7123,-2.8383 -3.7123,-4.8918 l 0,-25.8783 26.3398,0 0,6.8247 12.202,0 0,-3.6187 c 1.8913,-0.5944 4.0519,-0.9182 6.1575,-0.9182 2.1041,0 4.2122,0.2708 6.1554,0.9182 l 0,4.9138 -24.4607,4.6432 0,17.3344 c 5.1834,2.7539 11.6087,4.0504 18.3586,4.0504 6.6424,0 12.9597,-1.2424 18.2528,-4.0504 l 0,-8.909 -12.2046,0 0,3.6173 c -1.8893,0.6483 -3.7253,0.8646 -6.1015,0.8646 -2.2156,0 -4.0507,-0.2163 -6.1033,-0.8646 l 0,-5.237 24.463,-4.6443 0,-14.9244 26.4895,0 0,25.8783 c 0,2.0535 -1.7346,4.3402 -3.712,4.8918"
           style="fill:#b4b8b7;fill-opacity:1;fill-rule:nonzero;stroke:none"
           id="path358" />
        <path
           inkscape:connector-curvature="0"
           d="m 493.0345,620.4949 c 0,-3.1113 -2.4517,-6.3434 -5.4494,-7.181 l -41.7024,-11.6442 -41.7025,11.6442 c -2.9968,0.8376 -5.4499,4.0697 -5.4499,7.181 l 0,33.4102 c 0,3.113 2.4531,6.3448 5.4499,7.1819 l 41.7025,11.6433 41.7024,-11.6433 c 2.9977,-0.8371 5.4494,-4.0689 5.4494,-7.1819 l 0,-33.4102 z m -47.1535,-21.4325 0.005,0 42.3606,11.8811 c 3.9975,1.118 7.2508,5.4031 7.2508,9.5514 l 0,33.4102 c 0,4.1517 -3.2533,8.4368 -7.2508,9.5522 l -42.362,11.8809 -0.002,0 -42.3632,-11.8809 c -3.9992,-1.1154 -7.2516,-5.4005 -7.2516,-9.5522 l 0,-33.4102 c 0,-4.1483 3.2524,-8.4334 7.2516,-9.5514 l 42.3615,-11.8811 z"
           style="fill:#b4b8b7;fill-opacity:1;fill-rule:nonzero;stroke:none"
           id="path360" />
        <path
           inkscape:connector-curvature="0"
           d="m 490.657,628.0268 -26.4897,0 0,14.9244 -24.4636,4.6443 0,5.237 c 2.0532,0.6483 3.8892,0.8646 6.1039,0.8646 2.3762,0 4.2122,-0.2163 6.1015,-0.8646 l 0,-3.6173 12.204,0 0,8.909 c -5.2925,2.808 -11.6095,4.0504 -18.2522,4.0504 -6.7491,0 -13.1752,-1.2965 -18.3595,-4.0504 l 0,-17.3344 24.4619,-4.6432 0,-4.9138 c -1.9435,-0.6474 -4.0516,-0.9182 -6.1557,-0.9182 -2.1065,0 -4.2662,0.3238 -6.1572,0.9182 l 0,3.6187 -12.2023,0 0,-6.8247 -26.3398,0 0,25.8783 c 0,2.0535 1.7354,4.3402 3.7123,4.8918 l 41.0626,11.4647 41.0616,-11.4647 c 1.9769,-0.5516 3.7122,-2.8383 3.7122,-4.8918 l 0,-25.8783 z m -13.2114,-7.8695 -2.0449,0 0,0.9388 -5.1829,0 0,-1.6501 5.8615,0 0,-1.3892 -5.8615,0 0,-1.6838 5.1829,0 0,0.9408 2.0449,0 0,-2.3505 -10.857,0 0,1.4097 1.3008,0 0,4.7231 -1.3008,0 0,1.4114 10.857,0 0,-2.3502 z m -19.2776,0.9388 -1.29,0 0,-6.1328 -3.5532,0 -4.5049,6.0908 0,-4.6811 1.5534,0 0,-1.4097 -4.8764,0 0,1.4097 1.3011,0 0,4.7231 -1.3011,0 0,1.4114 4.8427,0 4.5161,-6.0574 0,4.646 -1.6401,0 0,1.4114 4.9524,0 0,-1.4114 z m -21.416,0 -1.4539,0 0,-4.7231 1.4539,0 0,-1.4097 -5.2376,0 0,1.4097 1.4542,0 0,4.7231 -1.4542,0 0,1.4114 5.2376,0 0,-1.4114 z m -12.9073,-6.1328 -9.6324,0 0,1.4097 1.3008,0 0,4.7231 -1.3008,0 0,1.4114 5.3252,0 0,-1.4114 -1.6957,0 0,-4.7231 3.9589,0 0,2.1319 2.044,0 0,-3.5416 z m 63.741,46.124 -41.7025,11.643 -41.7035,-11.643 c -2.996,-0.8371 -5.4499,-4.0689 -5.4499,-7.1822 l 0,-33.41 c 0,-3.1121 2.4539,-6.3433 5.4499,-7.181 l 41.7035,-11.6441 41.7025,11.6441 c 2.9968,0.8377 5.4482,4.0689 5.4482,7.181 l 0,33.41 c 0,3.1133 -2.4514,6.3451 -5.4482,7.1822"
           style="fill:#0c4765;fill-opacity:1;fill-rule:nonzero;stroke:none"
           id="path362" />
        <path
           inkscape:connector-curvature="0"
           d="m 421.8004,616.3736 -3.9583,0 0,4.7228 1.6954,0 0,1.4111 -5.3255,0 0,-1.4111 1.3017,0 0,-4.7228 -1.3017,0 0,-1.41 9.6327,0 0,3.5416 -2.0443,0 0,-2.1316 z"
           style="fill:#b4b8b7;fill-opacity:1;fill-rule:nonzero;stroke:none"
           id="path364" />
        <path
           inkscape:connector-curvature="0"
           d="m 431.5144,621.0958 1.4542,0 0,-4.7228 -1.4542,0 0,-1.4099 5.2376,0 0,1.4099 -1.4539,0 0,4.7228 1.4539,0 0,1.4117 -5.2376,0 0,-1.4117 z"
           style="fill:#b4b8b7;fill-opacity:1;fill-rule:nonzero;stroke:none"
           id="path366" />
        <path
           inkscape:connector-curvature="0"
           d="m 453.2153,621.0958 1.641,0 0,-4.6457 -4.5164,6.0574 -4.8433,0 0,-1.4117 1.3008,0 0,-4.7228 -1.3008,0 0,-1.4099 4.8762,0 0,1.4099 -1.5526,0 0,4.6803 4.5048,-6.0902 3.5533,0 0,6.1327 1.29,0 0,1.4117 -4.953,0 0,-1.4117 z"
           style="fill:#b4b8b7;fill-opacity:1;fill-rule:nonzero;stroke:none"
           id="path368" />
        <path
           inkscape:connector-curvature="0"
           d="m 466.5886,621.0958 1.3006,0 0,-4.7228 -1.3006,0 0,-1.4099 10.857,0 0,2.3507 -2.0449,0 0,-0.9408 -5.1829,0 0,1.6835 5.8615,0 0,1.3895 -5.8615,0 0,1.6498 5.1829,0 0,-0.9394 2.0449,0 0,2.3511 -10.857,0 0,-1.4117 z"
           style="fill:#b4b8b7;fill-opacity:1;fill-rule:nonzero;stroke:none"
           id="path370" />
      </g>
    </g>
  </g>
</svg>
