<?xml version="1.0" encoding="UTF-8"?>
<!-- Generator: Adobe Illustrator 25.2.1, SVG Export Plug-In . SVG Version: 6.00 Build 0)  -->
<svg version="1.1" id="Layer_1" xmlns="http://www.w3.org/2000/svg" xmlns:xlink="http://www.w3.org/1999/xlink" x="0px" y="0px" viewBox="0 0 400 400" style="enable-background:new 0 0 400 400;" xml:space="preserve">
<style type="text/css">
	.st0{fill:#008AB1;}
	.st1{display:none;}
	.st2{display:inline;fill:#FFFFFF;}
	.st3{fill:#D61B32;}
	.st4{fill:#FFFFFF;}
</style>
<rect x="-7.7" y="-3.2" class="st0" width="413.3" height="409.4"/>
<g class="st1">
	<path class="st2" d="M101.6,64.3c17.4-3.5,52.6-6.1,85.7-6.1c40.4,0,65.2,3.9,86.5,16.5c20.4,10.9,35.2,30.9,35.2,57.4   c0,26.1-15.2,50.4-48.3,62.6v0.9c33.5,9.1,58.3,34.3,58.3,72.2c0,26.5-12.2,47.4-30.4,62.2c-21.3,17-57,26.5-115.2,26.5   c-32.6,0-57-2.2-71.7-4.3V64.3z M167.2,176.4H189c34.8,0,53.5-14.3,53.5-36.1c0-22.2-17-33.9-47-33.9c-14.3,0-22.6,0.9-28.3,1.7   V176.4z M167.2,306.4c6.5,0.9,14.3,0.9,25.7,0.9c30,0,56.5-11.7,56.5-42.2c0-29.6-26.5-41.3-59.6-41.3h-22.6V306.4z"/>
</g>
<rect x="-7.7" y="-3.2" class="st3" width="413.3" height="409.4"/>
<g>
	<path class="st4" d="M99.8,64.3c21.3-3.5,53-6.1,88.3-6.1c43.5,0,73.9,6.5,94.8,23c17.4,13.9,27,34.3,27,61.3   c0,37.4-26.5,63-51.7,72.2v1.3c20.4,8.3,31.7,27.8,39.1,54.8c9.1,33,18.3,71.3,23.9,82.6h-67.8c-4.8-8.7-11.7-32.2-20.4-68.3   c-7.8-36.5-20.4-46.5-47.4-47h-20v115.2H99.8V64.3z M165.4,190.3h26.1c33,0,52.6-16.5,52.6-42.2c0-27-18.3-40.4-48.7-40.9   c-16.1,0-25.2,1.3-30,2.2V190.3z"/>
</g>
</svg>