<?xml version="1.0" encoding="utf-8"?>
<!-- Generator: Adobe Illustrator 25.2.1, SVG Export Plug-In . SVG Version: 6.00 Build 0)  -->
<svg version="1.1" id="Layer_1" xmlns="http://www.w3.org/2000/svg" xmlns:xlink="http://www.w3.org/1999/xlink" x="0px" y="0px"
	 viewBox="0 0 400 400" style="enable-background:new 0 0 400 400;" xml:space="preserve">
<style type="text/css">
	.st0{fill:#07AA4B;}
	.st1{fill:#FFFFFF;}
	.st2{display:none;fill:#DC1A34;}
	.st3{display:none;}
	.st4{display:inline;fill:#FFFFFF;}
</style>
<rect x="-7.7" y="-3.2" class="st0" width="413.3" height="409.4"/>
<g>
	<path class="st1" d="M324.6,339.9c-20.4,7-59.1,16.5-97.8,16.5c-53.5,0-92.2-13.5-119.1-39.6c-27-25.2-41.7-63.5-41.3-106.5
		c0.4-97.4,71.3-153,167.4-153c37.8,0,67,7.4,81.3,14.3l-13.9,53c-16.1-7-36.1-12.6-68.3-12.6c-55.2,0-97,31.3-97,94.8
		c0,60.4,37.8,96.1,92.2,96.1c15.2,0,27.4-1.7,32.6-4.3v-61.3h-45.2v-51.7h109.1V339.9z"/>
</g>
<rect x="-7.7" y="-3.2" class="st2" width="413.3" height="409.4"/>
<g class="st3">
	<path class="st4" d="M99.8,64.3c21.3-3.5,53-6.1,88.3-6.1c43.5,0,73.9,6.5,94.8,23c17.4,13.9,27,34.3,27,61.3
		c0,37.4-26.5,63-51.7,72.2v1.3c20.4,8.3,31.7,27.8,39.1,54.8c9.1,33,18.3,71.3,23.9,82.6h-67.8c-4.8-8.7-11.7-32.2-20.4-68.3
		c-7.8-36.5-20.4-46.5-47.4-47h-20v115.2H99.8V64.3z M165.4,190.3h26.1c33,0,52.6-16.5,52.6-42.2c0-27-18.3-40.4-48.7-40.9
		c-16.1,0-25.2,1.3-30,2.2V190.3z"/>
</g>
</svg>
