<?xml version="1.0" encoding="UTF-8" standalone="no"?>
<!-- Created with Inkscape (http://www.inkscape.org/) -->

<svg
   width="594.0072"
   height="594.04248"
   viewBox="0 0 5.940072 5.9404248"
   version="1.1"
   id="svg1"
   inkscape:version="1.4.2 (ebf0e940, 2025-05-08)"
   sodipodi:docname="WMATA_Silver_New.svg"
   inkscape:export-filename="WMATA_Silver_New.png"
   inkscape:export-xdpi="96"
   inkscape:export-ydpi="96"
   xmlns:inkscape="http://www.inkscape.org/namespaces/inkscape"
   xmlns:sodipodi="http://sodipodi.sourceforge.net/DTD/sodipodi-0.dtd"
   xmlns="http://www.w3.org/2000/svg"
   xmlns:svg="http://www.w3.org/2000/svg">
  <sodipodi:namedview
     id="namedview1"
     pagecolor="#505050"
     bordercolor="#eeeeee"
     borderopacity="1"
     inkscape:showpageshadow="0"
     inkscape:pageopacity="0"
     inkscape:pagecheckerboard="0"
     inkscape:deskcolor="#505050"
     inkscape:document-units="mm"
     inkscape:zoom="0.37059484"
     inkscape:cx="1061.8065"
     inkscape:cy="1184.5821"
     inkscape:window-width="1920"
     inkscape:window-height="1147"
     inkscape:window-x="0"
     inkscape:window-y="25"
     inkscape:window-maximized="1"
     inkscape:current-layer="layer1" />
  <defs
     id="defs1">
    <clipPath
       clipPathUnits="userSpaceOnUse"
       id="clipPath1584">
      <path
         d="M 25,98.744 H 1055 V 1217.558 H 25 Z"
         transform="translate(-400.19251,-1094.3225)"
         id="path1584" />
    </clipPath>
    <clipPath
       clipPathUnits="userSpaceOnUse"
       id="clipPath1586">
      <path
         d="M 25,98.744 H 1055 V 1217.558 H 25 Z"
         transform="translate(-407.01191,-1092.5544)"
         id="path1586" />
    </clipPath>
  </defs>
  <g
     inkscape:label="Layer 1"
     inkscape:groupmode="layer"
     id="layer1"
     transform="translate(1784.8792,1522.1479)">
    <path
       id="path1583"
       d="m 0,0 c 0,4.65 3.769,8.419 8.419,8.419 4.65,0 8.419,-3.769 8.419,-8.419 0,-4.65 -3.769,-8.42 -8.419,-8.42 C 3.769,-8.42 0,-4.65 0,0"
       style="fill:#9d9f9c;fill-opacity:1;fill-rule:evenodd;stroke:none"
       transform="matrix(0.35277776,0,0,-0.35277776,-1784.8792,-1519.1779)"
       clip-path="url(#clipPath1584)" />
    <path
       id="path1585"
       d="m 0,0 c 0.096,-0.185 0.224,-0.335 0.384,-0.45 0.159,-0.115 0.346,-0.2 0.56,-0.256 0.216,-0.055 0.437,-0.083 0.667,-0.083 0.156,0 0.322,0.013 0.501,0.039 0.177,0.026 0.344,0.076 0.5,0.15 0.156,0.074 0.285,0.176 0.389,0.306 C 3.104,-0.165 3.156,0 3.156,0.2 3.156,0.415 3.087,0.589 2.951,0.722 2.813,0.856 2.634,0.967 2.412,1.056 2.189,1.145 1.937,1.223 1.656,1.29 1.374,1.356 1.089,1.43 0.8,1.512 0.504,1.586 0.215,1.676 -0.067,1.784 -0.348,1.891 -0.6,2.031 -0.823,2.201 c -0.222,0.17 -0.402,0.383 -0.539,0.638 -0.137,0.256 -0.205,0.566 -0.205,0.929 0,0.407 0.087,0.761 0.261,1.062 0.174,0.3 0.402,0.55 0.684,0.75 0.281,0.2 0.599,0.348 0.955,0.444 0.356,0.097 0.712,0.145 1.068,0.145 0.414,0 0.812,-0.047 1.194,-0.139 C 2.977,5.937 3.316,5.787 3.612,5.58 3.908,5.372 4.144,5.107 4.318,4.784 4.492,4.463 4.579,4.072 4.579,3.612 H 2.889 C 2.875,3.849 2.825,4.046 2.74,4.201 2.654,4.357 2.541,4.479 2.401,4.568 2.26,4.657 2.098,4.72 1.917,4.757 1.735,4.794 1.537,4.813 1.322,4.813 1.182,4.813 1.041,4.797 0.9,4.768 0.759,4.738 0.631,4.687 0.517,4.613 0.402,4.539 0.307,4.446 0.233,4.334 0.159,4.224 0.122,4.083 0.122,3.912 0.122,3.757 0.152,3.631 0.211,3.534 0.27,3.438 0.387,3.349 0.561,3.268 0.735,3.186 0.976,3.104 1.284,3.023 1.591,2.941 1.993,2.838 2.489,2.712 2.638,2.682 2.843,2.628 3.106,2.551 3.369,2.473 3.63,2.349 3.89,2.179 4.149,2.008 4.373,1.78 4.562,1.495 4.751,1.21 4.846,0.844 4.846,0.401 4.846,0.037 4.775,-0.3 4.634,-0.611 4.494,-0.923 4.284,-1.191 4.007,-1.417 3.729,-1.643 3.384,-1.819 2.973,-1.945 2.562,-2.071 2.086,-2.134 1.545,-2.134 c -0.438,0 -0.861,0.054 -1.273,0.162 -0.411,0.107 -0.774,0.275 -1.089,0.505 -0.315,0.23 -0.565,0.523 -0.75,0.878 -0.185,0.356 -0.274,0.779 -0.267,1.267 h 1.689 C -0.145,0.412 -0.096,0.185 0,0"
       style="fill:#231f20;fill-opacity:1;fill-rule:nonzero;stroke:none"
       transform="matrix(0.35277776,0,0,-0.35277776,-1782.4734,-1518.5542)"
       clip-path="url(#clipPath1586)" />
  </g>
</svg>
