<?xml version="1.0" encoding="utf-8"?>
<!-- Generator: Adobe Illustrator 29.3.1, SVG Export Plug-In . SVG Version: 9.03 Build 55982)  -->
<svg version="1.1" id="Layer_1" xmlns="http://www.w3.org/2000/svg" xmlns:xlink="http://www.w3.org/1999/xlink" x="0px" y="0px"
	 viewBox="0 0 11.7 11.7" style="enable-background:new 0 0 11.7 11.7;" xml:space="preserve">
<style type="text/css">
	.st0{fill:#009AD9;}
	.st1{fill:#FFFFFF;}
</style>
<g id="Blue_Line_Bullet_00000153699115596894835840000000844670074107293068_">
	<g id="Layer_1-2_00000103229080896628993760000004036536144449503159_">
		<g id="Blue_Line_Bullet_00000051380290848044542270000009612248780952241568_">
			<g id="Bullets_00000039133193102231164780000016468183409511022263_">
				<g>
					<path class="st0" d="M0.62,0h10.47c0.34,0,0.62,0.28,0.62,0.62v10.47c0,0.34-0.28,0.62-0.62,0.62H0.62
						C0.28,11.7,0,11.43,0,11.09V0.62C0,0.28,0.28,0,0.62,0z"/>
					<path class="st1" d="M4.06,2.96h2.02c0.75,0,1.87,0.22,1.87,1.48c0,0.69-0.46,1.17-1.15,1.29v0.02
						c0.79,0.08,1.33,0.61,1.33,1.32c0,1.46-1.31,1.67-2.04,1.67H4.06L4.06,2.96L4.06,2.96L4.06,2.96z M5.22,5.29h0.47
						c0.49,0,1.09-0.11,1.09-0.7c0-0.67-0.59-0.72-1.12-0.72H5.22V5.29z M5.22,7.83h0.55c0.54,0,1.19-0.13,1.19-0.8
						c0-0.75-0.61-0.87-1.19-0.87H5.22V7.83z"/>
				</g>
			</g>
		</g>
	</g>
</g>
</svg>
