<?xml version="1.0" encoding="UTF-8"?>
<svg width="98.179mm" height="71.544mm" version="1.1" viewBox="0 0 98.179 71.544" xmlns="http://www.w3.org/2000/svg"><g transform="translate(-45.452 -140.09)"><path d="m107.27 176.16c-5.7027 0-11.663 2.0316-18.743 6.3966-4.5358 2.7949-8.676 4.2106-12.315 4.2106-3.6721 0-7.041-1.5762-9.9418-4.4526l8.6958-14.297c0.38889-0.69658 0.923-1.0563 1.5823-1.0563 0.70547 0.0199 1.3054 0.47615 1.7404 1.4888 0.25716 0.60096 1.5229 3.3011 1.5362 3.3229 0.2506 0.60091 0.5868 0.67581 0.923 0.67581 0.27025 0 0.65277-0.083 0.88338-0.47615l14.801-24.325c0.38889-0.65289 0.94281-1.0335 1.5362-1.0335 0.5868 0 1.2065 0.50533 1.5163 0.99813l19.574 31.235c-3.9886-1.6073-8.2936-2.6846-11.788-2.6846m36.366 32.247-40.901-65.426c-1.1538-1.8402-2.8481-2.8976-4.6413-2.8976-1.8525 0-3.5733 1.1083-4.727 3.0369l-12.79 21.442c-1.0615-2.164-2.8085-3.4476-4.7402-3.4476-1.7404 0-3.3887 1.0646-4.516 2.9194l-25.863 42.51c6.5334 5.7732 17.84 3.2204 34.724-2.9708 12.342-4.5187 23.582-5.8539 35.99-3.7412-11.168 1.4077-24.69 4.6287-35.522 11.796h20.253c10.219-4.871 27.795-9.7417 42.734-3.2204" fill="#B06433" stroke-width="6.9543"/></g></svg>