<?xml version="1.0" encoding="UTF-8"?>
<svg width="360" height="400" version="1.1" xmlns="http://www.w3.org/2000/svg">
 <path d="m338.36 220.88s-1.8768-64.031-49.408-107.81c17.145 4.002 37.378 7.5839 61.512 10.252 0 0-41.081-53.878-100.94-61.71 17.318-7.2628 38.193-18.552 63.044-36.338 0 0-75.691-26.507-113.09 20.553-34.239-46.962-114.13-34.263-114.13-34.263 21.097 27.249 47.603 42.91 70.998 51.927-100.54 2.7916-146.81 81.349-146.81 81.349 59.461-0.64291 103.16-12.031 134.58-25.74-51.679 60.771-38.217 135.3-38.217 135.3 58.128-28.953 84.61-78.803 96.714-119.49 2.9904 53.039-4.1984 168.5-63.561 255.09h91.921c12.154-59.905 28.014-163.51-1.5378-242.86 18.898 25.915 51.729 53.68 108.92 73.74" fill="#04AA4F"/>
</svg>