<?xml version="1.0" encoding="utf-8"?>
<!-- Generator: Adobe Illustrator 29.3.1, SVG Export Plug-In . SVG Version: 9.03 Build 55982)  -->
<svg version="1.1" id="Layer_1" xmlns="http://www.w3.org/2000/svg" xmlns:xlink="http://www.w3.org/1999/xlink" x="0px" y="0px"
	 viewBox="0 0 11.7 11.7" style="enable-background:new 0 0 11.7 11.7;" xml:space="preserve">
<style type="text/css">
	.st0{fill:#B0BDC6;}
	.st1{fill:#231F20;}
</style>
<g id="OAK_Line_Bullet_00000094577493713793473420000004657876635457692347_">
	<g id="Layer_1-2_00000031901059635554764860000010353925203816644224_">
		<g id="OAK_Shuttle_Bullet_00000027587369733761445040000005889196245008747967_">
			<g id="Bullets_00000168830275365251311440000017671540060734740358_">
				<g>
					<path class="st0" d="M0.62,0h10.47c0.34,0,0.62,0.28,0.62,0.62v10.47c0,0.34-0.28,0.62-0.62,0.62H0.62
						C0.28,11.7,0,11.43,0,11.09V0.62C0,0.28,0.28,0,0.62,0z"/>
					<g id="OAK_BART_Destination__00000081640073170216060270000006452941799720219313_">
						<path class="st1" d="M6.12,2.18c0-0.45-0.61-0.44-0.61,0.01v1.65L3.13,5.23v0.63L5.5,5.12v1.26L4.95,6.81v0.5L5.8,7.05
							l0.85,0.26v-0.5L6.1,6.38V5.12l2.35,0.75V5.24L6.12,3.87L6.12,2.18L6.12,2.18L6.12,2.18z"/>
						<path class="st1" d="M3.56,7.76c0.74,0,1.15,0.5,1.15,1.21c0,0.71-0.41,1.22-1.15,1.22s-1.15-0.5-1.15-1.22
							C2.41,8.25,2.81,7.76,3.56,7.76 M3.56,9.82c0.48,0,0.66-0.43,0.66-0.85S4.03,8.13,3.56,8.13S2.9,8.56,2.9,8.97
							C2.9,9.39,3.08,9.82,3.56,9.82"/>
						<path class="st1" d="M5.65,7.81h0.53l0.92,2.35H6.58l-0.2-0.54H5.43l-0.21,0.54H4.73L5.65,7.81z M5.91,8.28L5.91,8.28
							L5.56,9.25h0.69L5.91,8.28L5.91,8.28z"/>
						<polygon class="st1" points="7.35,7.81 7.82,7.81 7.82,8.82 8.67,7.81 9.25,7.81 8.28,8.91 9.29,10.16 8.67,10.16 7.83,9.06 
							7.82,9.06 7.82,10.16 7.35,10.16 						"/>
					</g>
				</g>
			</g>
		</g>
	</g>
</g>
</svg>
