<?xml version="1.0" encoding="utf-8"?>
<!-- Generator: Adobe Illustrator 29.3.1, SVG Export Plug-In . SVG Version: 9.03 Build 55982)  -->
<svg version="1.1" id="Layer_1" xmlns="http://www.w3.org/2000/svg" xmlns:xlink="http://www.w3.org/1999/xlink" x="0px" y="0px"
	 viewBox="0 0 11.7 11.7" style="enable-background:new 0 0 11.7 11.7;" xml:space="preserve">
<style type="text/css">
	.st0{fill:#FAA61A;}
	.st1{fill:#231F20;}
</style>
<g id="Orange_Line_Bullet_00000025431496394249397570000013603022486969679528_">
	<g id="Layer_1-2_00000180327627019136943090000007111795251354306433_">
		<g id="Orange_Line_Bullet_00000133521406582124336160000016848961361530550669_">
			<g id="Bullets_00000094579230057821428460000011688827559548254872_">
				<g>
					<path class="st0" d="M0.62,0h10.47c0.34,0,0.62,0.28,0.62,0.62v10.47c0,0.34-0.28,0.62-0.62,0.62H0.62
						C0.28,11.7,0,11.43,0,11.09V0.62C0,0.28,0.28,0,0.62,0z"/>
					<path class="st1" d="M5.85,2.86c1.82,0,2.83,1.23,2.83,2.98s-1,3.01-2.83,3.01S3.02,7.61,3.02,5.83S4.01,2.86,5.85,2.86z
						 M5.85,7.93c1.19,0,1.62-1.05,1.62-2.1S7,3.77,5.85,3.77S4.23,4.82,4.23,5.84S4.67,7.93,5.85,7.93z"/>
				</g>
			</g>
		</g>
	</g>
</g>
</svg>
