<?xml version="1.0" encoding="utf-8"?>
<!-- Generator: Adobe Illustrator 29.3.1, SVG Export Plug-In . SVG Version: 9.03 Build 55982)  -->
<svg version="1.1" id="Layer_1" xmlns="http://www.w3.org/2000/svg" xmlns:xlink="http://www.w3.org/1999/xlink" x="0px" y="0px"
	 viewBox="0 0 11.7 11.7" style="enable-background:new 0 0 11.7 11.7;" xml:space="preserve">
<style type="text/css">
	.st0{fill:#ED1C24;}
	.st1{fill:#FFFFFF;}
</style>
<g id="Red_Line_Bullet_00000033347659975580109930000011229409326484594850_">
	<g id="Layer_1-2_00000008129170775122977980000014498349460844588465_">
		<g id="Red_Line_Bullet_00000175284852602877678350000010828210422019017350_">
			<g id="Bullets_00000179637422482110329260000017042559610432976052_">
				<g>
					<path class="st0" d="M0.62,0h10.47c0.34,0,0.62,0.28,0.62,0.62v10.47c0,0.34-0.28,0.62-0.62,0.62H0.62
						C0.28,11.7,0,11.43,0,11.09V0.62C0,0.28,0.28,0,0.62,0z"/>
					<path class="st1" d="M3.9,2.96h1.25c1.24,0,2.73-0.04,2.73,1.57c0,0.68-0.46,1.24-1.19,1.34v0.02C7,5.91,7.18,6.22,7.3,6.48
						l0.93,2.26H6.93l-0.7-1.81c-0.17-0.43-0.31-0.6-0.8-0.6H5.06v2.4H3.9V2.96L3.9,2.96z M5.06,5.43h0.38
						c0.57,0,1.23-0.08,1.23-0.8S6.02,3.87,5.44,3.87H5.06V5.43z"/>
				</g>
			</g>
		</g>
	</g>
</g>
</svg>
