<?xml version="1.0" encoding="UTF-8" standalone="no"?>
<!DOCTYPE svg PUBLIC "-//W3C//DTD SVG 1.1//EN" "http://www.w3.org/Graphics/SVG/1.1/DTD/svg11.dtd">
<svg width="100%" height="100%" viewBox="0 0 493 493" version="1.1" xmlns="http://www.w3.org/2000/svg" xmlns:xlink="http://www.w3.org/1999/xlink" xml:space="preserve" xmlns:serif="http://www.serif.com/" style="fill-rule:evenodd;clip-rule:evenodd;stroke-linejoin:round;stroke-miterlimit:2;">
    <g transform="matrix(0,-8.33333,-8.33333,0,246.517,-0.025)">
        <path d="M-29.582,-29.578C-45.915,-29.578 -59.157,-16.327 -59.157,0.005C-59.157,16.341 -45.915,29.582 -29.582,29.582C-13.24,29.582 -0.003,16.341 -0.003,0.005C-0.003,-16.327 -13.24,-29.578 -29.582,-29.578" style="fill:rgb(160,206,103);fill-rule:nonzero;"/>
    </g>
    <g transform="matrix(8.33333,0,0,8.33333,329.333,132.277)">
        <path d="M0,27.407C-2.729,30.93 -6.304,32.271 -9.73,32.271C-20.702,32.271 -27.157,24.08 -27.157,13.852C-27.157,3.329 -20.702,-4.864 -9.73,-4.864C-2.481,-4.864 4.369,-0.395 5.214,7.647L-2.234,7.647C-3.127,3.726 -6.056,1.689 -9.73,1.689C-16.73,1.689 -19.361,7.647 -19.361,13.852C-19.361,19.761 -16.73,25.719 -9.73,25.719C-4.666,25.719 -1.738,22.987 -1.29,18.073L-9.135,18.073L-9.135,12.264L5.759,12.264L5.759,31.428L0.794,31.428L0,27.407Z" style="fill:white;fill-rule:nonzero;"/>
    </g>
</svg>
