<?xml version="1.0" encoding="UTF-8" standalone="no"?>
<!DOCTYPE svg PUBLIC "-//W3C//DTD SVG 1.1//EN" "http://www.w3.org/Graphics/SVG/1.1/DTD/svg11.dtd">
<svg width="100%" height="100%" viewBox="0 0 493 493" version="1.1" xmlns="http://www.w3.org/2000/svg" xmlns:xlink="http://www.w3.org/1999/xlink" xml:space="preserve" xmlns:serif="http://www.serif.com/" style="fill-rule:evenodd;clip-rule:evenodd;stroke-linejoin:round;stroke-miterlimit:2;">
    <g transform="matrix(0,-8.33333,-8.33333,0,246.513,-0.0208333)">
        <path d="M-29.582,-29.579C-45.915,-29.579 -59.158,-16.328 -59.158,0.004C-59.158,16.34 -45.915,29.582 -29.582,29.582C-13.24,29.582 -0.003,16.34 -0.003,0.004C-0.003,-16.328 -13.24,-29.579 -29.582,-29.579" style="fill:rgb(48,181,230);fill-rule:nonzero;"/>
    </g>
    <g transform="matrix(8.33333,0,0,8.33333,200.398,149.259)">
        <path d="M0,23.333L8.34,23.333C11.419,23.333 14.101,22.339 14.101,18.666C14.101,15.042 11.816,13.602 8.49,13.602L0,13.602L0,23.333ZM0,8.29L7.894,8.29C10.625,8.29 12.66,7.05 12.66,4.069C12.66,0.694 10.078,-0.001 7.298,-0.001L0,-0.001L0,8.29ZM-7.794,-6.057L8.887,-6.057C15.639,-6.057 20.206,-3.874 20.206,2.729C20.206,6.206 18.469,8.638 15.391,10.126C19.71,11.369 21.895,14.694 21.895,19.112C21.895,26.311 15.788,29.39 9.384,29.39L-7.794,29.39L-7.794,-6.057Z" style="fill:white;fill-rule:nonzero;"/>
    </g>
</svg>
