<?xml version="1.0" encoding="UTF-8" standalone="no"?>
<!DOCTYPE svg PUBLIC "-//W3C//DTD SVG 1.1//EN" "http://www.w3.org/Graphics/SVG/1.1/DTD/svg11.dtd">
<svg width="100%" height="100%" viewBox="0 0 493 493" version="1.1" xmlns="http://www.w3.org/2000/svg" xmlns:xlink="http://www.w3.org/1999/xlink" xml:space="preserve" xmlns:serif="http://www.serif.com/" style="fill-rule:evenodd;clip-rule:evenodd;stroke-linejoin:round;stroke-miterlimit:2;">
    <g transform="matrix(0,-8.33333,-8.33333,0,246.517,-0.025)">
        <path d="M-29.582,-29.578C-45.915,-29.578 -59.157,-16.327 -59.157,0.005C-59.157,16.341 -45.915,29.582 -29.582,29.582C-13.24,29.582 -0.003,16.341 -0.003,0.005C-0.003,-16.327 -13.24,-29.578 -29.582,-29.578" style="fill:rgb(248,152,40);fill-rule:nonzero;"/>
    </g>
    <g transform="matrix(8.33333,0,0,8.33333,246.5,146.356)">
        <path d="M0,24.029C7.001,24.029 9.632,18.071 9.632,12.164C9.632,5.958 7.001,0 0,0C-7,0 -9.631,5.958 -9.631,12.164C-9.631,18.071 -7,24.029 0,24.029M0,-6.553C10.973,-6.553 17.426,1.638 17.426,12.164C17.426,22.39 10.973,30.582 0,30.582C-10.971,30.582 -17.426,22.39 -17.426,12.164C-17.426,1.638 -10.971,-6.553 0,-6.553" style="fill:white;fill-rule:nonzero;"/>
    </g>
</svg>
