<svg xmlns="http://www.w3.org/2000/svg" width="500" height="500"><path fill="#5a960a" d="M0 0h500v500H0z"/><path fill="#fff" d="M253.254 119.647H38.308v44.079h80.185v216.205h54.576V163.728h80.185v-44.081zm92.148 219.212h112.779v41.073H278.232v-35.265l100.127-107.263c7.346-10.075 20.15-24.561 19.102-44.081s-10.277-35.253-34.845-35.265c-25.609-.012-38.833 24.14-37.153 43.87h-52.688s-1.68-45.97 39.662-71.735c13.203-8.229 30.107-14.122 54.377-13.696 83.543 1.47 83.188 64.652 83.123 70.949-.209 20.36-5.989 41.546-24.979 65.28-22.669 28.34-79.556 86.133-79.556 86.133h0z"/></svg>