<svg xmlns="http://www.w3.org/2000/svg" width="500" height="500"><path fill="#f26100" d="M0 0h500v500H0z"/><path fill="#fff" d="M203.942 246.555s37.646-11.209 37.646-55.226c0-76.55-94.8-70.811-94.8-70.811H52.263v259.725h102.493s92.877 4.938 92.877-75.455c0-51.125-43.691-58.233-43.691-58.233zm-97.548-82.565h40.531c3.984 0 40.531-1.905 40.531 32.676s-40.119 32.677-40.119 32.677h-40.942l-.001-65.353h0zm86.831 138.288c0 36.909-38.194 35.044-38.194 35.044h-48.637v-69.989h46.164s40.342-3.711 40.668 33.537l-.001 1.408h0zm148.4 36.581h112.779v41.073H274.455v-35.265l100.126-107.263c7.346-10.075 20.151-24.561 19.103-44.081s-10.277-35.253-34.846-35.265c-25.609-.012-38.833 24.14-37.152 43.87h-52.688s-1.68-45.97 39.661-71.735c13.204-8.229 30.108-14.122 54.377-13.696 83.543 1.47 83.188 64.652 83.124 70.949-.209 20.36-5.99 41.546-24.979 65.28-22.671 28.34-79.556 86.133-79.556 86.133h0z"/></svg>