<svg xmlns="http://www.w3.org/2000/svg" width="500" height="500"><path fill="#f26100" d="M0 0h500v500H0z"/><path fill="#fff" d="M202.072 246.654s37.646-11.209 37.646-55.226c0-76.55-94.8-70.811-94.8-70.811H50.393v259.725h102.494s92.877 4.938 92.877-75.455c-.001-51.124-43.692-58.233-43.692-58.233zm-97.547-82.564h40.531c3.984 0 40.531-1.905 40.531 32.676s-40.118 32.677-40.118 32.677h-40.943l-.001-65.353h0zm86.83 138.288c0 36.909-38.195 35.044-38.195 35.044h-48.635v-69.989h46.164s40.342-3.711 40.668 33.537l-.002 1.408h0zm79.131-115.041h52.058s.629-28.968 36.522-28.968 34.216 33.796 34.216 33.796 2.31 33.375-35.685 35.055h-30.855v40.512h25.607s44.92-4.406 44.92 36.945-39.253 37.362-39.253 37.362-38.202-1.05-38.413-33.375h-52.057s-4.618 73.048 89.001 74.937c29.255.591 48.678-6.725 62.421-16.308 30.236-21.081 30.568-55.544 30.568-57.999 0-3.568 3.776-46.81-43.661-62.764 0 0 40.302-16.373 39.463-56.885s-24.35-71.998-87.952-73.258c-15.867-.314-29.24 2.771-40.371 7.084-33.484 12.976-46.689 42.127-46.529 63.866z"/></svg>