<svg xmlns="http://www.w3.org/2000/svg" width="500" height="500"><path fill="#f26100" d="M0 0h500v500H0z"/><path fill="#fff" d="M218.426 244.351s37.645-11.209 37.645-55.226c0-76.55-94.798-70.81-94.798-70.81H66.746v259.724h102.493s92.878 4.938 92.878-75.455c0-51.125-43.691-58.233-43.691-58.233h0zm-97.548-82.565h40.53c3.984 0 40.531-1.905 40.531 32.676s-40.118 32.677-40.118 32.677h-40.942l-.001-65.353h0zm86.831 138.288c0 36.909-38.194 35.044-38.194 35.044h-48.637v-69.989h46.163s40.343-3.711 40.668 33.537v1.408h0zm93.709-101.659v-42.191l108.572-38.266h5.49v260.067h-51.729V179.211l-62.333 19.204z"/></svg>