<svg xmlns="http://www.w3.org/2000/svg" width="500" height="500"><path fill="#e5427b" d="M0 0h500v500H0z"/><path fill="#fffffe" d="M247.227 243.124c-1.375-100.355-80.579-124.146-123.48-122.231-5.773.258-77.004 0-77.004 0V380.67h77.004c21.741 0 60.423-3.5 89.277-32.637 16.769-16.934 31.677-42.523 34.204-81.118.442-6.755.092-17.022-.001-23.791h0zm-116.883 94.614h-29.558V164.329h27.348c11.277 0 44.028 1.139 58.025 38.345 5.651 15.022 6.145 28.464 6.615 49.867 1.934 88.211-62.43 85.197-62.43 85.197h0z"/><path fill="#fff" d="M347.584 339.435h112.874v41.108H280.357v-35.295l100.211-107.354c7.353-10.084 20.168-24.579 19.117-44.117s-10.287-35.282-34.873-35.294c-25.631-.013-38.865 24.159-37.186 43.907h-52.732s-1.68-46.009 39.695-71.797c13.215-8.235 30.135-14.135 54.424-13.708 83.612 1.472 83.257 64.706 83.192 71.009-.21 20.379-5.996 41.581-25 65.338-22.686 28.361-79.621 86.203-79.621 86.203h0z"/></svg>