<svg xmlns="http://www.w3.org/2000/svg" width="500" height="500"><path fill="#e5427b" d="M0 0h500v500H0z"/><path fill="#fffffe" d="M272.618 242.564c-1.386-101.163-81.227-125.146-124.474-123.215-5.819.26-77.624 0-77.624 0v261.868h77.624c21.917 0 60.91-3.527 89.996-32.899 16.904-17.068 31.932-42.865 34.479-81.771.444-6.808.092-17.159-.001-23.983zM154.794 337.94h-29.795V163.136h27.568c11.368 0 44.382 1.148 58.492 38.653 5.697 15.143 6.194 28.693 6.668 50.269 1.949 88.921-62.933 85.882-62.933 85.882h0zm219.252-157.058v200.336h52.469v-262.17h-5.931l-109.275 38.804v42.17l62.737-19.14z"/></svg>