<svg xmlns="http://www.w3.org/2000/svg" width="500" height="500"><path fill="#5a960a" d="M0 0h500v500H0z"/><path fill="#fff" d="M250.734 119.647H35.789v44.079h80.185v216.205h54.576V163.728h80.185v-44.081zm20.993 67.59h52.057s.63-28.968 36.523-28.968 34.215 33.796 34.215 33.796 2.311 33.375-35.684 35.055h-30.855v40.512h25.607s44.921-4.407 44.921 36.944-39.253 37.363-39.253 37.363-38.203-1.051-38.412-33.375h-52.058s-4.618 73.048 89 74.937c29.256.591 48.678-6.726 62.421-16.308 30.236-21.081 30.568-55.545 30.568-57.999 0-3.569 3.777-46.811-43.661-62.764 0 0 40.302-16.373 39.463-56.885s-24.351-71.998-87.952-73.258c-15.868-.314-29.24 2.771-40.372 7.084-33.484 12.977-46.689 42.127-46.528 63.866z"/></svg>