<svg xmlns="http://www.w3.org/2000/svg" width="500" height="500"><path fill="#e5427b" d="M0 0h500v500H0z"/><path fill="#fffffe" d="M350.939 242.564c-1.387-101.163-81.229-125.146-124.475-123.215-5.819.26-77.624 0-77.624 0v261.868h77.624c21.917 0 60.91-3.527 89.996-32.899 16.904-17.068 31.932-42.865 34.479-81.771.445-6.808.093-17.159 0-23.983zM233.115 337.94H203.32V163.136h27.568c11.368 0 44.381 1.148 58.492 38.653 5.697 15.143 6.194 28.693 6.668 50.269 1.949 88.921-62.933 85.882-62.933 85.882h0z"/></svg>