<svg xmlns="http://www.w3.org/2000/svg" width="500" height="500"><path fill="#fcd602" d="M0 0h500v500H0z"/><path fill="#1a1919" d="M260.645 339.88c-61.121-.28-63.362-57.392-63.101-96.843.269-39.527 9.343-84.332 56.875-84.987 48.538-.667 49.799 43.481 49.799 43.481h52.914c-3.962-38.964-27.163-86.692-103.563-86.682-73.675.015-94.672 50.904-102.713 71.783-9.47 24.589-11.252 88.589-1.348 119.083 9.659 29.74 34.82 77.084 106.377 77.076 74.4-.01 101.247-36.421 101.247-36.421V242.188H253.57v39.529h49.234v44.894c.001-.001-10.745 13.533-42.159 13.269h0z"/></svg>