<svg xmlns="http://www.w3.org/2000/svg" width="500" height="500"><path fill="#5a960a" d="M0 0h500v500H0z"/><path fill="#fff" d="M258.921 119.647H43.975v44.079h80.185v216.205h54.576V163.728h80.185v-44.081zm66.961 142.842l-41.877-10.075 15.849-132.767H446.79v43.659H342.254l-6.611 56.047s11.965-10.076 41.562-10.076 78.085 13.854 78.085 89.735-69.898 84.697-83.438 84.697c-3.176 0-7.299.786-18.861-.843-28.565-4.027-71.787-20.216-75.598-75.354h51.953s.943 34.319 36.995 34.319 36.996-40.932 36.996-46.284 1.837-43.217-37.782-47.229c-24.875-2.516-39.673 14.171-39.673 14.171z"/></svg>