<svg xmlns="http://www.w3.org/2000/svg" viewBox="0 0 50 50">
  <path fill="#774111" d="M47.08 50H2.92A2.92 2.92 0 0 1 0 47.08V2.92C0 1.3 1.3 0 2.92 0h44.16C48.7 0 50 1.3 50 2.92v44.16C50 48.7 48.7 50 47.08 50"/>
  <g fill="#fff">
    <path d="M24.48 29.34q0 3.25-2.1 4.78-2.1 1.53-5.52 1.53-4.36 0-8.03-2.47l1.82-2.97q3.27 2.19 6.02 2.19 3.8 0 3.8-2.75 0-.53-.28-.97-.25-.43-.59-.71-.3-.32-.98-.63-.65-.31-1.15-.47-.46-.18-1.38-.46l-1.36-.47q-1.18-.4-2-.85-.81-.43-1.65-1.12-.8-.69-1.23-1.72-.4-1.03-.4-2.34 0-1.56.62-2.68.61-1.16 1.66-1.78 1.08-.63 2.32-.91 1.26-.31 2.71-.31 3.52 0 6.92 1.84l-1.45 3.18q-2.75-1.71-5.22-1.71-3.43 0-3.43 2.25 0 .43.13.78.15.34.52.65l.65.5q.28.16.99.44l.99.34 1.23.38q.93.28 1.51.53.6.22 1.42.62.87.38 1.4.85.52.43 1.04 1.09.53.62.77 1.5.25.84.25 1.87ZM41.8 18.04h-5.84v17.3h-4.1v-17.3h-5.8V14.5H41.8Z"/>
  </g>
</svg>
