<svg xmlns="http://www.w3.org/2000/svg" width="494" height="494">
<circle fill="#F87005" r="247" cx="247" cy="247"/>
<path fill="#FFFFFF" d="M192.3,121.7c44.1-0.1,88.2,0,132.3,0c0.1,14.7,0,29.5,0,44.2c-33.8,0-67.6,0-101.5,0  c-2.7,16.8-5.6,33.6-8.5,50.4c8.8-5.4,18.1-10.5,28.3-12.4c16.6-2.7,34.3-2.2,49.5,5.7c18.6,9.7,31.9,27.8,38,47.6  c5.1,17.4,5.7,36,2,53.7c-4.3,20.2-16.3,38.5-32.8,50.9c-15.5,11.9-35.3,17.6-54.8,17.1c-19.9,0.4-40-5.9-55.7-18.1  c-10.6-8.1-19.9-18.7-24.1-31.6c-2.5-7.5-3-15.6-2.2-23.5c16,0,32.1,0,48.1,0c1.6,10.4,4.7,22.5,14.9,27.6c9,4.1,19.4,4.6,29,2.7  c9.2-1.8,17.5-7.6,22.3-15.7c7.2-11.7,7.8-26,6.7-39.3c-1.1-10.5-3.8-21.7-11.5-29.5c-6.7-7.1-16.9-9.9-26.5-9.7  c-8.1-0.1-16.3,2.5-22.5,7.8c-3.5,2.9-6,6.9-8.4,10.8c-15.1,0-30.2,0-45.3,0C177.3,214.1,184.9,167.9,192.3,121.7z"/>
</svg>