<svg xmlns="http://www.w3.org/2000/svg" width="494" height="494">
<circle r="247" cx="247" cy="247" fill="#00A4E3"/>
<path fill="#FFFFFF" d="M195,130c14.9-10.1,33.1-14.4,51-13.9c20.6-0.2,42.3,4.8,58.1,18.8c11.9,10.1,18.5,25.3,19.6,40.7  c0.7,13,0.1,26.8-6.5,38.4c-5.5,8.6-12.9,15.9-20.3,22.9c15.3,9.9,28.2,24.5,32.7,42.4c4,16.3,3.1,33.9-2.5,49.7  c-6.3,17.7-20.2,32.1-37,40.1c-16.2,7.9-34.6,10.1-52.5,9.3c-17.5-0.9-35.1-6.2-49-17.2c-12.1-9.2-20.7-22.6-24.6-37.3  c-2.6-8.8-3.1-17.9-3.5-27c16,0,32,0,48,0c-0.8,9.1,0.7,18.8,6.1,26.4c7.8,11.1,21.9,16.6,35.2,15.8c7.2-0.5,13.6-4.7,18.4-9.9  c6.4-7.1,11.2-15.8,12.6-25.4c1.2-8.5,0.3-17.5-4.1-25c-4.5-7.9-12.3-13.2-20.6-16.3c-9.5-3.5-19.8-4.2-29.9-4c0-11.2,0-22.4,0-33.6  c12.3,0.4,25.5-0.7,36.1-7.7c8.2-5.3,12.7-14.9,13.5-24.4c0.9-9.7-0.2-20.5-6.9-28.1c-6.4-7.3-16.7-9.5-26.1-9.6  c-9.1-0.3-19.4,1.8-24.8,9.8c-6.8,10.2-7.7,22.9-8.5,34.8c-15.1,0-30.2,0-45.3,0c-0.9-11.1-0.8-22.4,2.5-33.1  C171.5,151.7,181.9,138.7,195,130z"/>
</svg>