<?xml version="1.0" encoding="UTF-8" standalone="no"?>
<!DOCTYPE svg PUBLIC "-//W3C//DTD SVG 1.1//EN" "http://www.w3.org/Graphics/SVG/1.1/DTD/svg11.dtd">
<svg width="100%" height="100%" viewBox="0 0 149 149" version="1.1" xmlns="http://www.w3.org/2000/svg" xmlns:xlink="http://www.w3.org/1999/xlink" xml:space="preserve" xmlns:serif="http://www.serif.com/" style="fill-rule:evenodd;clip-rule:evenodd;stroke-linejoin:round;stroke-miterlimit:2;">
    <g transform="matrix(0,-4.16667,-4.16667,0,74.3542,0)">
        <path d="M-17.845,-17.845C-27.7,-17.845 -35.69,-9.855 -35.69,-0C-35.69,9.856 -27.7,17.845 -17.845,17.845C-7.99,17.845 -0,9.856 -0,-0C-0,-9.855 -7.99,-17.845 -17.845,-17.845" style="fill:rgb(0,121,64);fill-rule:nonzero;"/>
    </g>
    <g transform="matrix(4.16667,0,0,4.16667,74.8854,56.1383)">
        <path d="M0,8.744C0.703,8.744 1.332,8.624 1.887,8.382C2.443,8.142 2.909,7.824 3.289,7.425C3.668,7.026 3.96,6.564 4.163,6.037C4.366,5.51 4.469,4.951 4.469,4.358C4.469,3.729 4.376,3.15 4.191,2.623C4.006,2.094 3.733,1.638 3.372,1.248C3.011,0.86 2.548,0.555 1.984,0.333C1.42,0.11 0.768,0 0.027,0L-2.666,0L-2.666,8.744L0,8.744ZM-8.273,13.63L-8.273,-4.886L0,-4.886C1.461,-4.886 2.812,-4.683 4.053,-4.276C5.292,-3.867 6.366,-3.271 7.273,-2.485C8.18,-1.699 8.887,-0.731 9.396,0.416C9.905,1.564 10.159,2.877 10.159,4.358C10.159,5.84 9.905,7.152 9.396,8.298C8.887,9.447 8.18,10.419 7.273,11.215C6.366,12.011 5.292,12.61 4.053,13.02C2.812,13.426 1.47,13.63 0.027,13.63L-8.273,13.63Z" style="fill:white;fill-rule:nonzero;"/>
    </g>
</svg>
