<?xml version="1.0" encoding="UTF-8" standalone="no"?>
<!DOCTYPE svg PUBLIC "-//W3C//DTD SVG 1.1//EN" "http://www.w3.org/Graphics/SVG/1.1/DTD/svg11.dtd">
<svg width="100%" height="100%" viewBox="0 0 149 149" version="1.1" xmlns="http://www.w3.org/2000/svg" xmlns:xlink="http://www.w3.org/1999/xlink" xml:space="preserve" xmlns:serif="http://www.serif.com/" style="fill-rule:evenodd;clip-rule:evenodd;stroke-linejoin:round;stroke-miterlimit:2;">
    <g transform="matrix(0,-4.16667,-4.16667,0,74.3542,0)">
        <path d="M-17.845,-17.845C-27.7,-17.845 -35.69,-9.855 -35.69,-0C-35.69,9.855 -27.7,17.845 -17.845,17.845C-7.99,17.845 -0,9.855 -0,-0C-0,-9.855 -7.99,-17.845 -17.845,-17.845" style="fill:rgb(0,146,179);fill-rule:nonzero;"/>
    </g>
    <g transform="matrix(4.16667,0,0,4.16667,84.2992,35.7817)">
        <path d="M0,18.515L-2.386,8.022L-4.774,18.515L-10.66,18.515L-15.962,0L-9.687,0L-7.3,11.325L-4.497,0L-0.277,0L2.526,11.325L4.886,0L11.187,0L5.886,18.515L0,18.515Z" style="fill:white;fill-rule:nonzero;"/>
    </g>
</svg>
