<?xml version="1.0" encoding="UTF-8" standalone="no"?>
<!DOCTYPE svg PUBLIC "-//W3C//DTD SVG 1.1//EN" "http://www.w3.org/Graphics/SVG/1.1/DTD/svg11.dtd">
<svg width="100%" height="100%" viewBox="0 0 149 149" version="1.1" xmlns="http://www.w3.org/2000/svg" xmlns:xlink="http://www.w3.org/1999/xlink" xml:space="preserve" xmlns:serif="http://www.serif.com/" style="fill-rule:evenodd;clip-rule:evenodd;stroke-linejoin:round;stroke-miterlimit:2;">
    <g transform="matrix(0,-4.16667,-4.16667,0,74.3542,0)">
        <path d="M-17.845,-17.845C-27.701,-17.845 -35.69,-9.855 -35.69,-0C-35.69,9.855 -27.701,17.845 -17.845,17.845C-7.99,17.845 -0,9.855 -0,-0C-0,-9.855 -7.99,-17.845 -17.845,-17.845" style="fill:rgb(191,212,47);fill-rule:nonzero;"/>
    </g>
    <g transform="matrix(4.16667,0,0,4.16667,77.4213,80.4329)">
        <path d="M0,-2.917C0.482,-2.917 0.906,-3.031 1.277,-3.264C1.647,-3.494 1.832,-3.87 1.832,-4.388C1.832,-4.888 1.647,-5.252 1.277,-5.484C0.906,-5.715 0.482,-5.831 0,-5.831L-3.414,-5.831L-3.414,-2.917L0,-2.917ZM1.166,7.799L-1.388,1.969L-3.414,1.969L-3.414,7.799L-9.022,7.799L-9.022,-10.716L0.861,-10.716C1.934,-10.716 2.887,-10.55 3.72,-10.217C4.553,-9.884 5.25,-9.425 5.815,-8.842C6.379,-8.259 6.805,-7.584 7.092,-6.817C7.379,-6.048 7.523,-5.229 7.523,-4.36C7.523,-3.563 7.417,-2.857 7.203,-2.236C6.99,-1.615 6.722,-1.079 6.399,-0.626C6.075,-0.174 5.718,0.206 5.33,0.512C4.94,0.816 4.561,1.062 4.191,1.248L7.55,7.799L1.166,7.799Z" style="fill:white;fill-rule:nonzero;"/>
    </g>
</svg>
