<?xml version="1.0" encoding="UTF-8" standalone="no"?>
<!DOCTYPE svg PUBLIC "-//W3C//DTD SVG 1.1//EN" "http://www.w3.org/Graphics/SVG/1.1/DTD/svg11.dtd">
<svg width="100%" height="100%" viewBox="0 0 149 149" version="1.1" xmlns="http://www.w3.org/2000/svg" xmlns:xlink="http://www.w3.org/1999/xlink" xml:space="preserve" xmlns:serif="http://www.serif.com/" style="fill-rule:evenodd;clip-rule:evenodd;stroke-linejoin:round;stroke-miterlimit:2;">
    <g transform="matrix(0,-4.16667,-4.16667,0,74.3542,0)">
        <path d="M-17.845,-17.845C-27.7,-17.845 -35.69,-9.855 -35.69,-0C-35.69,9.855 -27.7,17.845 -17.845,17.845C-7.99,17.845 -0,9.855 -0,-0C-0,-9.855 -7.99,-17.845 -17.845,-17.845" style="fill:rgb(244,177,32);fill-rule:nonzero;"/>
    </g>
    <g transform="matrix(4.16667,0,0,4.16667,77.9396,34.4504)">
        <path d="M0,19.154C-1.407,19.154 -2.725,18.931 -3.956,18.488C-5.186,18.044 -6.265,17.409 -7.19,16.587C-8.115,15.763 -8.846,14.759 -9.383,13.574C-9.92,12.39 -10.188,11.058 -10.188,9.577C-10.188,8.098 -9.92,6.763 -9.383,5.581C-8.846,4.396 -8.115,3.392 -7.19,2.568C-6.265,1.744 -5.186,1.111 -3.956,0.666C-2.725,0.222 -1.407,0 0,0C1.11,0 2.1,0.139 2.97,0.417C3.839,0.695 4.607,1.059 5.273,1.514C5.94,1.967 6.509,2.484 6.981,3.067C7.453,3.65 7.838,4.239 8.133,4.831L3.414,7.245C3.284,6.969 3.113,6.69 2.9,6.413C2.688,6.134 2.433,5.884 2.137,5.664C1.841,5.441 1.512,5.265 1.152,5.135C0.791,5.007 0.407,4.941 0,4.941C-0.666,4.941 -1.277,5.061 -1.833,5.301C-2.387,5.543 -2.864,5.871 -3.262,6.287C-3.66,6.704 -3.966,7.195 -4.177,7.758C-4.391,8.324 -4.497,8.93 -4.497,9.577C-4.497,10.226 -4.391,10.832 -4.177,11.395C-3.966,11.961 -3.66,12.451 -3.262,12.867C-2.864,13.283 -2.387,13.612 -1.833,13.852C-1.277,14.092 -0.666,14.213 0,14.213C0.536,14.213 1.078,14.13 1.623,13.963C2.17,13.796 2.591,13.602 2.887,13.38L2.887,12.714L-0.556,12.714L-0.556,7.828L8.466,7.828L8.466,15.407C7.43,16.553 6.217,17.465 4.83,18.141C3.442,18.817 1.832,19.154 0,19.154" style="fill:white;fill-rule:nonzero;"/>
    </g>
</svg>
