<?xml version="1.0" encoding="utf-8"?>
<!-- Generator: Adobe Illustrator 15.0.2, SVG Export Plug-In . SVG Version: 6.00 Build 0)  -->
<!DOCTYPE svg PUBLIC "-//W3C//DTD SVG 1.1//EN" "http://www.w3.org/Graphics/SVG/1.1/DTD/svg11.dtd">
<svg version="1.1" id="Layer_1" xmlns="http://www.w3.org/2000/svg" xmlns:xlink="http://www.w3.org/1999/xlink" x="0px" y="0px"
	 width="88.082px" height="57.729px" viewBox="0 0 88.082 57.729" enable-background="new 0 0 88.082 57.729" xml:space="preserve">
<path fill="#A2D5AE" d="M-0.155,30.226c0.311,0.155,3.103-1.556,4.651-1.978c0.714-0.206,1.713-0.536,1.91-0.282
	c0.361,0.42-0.463,0.497-1.042,0.89c-0.583,0.411-0.635,0.286-0.987,0.761c-0.357,0.481-0.298,0.929,0.299,0.62
	c0.592-0.299,1.806-0.875,2.452-1.056c1.342-0.397,1.776-0.625,2.028-0.215c0.228,0.375-0.559,0.494-0.893,0.721
	c-0.614,0.407-0.588,1.23,0.124,0.813c0.578-0.334,1.906-0.718,2.164-0.544c0.242,0.188,0.294,0.384,0.022,0.564
	c-0.473,0.325-0.152,0.743,0.064,0.682c0.516-0.157,0.701-0.53,1.315-0.966c0.896-0.644,0.725-0.691,2.414-2.098
	c0.482-0.398,1.072-0.541,1.746-0.541c0.63,0,1.233,0.209,1.328,0.377c0.208,0.438-0.425,2.332,0.84,4.445
	c1.269,2.104,4.006,4.211,6.324,5.38c2.321,1.159,2.536,0.833,3.793,1.999c1.271,1.161,2.646,3.688,3.271,5.278
	c0.633,1.57,1.158,2.738,2.54,3.271c1.366,0.521,5.899,1.576,7.901,1.896c2.002,0.319,2.03,0.897,2.67,1.741
	c0.632,0.848,0.393,1.529,0.393,1.835c0,0.325-0.218,0.638,0,1.064c0.215,0.419,3.793,2.844,3.793,2.844s0.209-1.895,0-2.525
	c-0.211-0.642-0.628-0.851-0.628-1.267c0-0.422,0-2.119-0.323-2.643c-0.316-0.529-0.632-1.268-1.473-1.789
	c-0.843-0.532-2.288-1.103-4.004-1.585c-1.421-0.414-2.43-1.159-3.061-1.366c-0.631-0.218-1.788-2.221-1.691-3.697
	c0.111-1.48,0.318-3.896,0.318-4.427c0-0.531,0.322-1.478,0.322-1.478s0.633-0.427,1.466,0.199c0.852,0.646,4.432,2.543,8.123,2.861
	c3.692,0.311,5.064-0.216,6.008-0.424c0.957-0.213,1.479,0.208,2.01,0.731c0.525,0.525,1.896,1.788,3.054,2.222
	c1.167,0.422,2.856,1.478,2.856,1.478s-0.111,1.893-0.426,2.533c-0.322,0.633-1.582,2.419-2.01,2.737
	c-0.421,0.313-2.107,0.422-2.949,0.422c-0.841,0-1.896,0.313-2.207,0c-0.328-0.318-0.427-0.844-0.846-1.047
	c-0.426-0.213-0.641-0.532-1.168-0.109c-0.525,0.416-2.316,1.789-2.421,2.104c-0.103,0.316,0.532,0.74,0.532,0.74
	s1.58,0.209,2.416,0.619c0.852,0.434,3.691,0.646,4.33,0.542c0.633-0.108,2.313-0.427,3.793-1.799
	c1.477-1.37,2.957-2.838,3.477-3.265c0.525-0.428,1.479-0.854,1.898-1.896c0.428-1.052-0.209-2.228-1.156-3.276
	c-0.947-1.044-1.581-2.006-1.689-2.529c-0.104-0.53-0.104-0.957,0.318-1.999c0.424-1.06,0.954-1.805,1.583-3.383
	c0.63-1.581,1.159-2.951,1.373-4.853c0.205-1.896,0.104-2.523,0.946-4.425c0.844-1.909,2.214-2.847,3.479-5.063
	c1.263-2.219,2.323-5.247,2.54-5.566c0.206-0.317,0.416,0.185,0.938,0.496c0.529,0.319,1.478,1.063,3.06,1.063
	c1.578,0,2.332,0.119,2.858,0.328c0.533,0.209,1.298,0.292,2.351,0.919c1.054,0.631,1.634,1.063,2.304,1.208
	c0.846,0.187,1.928-0.403,2.178-0.779c0.482-0.729,0.789-1.565,0.562-2.373c-0.175-0.642-0.594-1.128-0.876-1.337
	c-0.697-0.527-0.707-0.161-1.209-0.66c-2.156-2.118-3.07-4.768-3.07-4.768S83.2,7.379,82.671,7.03
	c-0.522-0.343-0.905-0.109-1.255-0.63c-0.35-0.531-1.466-2.084-2.174-2.614c0,0-1.563-1.176-1.563-1.492s0.071-1.729-0.137-2.05
	c-0.214-0.313-0.316,0.32-0.527,0.634c-0.213,0.322-0.742,1.062-0.742,1.062s-0.731-0.315-0.947-0.636
	c-0.209-0.317-2.003-1.568-2.217-1.25C72.9,0.369,73.07,1.593,73.07,2.016c0,0.414,0.039,1.394,0.039,1.394s-1.01,0.133-2.276,0.563
	c-1.385,0.479-4.146,1.869-6.929,4.188c-5.151,4.267-7.258,7.109-7.875,7.913c-0.41,0.531-1.369,1.788-2.01,1.997
	c-0.629,0.208-7.268,0.529-10.321,0.422c-3.062-0.107-7.072-0.523-7.916-0.744c-0.837-0.196-7.274-0.196-9.592,0.637
	c-3.701,1.331-5.799,3.069-7.383,4.959c-1.584,1.903-1.432,1.73-2.796,2.048c-1.371,0.313-3.407-0.116-5.093-0.012
	c-1.687,0.103-6.092,1.036-8.436,2.429C0.677,28.878-0.57,30.021-0.155,30.226 M77.715,8.21c0-0.572,0.463-1.023,1.031-1.023
	c0.574,0,1.023,0.452,1.023,1.023c0,0.565-0.449,1.025-1.023,1.025C78.178,9.238,77.715,8.778,77.715,8.21 M74.002,1.471
	c0.186-0.077,0.662,0.219,1.023,0.743c0.363,0.521,0.401,1.039,0.401,1.039l-1.048,0.396c0,0-0.283-0.661-0.393-1.039
	C73.88,2.219,73.82,1.549,74.002,1.471z"/>
</svg>
