<?xml version="1.0" encoding="utf-8"?>
<!-- Generator: Adobe Illustrator 15.0.2, SVG Export Plug-In . SVG Version: 6.00 Build 0)  -->
<!DOCTYPE svg PUBLIC "-//W3C//DTD SVG 1.1//EN" "http://www.w3.org/Graphics/SVG/1.1/DTD/svg11.dtd">
<svg version="1.1" id="Layer_1" xmlns="http://www.w3.org/2000/svg" xmlns:xlink="http://www.w3.org/1999/xlink" x="0px" y="0px"
	 width="111.371px" height="119.705px" viewBox="0 0 111.371 119.705" enable-background="new 0 0 111.371 119.705"
	 xml:space="preserve">
<path fill="#FFCF0A" d="M0.021,92.422c0.602-0.347,0.855-0.468,1.276-0.45c0.705,0,1.17,0.104,1.749,0.571
	c0.605,0.492,1.542,1.313,2.599,1.313c1.071,0,1.894-0.821,2.591-1.057c0.721-0.258,0.955-0.482,1.77-0.482
	c0.823,0,1.418,0.482,2.015,1.063c0.579,0.579,1.528,0.942,2.586,1.076c1.504,0.16,2.57-0.858,3.027-1.076
	c0.369-0.171,1.239-0.287,1.239-0.287l-0.721-1.271c0,0-1.071,0.361-2.004,0.25c-0.96-0.104-2.015-0.686-2.599-1.405
	c-0.579-0.715-2.472-2.72-4.245-2.72c-1.765,0-1.644,1.658-3.77,1.658c-2.109,0-2.417-1.957-4.538-1.957l-1.01,0.299L0.021,92.422"
	/>
<path fill="#FFCF0A" d="M36.289,89.884c0,0,0.182-0.05,0.563-0.05c0.892,0.04,1.999,0.544,1.999,0.544L38.83,92.03
	c0,0-0.447-0.284-1.226-0.965C36.807,90.378,36.289,89.884,36.289,89.884"/>
<path fill="#FFCF0A" d="M0.029,98.563c0.5-0.312,0.986-0.617,1.504-0.584c1.187,0.117,1.489,0.211,2.199,0.904
	c0.676,0.7,1.973,1.402,2.851,1.292c0.9-0.112,2.278-1.292,3.47-1.292c1.205,0,2.088,0.4,2.596,0.891
	c0.487,0.513,1.773,1.197,2.578,1.281c0.76,0.108,1.784-0.484,2.184-0.881c0.386-0.392,1.081-1.104,1.973-1.104
	c0.878,0,2.483,1.498,2.967,1.898c0.979,0.768,2.375,0.982,2.375,0.982c0.899,0.105,1.707-0.205,2.183-0.41
	c0.505-0.188,3.478-1.594,3.478-1.594l-3.873-3.45l-3.064,1.14c0,0-1.378-1.427-2.183-2.039c-0.808-0.574-1.194-0.73-2.065-0.674
	c-0.918,0.039-1.497,0.365-1.999,0.637c-0.502,0.273-1.594,1.041-2.483,0.938c-0.9-0.082-1.689-0.396-2.476-1.094
	c-0.797-0.692-1.299-0.979-2.191-1.081c-0.881-0.104-1.678,0.294-2.075,0.7c-0.4,0.381-1.289,0.773-1.873,0.773
	c-0.61,0-1.781-0.302-2.183-0.584c-0.805-0.542-1.397-1.404-2.183-1.497c-0.802-0.089-1.392,0.308-1.792,0.503L0.029,98.563"/>
<path fill="#FFCF0A" d="M60.826,107.854c1.537,0,4.023-0.752,5.053-1.211c0.469-0.207,2.064-1.021,2.852-0.519
	c0.814,0.479,1.715,0.894,2.771,1.679c1.107,0.797,1.9,1.297,4.068,1.401c2.197,0.095,4.879-2.104,7.051-1.896
	c2.168,0.219,4.756,1.592,5.439,2.185c0.709,0.603,2.701,1.493,4.172,1.571c1.488,0.117,3.469-0.672,4.463-1.074
	c0.981-0.393,1.574-0.891,3.859-0.891c2.288,0,3.791,0.891,4.668,1.377c0.885,0.51,2.28,1.979,3.172,2.07
	c0.899,0.111,2.977,0.608,2.977,0.608v6.547c0,0-2.771-0.104-3.766-0.902c-1.004-0.797-3.779-3.071-6.351-3.157
	c-2.586-0.11-2.987,0-4.162,0.58c-1.198,0.592-2.784,1.305-4.563,1.198c-1.771-0.086-4.256-1.291-5.155-1.996
	c-0.881-0.673-1.865-1.771-4.472-1.854c-2.561-0.109-3.067,0.479-4.145,0.967c-1.092,0.484-2.301,0.814-3.764,0.589
	c-1.496-0.192-3.393-1.274-4.281-1.97c-0.9-0.7-1.48-1.385-3.955-1.469c-2.475-0.107-2.779,0.672-3.854,1.063
	c-1.098,0.403-1.895,0.613-2.896,0.503c-0.984-0.1-3.057-1.193-3.947-1.973c-0.899-0.809-1.594-1.396-3.272-1.295
	c-1.71,0.104-3.785,1.592-5.758,1.484c-1.965-0.111-2.191-0.799-2.867-1.299c-0.691-0.484-1.901-1.768-4.09-1.679
	c-2.17,0.104-2.949,1.491-4.94,1.391c-1.997-0.104-2.48-0.987-2.97-1.391c-0.489-0.397-0.994-1.271-3.167-1.271
	c-2.194,0-2.194,0.771-3.07,1.068c-0.913,0.307-1.497,0.202-2.099,0.104c-0.6-0.104-1.87-0.789-2.362-1.297
	c-0.502-0.494-1.01-0.977-2.268-1.098c-1.32-0.07-2.109,0.305-2.888,0.813c-0.8,0.494-0.8,0.597-1.594,0.494
	c-0.79-0.084-1.583-0.293-2.373-1.091c-0.792-0.788-1.402-1.584-2.875-1.584c-1.494,0-1.188,0.386-1.988,0.899
	c-0.794,0.469-1.489,0.685-2.196,0.59c-0.684-0.121-1.778-1.196-2.386-1.604c-0.574-0.393-0.96-0.777-2.063-0.777
	c-0.371,0-0.613,0.027-0.818,0.103L0,99.765c0.332-0.146,0.684-0.214,1.042-0.18c1.286,0.096,3.162,2.165,4.453,2.26
	c1.289,0.11,2.789-1.668,3.977-1.558c1.197,0.077,3.067,2.373,4.553,2.373c1.489,0,2.675-1.397,4.746-1.397
	c2.091,0,2.446,0.92,2.88,1.305c0.337,0.263,1.189,1.065,2.386,1.065c1.194,0,3.454-1.083,4.964-0.69
	c0.928,0.242,2.417,1.017,3.057,1.836c0.673,0.82,2.136,1.063,3.009,1.185c0.879,0.113,2.841-0.938,3.496-1.185
	c0.636-0.233,0.939-0.364,1.873-0.286c0.95,0.053,2.486,0.354,3.009,0.94c0.537,0.573,2.299,1.533,2.72,1.728
	c0.405,0.159,0.779,0.032,1.612,0c0.815-0.082,1.586-0.253,2.165-0.552c0.6-0.299,2.251-1.35,3.835-1.176
	c1.613,0.166,1.613,0.694,2.428,0.994C57.027,106.711,57.925,107.865,60.826,107.854"/>
<path fill="#FFCF0A" d="M47.399,91.347c0,0,1.452-0.281,2.139-0.697c0.694-0.406,1.633-1.09,2.333-1.215
	c0.684-0.111,1.904-0.182,1.904-0.182v5.382c0,0-0.768-0.208-1.688,0.056c-0.787,0.254-2.202,0.959-2.925,1.494
	c-0.442,0.344-1.762,0.133-1.762,0.133L47.399,91.347"/>
<path fill="#FFCF0A" d="M47.399,98.825v3.13h6.434v-4.864c0,0-0.929-0.431-1.634-0.121c-0.691,0.287-1.678,0.85-2.191,1.258
	c-0.518,0.402-0.902,0.657-1.399,0.703C47.86,99.022,47.399,98.825,47.399,98.825"/>
<path fill="#FFCF0A" d="M62.225,91.533l0.813-0.259l0.52-0.193c0,0,0.662,1.331,0.953,1.625c0.322,0.29,1.211,1.404,1.211,1.404
	s-0.961,0.16-1.502,0.522c-0.523,0.396-1.914,1.36-1.914,1.36L62.225,91.533"/>
<path fill="#FFCF0A" d="M79.246,100.135c0,0,1.266-0.802,1.633-0.942c0.375-0.17,2.23-0.463,2.682-0.463
	c0.449,0,2.744,0.518,3.355,1.045c0.584,0.522,1.482,1.272,2.434,1.771c0.98,0.533,2.676,0.533,3.951,0.46
	c1.266-0.067,2.092-0.159,3.199-0.741c1.113-0.601,2.959-1.347,4.836-1.414c1.855-0.074,3.84,0.662,4.678,1.198
	c0.814,0.497,2.086,1.331,3.047,1.617c0.965,0.295,2.312,0.765,2.312,0.765v6.598c0,0-0.681,0-2.526-1.029
	c-1.867-1.036-3.798-2.532-6.845-2.614c-3.035-0.073-3.66,0.308-4.75,1.062c-1.127,0.74-2.608,1.098-4.39,0.882
	c-1.791-0.226-4.399-2.157-5.358-2.749c-0.972-0.581-2.157-0.663-3.871-0.663c-1.705,0-2.827,0.521-4.006,1.033
	c-1.201,0.52-2.082,0.84-3.931,0.604c-1.872-0.241-3.141-1.19-4.399-2.024c-1.271-0.813-4.396-0.666-4.396-0.666l7.447-5.951
	L79.246,100.135"/>
<path fill="#FFCF0A" d="M93.675,93.961l0.574-0.965c0,0,0.39-0.056,0.83-0.132c0.45-0.063,3.565-2.297,6.694-2.165
	c3.123,0.155,3.625,0.976,4.31,1.272c0.658,0.293,2.076,1.342,2.978,1.49c0.91,0.141,2.383,0.35,2.383,0.35v6.403
	c0,0-2.146,0.447-3.479-0.657c-1.36-1.115-3.812-2.392-5.965-2.533c-2.153-0.146-4.547,1.117-5.267,1.494
	c-0.76,0.365-1.784,0.676-1.784,0.676s0.274-1.719,0.069-2.693C94.791,95.554,93.675,93.961,93.675,93.961"/>
<path fill="#FFCF0A" d="M49.396,6.813c-21.938,0-39.756,22.69-39.756,50.665s17.818,50.641,39.756,50.641
	c27.346,0,42.182-22.761,42.182-50.738C91.578,29.406,73.785,6.813,49.396,6.813 M49.396,101.332
	c-18.666,0-33.864-19.297-33.864-43.854s15.272-43.585,33.961-43.585c18.641,0,33.769,19.028,33.769,43.585
	S68.087,101.332,49.396,101.332"/>
<path fill="#FFCF0A" d="M45.348,107.853l0.05-104.189c0-1.842-0.366-3.71-2.304-3.66c-1.673,0.047-2.083,1.648-2.181,3.756
	l-0.074,103.948L45.348,107.853"/>
<path fill="#FFCF0A" d="M73.785,102.494c1.188,1.407,3.076,2.522,4.605,1.334c1.403-1.14,1.209-3.078-0.099-4.728l-57.38-76.435
	c-1.089-1.479-2.52-2.788-4.022-1.601c-1.31,1.018-0.705,2.594,0.484,4.315L73.785,102.494"/>
<path fill="#FFCF0A" d="M79.042,14.134c1.067-1.528,1.674-3.662,0.125-4.801c-1.433-1.091-3.299-0.388-4.56,1.31L15.701,85.89
	c-1.139,1.454-2.036,3.15-0.46,4.313c1.31,1.021,2.641,0.026,4.001-1.573L79.042,14.134"/>
<path fill="#FFCF0A" d="M95.117,54.206l-84.846-0.413c-1.844,0-3.709,0.388-3.638,2.303c0.026,1.673,1.649,2.109,3.759,2.158
	l84.725,2.545c1.865,0,3.344-1.455,3.344-3.297S96.982,54.206,95.117,54.206"/>
<path fill="#FFCF0A" d="M80.596,15.539l5.891,3.443c0,0,1.963-1.697,3.127-2.86c1.115-1.09,3.006-1.698,4.217-0.533
	c1.455,1.357,0.461,2.473-0.387,3.901c-0.851,1.383-2.521,2.838-2.521,2.838s4.414,4.363,7.539,13.405
	c3.104,9.043,3.953,18.473,3.953,18.473s3.854-0.171,4.969,0.072c1.141,0.291,3.469,0.509,3.516,3.176
	c0.025,2.787-1.914,3.37-3.635,3.37c-1.697,0-4.85,0.145-4.85,0.145s-0.752,7.999-2.645,14.328
	c-3.394,11.295-8.871,18.642-8.871,18.642s-0.242,0.363,0.678,1.189c0.875,0.773,1.771,2.98,0.486,4.193
	c-1.31,1.187-3.201,0-4.631-1.312c-1.404-1.282-1.455-1.188-1.455-1.188s-1.674,0.656-2.595,1.236
	c-0.92,0.584-2.276,1.264-2.276,1.264l-1.164-1.771c0,0,0.992-0.822,2.521-2.957c1.502-2.062,3.783-3.587,7.539-13.625
	c3.174-8.58,3.514-18.205,3.514-18.205s2.521-0.074,3.734-0.291c1.211-0.218,3.395-2.256,3.395-4.873
	c0-2.617-1.092-4.824-3.979-5.212c-2.688-0.364-2.979-0.193-2.979-0.193s0.482-3.759-3.176-15.104
	C86.486,24.679,79.02,17.696,79.02,17.696L80.596,15.539"/>
<path fill="#FFCF0A" d="M47.676,15.952l0.145,4.509c0,0,1.407-0.679,3.564-1.09c2.425-0.437,4.412-0.388,4.412-0.388V31.2
	l4.535-6.084l-0.049-6.571c0,0-3.031-1.648-7.442-2.254C49.543,15.831,47.676,15.952,47.676,15.952"/>
<path fill="#FFCF0A" d="M38.851,18.448v7.612l-2.691,2.983l2.546,3.005l0.097,4.436l-4.679-5.333l-1.771,2.691l-4.824-6.159
	c0,0,2.402-3.464,5.698-5.866C36.549,19.418,38.851,18.448,38.851,18.448"/>
<path fill="#FFCF0A" d="M72.645,9.915l-0.992,1.261c0,0-1.432-0.751-2.473-1.357c-0.972-0.583-2.5-1.261-2.5-1.261
	s2.28,0.316,3.37,0.534C71.143,9.261,72.645,9.915,72.645,9.915"/>
<path fill="#FFCF0A" d="M22.271,35.854l5.308,7.491c-0.363,0.945-0.971,2.496-1.576,4.315c-0.484,1.601-0.85,4.073-0.85,4.073
	l-7.005-0.074c0,0,0.508-4.097,1.405-7.854C21.035,37.818,22.271,35.854,22.271,35.854"/>
<path fill="#FFCF0A" d="M53.955,49.356l1.163,1.309l0.679-0.072V46.23l4.438-4.946v8.194l15.369-17.454c0,0,0.41,0.897,0.994,2.207
	c0.604,1.309,1.309,2.617,1.309,2.617L64.667,51.854L51.626,52.12L53.955,49.356"/>
<path fill="#FFCF0A" d="M64.5,61.815l13.141,14.908c0,0-0.729,2.012-1.188,2.715c-0.533,0.705-1.431,2.597-1.431,2.597
	L60.232,62.763l-0.072,8.437l-4.364-5.601v-2.182l-0.944-0.098l-0.316,0.17l-1.333-1.674H64.5"/>
<polyline fill="#FFCF0A" points="38.614,74.849 38.614,80.196 30.431,90.313 27.911,87.472 38.614,74.849 "/>
<path fill="#FFCF0A" d="M17.857,60.703l6.426-0.097c0,0,0,2.326,0.192,4.824c0.121,1.816,0.582,4.629,0.582,4.629l-4.048,5.771
	c0,0-1.455-3.03-2.204-7.687C18.173,64.338,17.857,60.703,17.857,60.703"/>
<polyline fill="#FFCF0A" points="55.791,81.763 60.244,87.746 60.244,100.663 55.791,103.746 55.791,81.763 "/>
<polyline fill="#FFCF0A" points="25.41,83.871 28.334,80.403 29.505,83 26.985,85.881 25.41,83.871 "/>
<path fill="#FFCF0A" d="M34.595,94.194c-1.744-1.351-2.896-2.514-2.896-2.514l2.046-2.422c0,0,0.971,1.34,2.499,2.713
	c1.531,1.359,2.585,2.103,2.585,2.103l0.121,3.204C38.951,97.278,36.339,95.508,34.595,94.194"/>
</svg>
