<?xml version="1.0" encoding="utf-8"?>
<!-- Generator: Adobe Illustrator 15.0.2, SVG Export Plug-In . SVG Version: 6.00 Build 0)  -->
<!DOCTYPE svg PUBLIC "-//W3C//DTD SVG 1.1//EN" "http://www.w3.org/Graphics/SVG/1.1/DTD/svg11.dtd">
<svg version="1.1" id="Layer_1" xmlns="http://www.w3.org/2000/svg" xmlns:xlink="http://www.w3.org/1999/xlink" x="0px" y="0px"
	 width="81.575px" height="56.756px" viewBox="0 0 81.575 56.756" enable-background="new 0 0 81.575 56.756" xml:space="preserve">
<path fill="#E66B5B" d="M5.207,53.856c-1.793,0.836-2.519,1.654-2.605,2.447c-0.076,0.786,0.264,0.422,1.578-0.142
	c1.308-0.567,3.598-0.695,4.349-0.744c1.408-0.097,3.51-1.071,4.673-1.687c1.155-0.61,10.57-6.188,10.57-6.188
	s6.385-1.299,15.125-4.746c5.988-2.369,10.047-4.428,15.961-7.885c5.229-3.051,12.038-8.061,13.398-10.225
	c0.748-1.188,3.244-2.063,3.891-2.174c1.221-0.221,1.553-0.112,2.225-0.375c0.17-0.063-0.809-0.688-1.854-1.178
	c-0.622-0.293-1.646-0.459-1.946-1.084c-0.952-2.063-3.821-3.239-6.418-3.416c-4.075-0.278-9.55,4.658-13.131,1.892
	C44.814,13.57,35.99,9.083,33.408,7.522c-5.12-3.091-14.517-6.52-22.07-7.294C3.791-0.557,2.05,0.835,3.079,1.995
	c1.148,1.276,2.062,0.709,4.15,1.223c1.74,0.438,3.708,1.512,3.708,1.512S8.913,4.921,7.381,5.177
	c-1.501,0.24-4.15,0.966-2.71,2.217C5.452,8.083,7.4,7.925,9.581,8.558c2.285,0.648,3.184,1.604,3.184,1.604
	s-0.996-0.318-2.639,0.027c-1.778,0.376-3.456,0.963-2.744,1.961c0.799,1.1,2.068,0.335,3.858,0.809
	c1.35,0.358,4.62,0.885,7.626,1.766c2.708,0.792,4.879,3.256,6.596,5.351c2.899,3.558,4.682,6.97,8.088,10.085
	c0,0-2.749,1.977-4.404,3.232c-2.562,1.957-7.226,6.448-8.807,8.295c-4.272,4.963-14.661,8.58-16.499,9.563
	c-1.833,0.967-2.832,2.119-2.924,2.648c-0.094,0.545,2.794-0.797,3.57-0.959C5.269,52.771,6.999,53.034,5.207,53.856 M62.459,20.839
	c-0.334-0.625-0.094-1.416,0.533-1.739c0.617-0.331,1.402-0.095,1.739,0.537c0.327,0.62,0.085,1.405-0.539,1.735
	C63.572,21.7,62.793,21.462,62.459,20.839z"/>
<path fill="#E66B5B" d="M56.165,43.948c-2.822-0.059-5.125-1.986-5.125-1.986s3.506-1.371,7.201-3.5
	c5.596-3.232,6.983-4.225,7.612-4.775c0.625-0.541,1.681,1.164,6.427,1.813c0.803,0.11,2.663-0.153,4.625,1.604
	c3.842,3.433,4.564,5.188,2.949,4.935c-0.477-0.074-0.297,0.096-2.292-0.834c-0.521-0.257-2.33-0.465-0.922,0.09
	c0.717,0.299,2.082,0.976,0.493,1.433c-0.432,0.129-1.868-0.283-2.744-0.539c-0.971-0.297-1.893-0.054-1.527,0.069
	c0.711,0.261,2.527,0.771,0.973,1.41c-0.734,0.291-2.104-0.013-4.553,0.092c-1.578,0.08-2.259-0.02-5.814-0.411
	C61.926,43.181,59.29,44.003,56.165,43.948"/>
</svg>
