<?xml version="1.0" encoding="utf-8"?>
<!-- Generator: Adobe Illustrator 15.0.2, SVG Export Plug-In . SVG Version: 6.00 Build 0)  -->
<!DOCTYPE svg PUBLIC "-//W3C//DTD SVG 1.1//EN" "http://www.w3.org/Graphics/SVG/1.1/DTD/svg11.dtd">
<svg version="1.1" id="Layer_1" xmlns="http://www.w3.org/2000/svg" xmlns:xlink="http://www.w3.org/1999/xlink" x="0px" y="0px"
	 width="72.246px" height="65.189px" viewBox="0 0 72.246 65.189" enable-background="new 0 0 72.246 65.189" xml:space="preserve">
<path fill="#00A94F" d="M71.496,0l0.75,1.229L44,18.256c-0.541,0.358-2.097,1.67-2.689,2.033c-0.464,0.284-0.997,0.293-1.375,0
	c-0.367-0.297-0.732-1.263,0.191-1.822c0.479-0.292,2.494-1.072,3.092-1.426L71.496,0"/>
<path fill="#00A94F" d="M0.862,8.705l0.567-1.33l30.277,13.057c0.603,0.239,2.582,0.745,3.215,1.018
	c0.505,0.205,0.817,0.648,0.792,1.115c-0.02,0.48-0.594,1.321-1.587,0.897c-0.52-0.215-2.321-1.407-2.956-1.688L0.862,8.705"/>
<path fill="#00A94F" d="M54.259,14.014c0.932,0.687,1.455,1.409,1.578,2.16c0.428,2.867-5.217,7.817-15.406,9.371
	c-10.182,1.563-17.046-1.486-17.48-4.345c-0.063-0.399,0-0.839,0.166-1.299l-2.523-1.087c-0.36,0.921-0.491,1.861-0.346,2.797
	c0.486,3.217,4.089,5.568,9.208,6.564c0.181-0.897,0.793-1.546,1.475-1.484c0.701,0.071,1.201,0.886,1.16,1.854
	c2.691,0.263,5.667,0.191,8.754-0.287c2.73-0.419,5.277-1.097,7.543-1.969c-0.151-0.874,0.174-1.681,0.816-1.869
	c0.551-0.169,1.17,0.195,1.56,0.85c5.153-2.523,8.304-6.081,7.778-9.5c-0.197-1.282-0.881-2.43-1.957-3.393
	c-0.856,0.52-1.697,1.02-2.51,1.512L54.259,14.014"/>
<path fill="#00A94F" d="M37.925,9.121c-6.203,0.955-11.495,3.263-14.646,6.093c0.994,0.429,1.94,0.833,2.826,1.213
	c2.89-2.145,7.339-3.836,12.244-4.595c3.794-0.582,7.501-0.528,10.563,0.077c1.008-0.62,2.11-1.271,3.256-1.964
	C48.4,8.676,43.335,8.294,37.925,9.121"/>
<path fill="#00A94F" d="M63.264,51.043c-0.147,0.367-0.347,0.779-0.589,1.207c0.312,0.217,0.566,0.666,0.625,1.201
	c0.093,0.801-0.25,1.493-0.766,1.551c-0.427,0.041-0.853-0.364-1.025-0.969c-1.064,1.411-2.545,2.889-4.481,4.162
	c-2.823,1.854-6.545,3.178-10.483,3.824c-0.043,0.862-0.549,1.563-1.226,1.622c-0.644,0.053-1.241-0.504-1.458-1.311
	c-0.415,0.035-0.813,0.076-1.217,0.1c-7.576,0.351-11.724-1.604-14.046-3.271c-0.091,0.543-0.39,0.961-0.778,1.006
	c-0.53,0.049-1.032-0.59-1.104-1.438c-0.049-0.387,0.01-0.749,0.134-1.039c-0.409-0.387-0.687-0.676-0.891-0.766l0.498,2.861
	c0,0,1.866,5.746,16.314,5.387c5.475-0.135,12.896-2.506,16.348-4.984c4.625-3.319,4.75-5.686,4.75-5.686L63.264,51.043"/>
<path fill="#00A94F" d="M62.339,49.467c0.207-0.313,0.322-0.506,0.322-0.506l-4.551-26.54c0,0-0.904,2.308-6.855,5.188l1.801,3.215
	l-2.689-1.346l-0.779-1.271c-4.2,1.486-10.791,2.975-17.887,2.384l-0.327,1.354l-2.771,3.405l0.811-5.021
	c-6.507-1.391-7.916-3.678-7.916-3.678l4.21,27.895c0,0,0.183,0.283,0.539,0.541l-0.045-0.969l2.176-2.805l-0.521,4.367
	l-0.417,0.481c0,0,2.149,1.938,5.772,3.033c5.953,1.783,10.865,1.221,10.865,1.221l0.678-2.484l1.156,2.32
	c2.254-0.438,6.243-1.817,8.811-3.24c3.347-1.84,5.349-4.369,6.933-6.447l-1.126-1.032l-2.005-4.046l2.845,1.729L62.339,49.467
	 M28.788,47.844l-2.13,2.701l0.526-4.104l2.094-2.724L28.788,47.844 M29.67,40.375l-2.048,2.609l0.53-4.146l2.002-2.537
	L29.67,40.375 M33.345,38.465l-1.898-3.973l0.644-3.066l1.827,3.664L33.345,38.465 M36.485,45.042l-1.772-3.715l0.502-3.375
	l1.768,3.697L36.485,45.042 M39.5,51.366l-1.689-3.533l0.539-3.311l1.678,3.504L39.5,51.366 M42.796,58.286l-1.969-4.129
	l0.557-3.289l1.941,4.047L42.796,58.286 M46.458,57.696l-1.263-2.751l0.712-4.604l1.283,2.681L46.458,57.696 M47.681,49.897
	l-1.266-2.847l0.625-4.09l1.271,2.885L47.681,49.897 M48.83,42.553l-1.281-2.866l0.64-4.122l1.292,2.887L48.83,42.553 M50,35.174
	l-1.316-2.856l0.542-3.704l1.353,2.633L50,35.174 M53.765,35.859l-1.77-3.579l2.611,1.61l1.833,3.615L53.765,35.859 M57.013,42.431
	l-1.771-3.572l2.734,1.687l1.798,3.533L57.013,42.431z"/>
</svg>
